<svg width="77" height="38" viewBox="0 0 77 38" fill="none" xmlns="http://www.w3.org/2000/svg">
    <g opacity="0.9" filter="url(#filter0_d)">
        <path d="M15.3467 27.3507C17.4609 16.3283 27.1553 8.00009 38.7939 8.00009C38.8037 8.00009 38.8115 8.00009 38.8213 8.00009C38.8555 8.00009 38.8887 8.00021 38.9229 8.00046C50.4648 8.06076 60.0674 16.3112 62.2187 27.2368C64.3701 38.1623 72.8398 38.0001 72.8398 38.0001C50.1732 38.0008 27.5065 38.0004 4.83984 38.0001C4.83984 38.0001 13.2324 38.373 15.3467 27.3507Z" fill="url(#paint0_linear)"/>
    </g>
    <path d="M38.5908 21.3211C34.6849 17.5068 31.3219 14.8603 30.8867 15.2954C30.4516 15.7306 33.0982 19.0936 36.9124 22.9994C33.0982 26.9053 30.4518 30.2682 30.8869 30.7033C31.322 31.1384 34.685 28.492 38.5908 24.6778C42.4966 28.492 45.8595 31.1384 46.2946 30.7033C46.7297 30.2682 44.0833 26.9052 40.2691 22.9994C44.0833 19.0936 46.7299 15.7306 46.2948 15.2954C45.8596 14.8603 42.4966 17.5069 38.5908 21.3211Z" fill="url(#paint1_linear)"/>
    <defs>
        <filter id="filter0_d" x="0.839844" y="9.15527e-05" width="76" height="38.0015" filterUnits="userSpaceOnUse" color-interpolation-filters="sRGB">
            <feFlood flood-opacity="0" result="BackgroundImageFix"/>
            <feColorMatrix in="SourceAlpha" type="matrix" values="0 0 0 0 0 0 0 0 0 0 0 0 0 0 0 0 0 0 127 0"/>
            <feOffset dy="-4"/>
            <feGaussianBlur stdDeviation="2"/>
            <feColorMatrix type="matrix" values="0 0 0 0 0 0 0 0 0 0 0 0 0 0 0 0 0 0 0.25 0"/>
            <feBlend mode="normal" in2="BackgroundImageFix" result="effect1_dropShadow"/>
            <feBlend mode="normal" in="SourceGraphic" in2="effect1_dropShadow" result="shape"/>
        </filter>
        <linearGradient id="paint0_linear" x1="72.8398" y1="8.00009" x2="67.1372" y2="47.0899" gradientUnits="userSpaceOnUse">
            <stop stop-color="#FF9E18"/>
            <stop offset="1" stop-color="#F8DF8D"/>
        </linearGradient>
        <linearGradient id="paint1_linear" x1="30.84" y1="30.7501" x2="36.9882" y2="12.1559" gradientUnits="userSpaceOnUse">
            <stop/>
            <stop offset="1" stop-color="#3A3A3A"/>
        </linearGradient>
    </defs>
</svg>