<svg width="77" height="77" viewBox="0 0 77 77" fill="none" xmlns="http://www.w3.org/2000/svg">
    <circle cx="38.8398" cy="38.2888" r="37" stroke="url(#paint0_linear)" stroke-width="2"/>
    <path d="M58.5449 59.2713C58.5067 59.1811 58.4525 59.1003 58.3829 59.0312C58.314 58.9637 58.2317 58.9092 58.1415 58.8734C58.0513 58.8374 57.9552 58.819 57.8576 58.8207H51.6219V50.7509C51.6219 50.5557 51.5442 50.3694 51.4061 50.2315C51.2691 50.094 51.0819 50.0171 50.8882 50.0171H46.486C46.4625 50.0157 46.4397 50.0157 46.417 50.0171C46.2352 50.0341 46.065 50.1184 45.9425 50.2548C45.8191 50.3896 45.751 50.5674 45.7524 50.7509V58.8207H43.1845V29.4746H54.1892V56.6198C54.1877 56.7174 54.2062 56.8135 54.242 56.9039C54.278 56.9941 54.3322 57.0762 54.4005 57.1461C54.4686 57.2149 54.5502 57.2693 54.6396 57.3075C54.7298 57.3447 54.8252 57.3646 54.9227 57.3646C55.0203 57.3646 55.1165 57.3445 55.2059 57.3075C55.2954 57.2691 55.3769 57.2149 55.445 57.1461C55.5131 57.0762 55.5675 56.9943 55.6035 56.9039C55.6393 56.8137 55.6577 56.7174 55.6563 56.6198V28.7408C55.6563 28.5463 55.5794 28.3597 55.4413 28.222C55.3034 28.0846 55.1171 28.007 54.9225 28.007H42.4506C42.4279 28.006 42.4048 28.006 42.3816 28.007C42.1992 28.0242 42.0302 28.1091 41.9069 28.2448C41.7839 28.381 41.716 28.5577 41.7168 28.7408V35.3437H38.1748L39.0575 28.0187L41.4004 26.7858C42.2008 26.3648 43.0968 25.484 43.796 24.4305C44.3581 23.5842 44.9421 22.4135 44.5349 21.6407C44.1118 20.8376 42.8272 20.6688 41.8232 20.6688C40.8161 20.6688 39.3903 20.8523 38.409 21.3694L36.1775 22.5434L24.3677 16.364C24.175 16.2633 23.9444 16.2633 23.7517 16.3646L21.0613 17.7804C20.8779 17.8771 20.7502 18.0539 20.7162 18.2584C20.6819 18.4638 20.7467 18.6725 20.8897 18.8226L28.3419 26.6674L26.3673 27.7063C25.8416 27.9831 25.3938 28.283 24.9462 28.6518L20.9797 25.9516C20.7778 25.8139 20.5156 25.7992 20.2998 25.9119L19.4328 26.3675C19.109 26.5377 18.984 26.9376 19.1542 27.2622L21.4799 31.6908L20.2304 32.7887C20.0913 32.9112 20.0232 33.0822 20.0152 33.2582C20.0109 33.2596 20.8349 35.0274 20.8349 35.0274C20.9515 35.2488 21.18 35.3811 21.421 35.3811C21.4748 35.3811 21.529 35.3746 21.5832 35.3613L23.1955 34.954L25.5548 39.4278C25.674 39.6528 25.9031 39.7806 26.1414 39.7806C26.2454 39.7806 26.3505 39.7561 26.4493 39.7043L27.3152 39.2488C27.5319 39.1348 27.6677 38.9104 27.6689 38.6651L27.6894 33.8088C28.2358 33.6507 28.7292 33.4533 29.2469 33.1812L31.2215 32.1423L31.9007 35.3437H29.9784C29.7837 35.3437 29.5973 35.421 29.4597 35.5587C29.322 35.6963 29.2447 35.8829 29.2447 36.0774V58.8209H27.0436C27.0209 58.8201 26.9977 58.8201 26.975 58.8209C26.8785 58.8252 26.7838 58.8489 26.6966 58.89C26.6095 58.9311 26.5311 58.989 26.4663 59.0602C26.4012 59.1314 26.3511 59.2149 26.3184 59.3059C26.2855 59.3961 26.2711 59.492 26.2756 59.5892C26.2803 59.6851 26.3035 59.7799 26.3446 59.8672C26.3857 59.9543 26.4436 60.0323 26.5148 60.0973C26.5864 60.1628 26.6696 60.2127 26.7607 60.2448C26.8513 60.278 26.9478 60.2927 27.0438 60.2876H57.8574C57.955 60.2892 58.0511 60.2716 58.1413 60.2348C58.2315 60.1996 58.3138 60.1452 58.3827 60.0771C58.4525 60.0088 58.5067 59.9273 58.5447 59.8369C58.5815 59.7473 58.6012 59.6524 58.6012 59.5544C58.6016 59.4569 58.5817 59.3609 58.5449 59.2713ZM22.4528 18.5444L24.0615 17.6981L34.7529 23.2929L29.5601 26.0257L22.4528 18.5444ZM20.7048 27.3653L23.9123 29.549L22.5027 30.7887L20.7048 27.3653ZM26.3476 38.0887L24.5174 34.6197L26.3642 34.1527L26.3476 38.0887ZM31.3803 30.5616C31.3797 30.5616 31.3797 30.5622 31.3789 30.5622L28.6308 32.0091C28.1069 32.2853 27.6362 32.4647 27.0581 32.6115L21.9647 33.8988L21.7303 33.2314L25.5961 29.8332C26.0443 29.4394 26.4595 29.1538 26.984 28.8785L39.0264 22.5401C39.6489 22.213 40.7738 21.9925 41.824 21.9925C42.7245 21.9925 43.2138 22.1562 43.3502 22.2548C43.3674 22.8527 42.0603 24.9427 40.7836 25.6133L38.137 27.0065C38.1357 27.0074 38.1343 27.0074 38.1331 27.0078L31.3803 30.5616ZM32.4405 31.4993L37.6333 28.7672L36.8409 35.3437L36.6641 36.811L36.1899 40.7464L34.5809 41.5926L33.5668 36.811L33.2557 35.3437L32.4405 31.4993ZM37.6822 58.8207H34.7476V52.952H37.6822V58.8207ZM41.7172 58.8207H39.1494V52.2184C39.1494 52.0231 39.0722 51.8369 38.9348 51.699C38.7973 51.5608 38.6105 51.4845 38.416 51.4845H34.0138C33.9911 51.483 33.968 51.483 33.9453 51.4845C33.7624 51.5014 33.5934 51.5859 33.4701 51.7222C33.3471 51.8572 33.2794 52.0349 33.2801 52.2184V58.8207H30.7126V36.811H32.2124L33.4668 42.7249C33.5098 42.9284 33.6462 43.099 33.8336 43.1872C33.9232 43.2291 34.0191 43.2502 34.1151 43.2502C34.221 43.2502 34.327 43.225 34.4238 43.1741L37.1142 41.7577C37.3069 41.6565 37.4366 41.4679 37.4632 41.2506L37.9981 36.8112H41.7172V58.8207ZM50.1546 58.8207H47.2197V51.4845H50.1546V58.8207Z" fill="url(#paint1_linear)"/>
    <defs>
        <linearGradient id="paint0_linear" x1="0.839844" y1="0.288818" x2="92.0026" y2="30.4325" gradientUnits="userSpaceOnUse">
            <stop stop-color="#FF9E18"/>
            <stop offset="1" stop-color="#F8DF8D"/>
        </linearGradient>
        <linearGradient id="paint1_linear" x1="19.0781" y1="16.2886" x2="67.4064" y2="30.6427" gradientUnits="userSpaceOnUse">
            <stop stop-color="#FF9E18"/>
            <stop offset="1" stop-color="#F8DF8D"/>
        </linearGradient>
    </defs>
</svg>
