<svg width="77" height="77" viewBox="0 0 77 77" fill="none" xmlns="http://www.w3.org/2000/svg">
    <circle cx="38.8398" cy="38.3867" r="37" stroke="url(#paint0_linear)" stroke-width="2"/>
    <path d="M35.981 39.1027L34.1276 52.6287C33.8121 55.0342 35.5078 57.282 37.9133 57.5974C38.1105 57.6369 38.3076 57.6369 38.5048 57.6369H52.8589C55.3038 57.6369 57.2755 55.6651 57.2755 53.2202C57.2755 53.023 57.2755 52.8259 57.2361 52.6287L55.3827 39.1027C55.3038 38.6295 54.9095 38.2746 54.4363 38.2352H36.9669C36.4542 38.2352 36.0599 38.5901 35.981 39.1027ZM53.5687 40.2069L55.3038 52.8653C55.501 54.2061 54.5546 55.4285 53.2138 55.6257C53.0955 55.6257 52.9772 55.6651 52.8983 55.6651H38.5442C37.2035 55.6651 36.0993 54.561 36.0993 53.2202C36.0993 53.1019 36.0993 52.9836 36.1387 52.8653L37.8739 40.2069H53.5687Z" fill="url(#paint1_linear)"/>
    <path d="M36.9274 19.3867C33.26 19.3867 30.263 22.3837 30.263 26.0511V27.7862H25.0971C24.5844 27.7862 24.1901 28.1411 24.1112 28.6538L20.8776 52.6299C20.5621 55.0354 22.2578 57.2831 24.6633 57.5986C24.8605 57.638 25.0577 57.638 25.2548 57.638H31.6432C32.1953 57.638 32.629 57.2042 32.629 56.6522C32.629 56.1001 32.1953 55.6663 31.6432 55.6663H25.2548C23.9141 55.6663 22.8099 54.5621 22.8099 53.2214C22.8099 53.1031 22.8099 52.9848 22.8493 52.8665L26.0041 29.7579H47.9296L48.7182 35.5548C48.7971 36.1069 49.3098 36.5012 49.8224 36.4224C50.3351 36.3435 50.7688 35.8308 50.69 35.3182L49.7435 28.6538C49.6647 28.1806 49.2703 27.7862 48.7577 27.7862H43.5918V26.0511C43.5918 22.3837 40.6342 19.3867 36.9274 19.3867ZM32.2347 26.0511C32.2347 23.4485 34.3247 21.3584 36.9274 21.3584C39.53 21.3584 41.6201 23.4485 41.6201 26.0511V27.7862H32.2347V26.0511Z" fill="url(#paint2_linear)"/>
    <path d="M45.6818 50.1464C48.4817 50.1464 50.7689 47.8592 50.7689 45.0594V44.2707C50.7689 43.7186 50.3351 43.2849 49.783 43.2849C49.2309 43.2849 48.7972 43.7186 48.7972 44.2707V45.0594C48.876 46.7945 47.4958 48.2141 45.8001 48.293C44.065 48.3719 42.6454 46.9917 42.5665 45.296C42.5665 45.2171 42.5665 45.1383 42.5665 45.0594V44.2707C42.5665 43.7186 42.1328 43.2849 41.5807 43.2849C41.0286 43.2849 40.5948 43.7186 40.5948 44.2707V45.0594C40.5948 47.8592 42.882 50.1464 45.6818 50.1464Z" fill="url(#paint3_linear)"/>
    <path d="M33.1817 34.5654C33.4081 33.9293 33.076 33.2302 32.4399 33.0038C31.8039 32.7774 31.1047 33.1095 30.8784 33.7456C30.652 34.3816 30.9841 35.0808 31.6201 35.3071C32.2562 35.5335 32.9553 35.2014 33.1817 34.5654Z" fill="url(#paint4_linear)"/>
    <path d="M42.9796 34.5357C43.206 33.8996 42.8739 33.2005 42.2379 32.9741C41.6018 32.7477 40.9027 33.0799 40.6763 33.7159C40.4499 34.352 40.782 35.0511 41.4181 35.2775C42.0541 35.5039 42.7533 35.1718 42.9796 34.5357Z" fill="url(#paint5_linear)"/>
    <defs>
        <linearGradient id="paint0_linear" x1="0.839844" y1="0.386719" x2="92.0026" y2="30.5304" gradientUnits="userSpaceOnUse">
            <stop stop-color="#FF9E18"/>
            <stop offset="1" stop-color="#F8DF8D"/>
        </linearGradient>
        <linearGradient id="paint1_linear" x1="34.0898" y1="38.2352" x2="60.7754" y2="48.7799" gradientUnits="userSpaceOnUse">
            <stop stop-color="#FF9E18"/>
            <stop offset="1" stop-color="#F8DF8D"/>
        </linearGradient>
        <linearGradient id="paint2_linear" x1="20.8398" y1="19.3867" x2="58.0907" y2="29.0017" gradientUnits="userSpaceOnUse">
            <stop stop-color="#FF9E18"/>
            <stop offset="1" stop-color="#F8DF8D"/>
        </linearGradient>
        <linearGradient id="paint3_linear" x1="40.5948" y1="43.2849" x2="51.5094" y2="48.6361" gradientUnits="userSpaceOnUse">
            <stop stop-color="#FF9E18"/>
            <stop offset="1" stop-color="#F8DF8D"/>
        </linearGradient>
        <linearGradient id="paint4_linear" x1="30.4685" y1="34.8973" x2="32.3654" y2="32.4595" gradientUnits="userSpaceOnUse">
            <stop stop-color="#FF9E18"/>
            <stop offset="1" stop-color="#F8DF8D"/>
        </linearGradient>
        <linearGradient id="paint5_linear" x1="40.2664" y1="34.8676" x2="42.1633" y2="32.4298" gradientUnits="userSpaceOnUse">
            <stop stop-color="#FF9E18"/>
            <stop offset="1" stop-color="#F8DF8D"/>
        </linearGradient>
    </defs>
</svg>