<svg width="36" height="36" viewBox="0 0 36 36" fill="none" xmlns="http://www.w3.org/2000/svg">
    <path d="M34.9508 34.1565H23.3535L22.6783 28.9139C23.711 28.5167 24.6642 28.0401 25.5379 27.4444C26.0145 27.8812 26.6897 28.1593 27.4046 28.1593C28.9536 28.1593 30.1848 26.928 30.1848 25.3791V23.3932C30.1848 23.1549 30.0657 22.9563 29.9068 22.7975C30.6614 21.5265 31.2175 20.0967 31.4955 18.5875C32.7664 18.3492 33.7593 17.1974 33.7593 15.847V13.8612C33.7593 13.4243 33.4019 13.0668 32.965 13.0668H31.4955C31.138 11.2796 30.4231 9.6512 29.4699 8.18167C29.9068 7.70507 30.1848 7.02988 30.1848 6.31498V4.32914C30.1848 3.89225 29.8274 3.5348 29.3905 3.5348H25.4188C25.1805 3.5348 24.9819 3.65395 24.823 3.81282C23.5521 3.0582 22.162 2.54188 20.6528 2.22414V0.794337C20.6528 0.357452 20.2953 0 19.8584 0H15.8867C15.4499 0 15.0924 0.357452 15.0924 0.794337V2.26386C13.5832 2.5816 12.1931 3.09792 10.9221 3.85254C10.7633 3.69367 10.5647 3.57452 10.3264 3.57452H6.3547C5.91781 3.57452 5.56036 3.93197 5.56036 4.36885V6.3547C5.56036 7.0696 5.83838 7.74479 6.27526 8.22139C5.32206 9.69092 4.60716 11.3193 4.2497 13.1066H2.78018C2.34329 13.1066 1.98584 13.464 1.98584 13.9009V15.8867C1.98584 17.2371 2.97876 18.3492 4.2497 18.6272C4.56744 20.1365 5.08376 21.5663 5.83838 22.8372C5.67951 22.9961 5.56036 23.1946 5.56036 23.4329V25.4188C5.56036 26.9678 6.79158 28.199 8.34054 28.199C9.05544 28.199 9.73063 27.921 10.2072 27.4841C11.0016 28.0004 11.8356 28.4373 12.7094 28.7947L11.9945 34.1565H0.794337C0.357452 34.1565 0 34.514 0 34.9508C0 35.3877 0.357452 35.7452 0.794337 35.7452H34.9508C35.3877 35.7452 35.7452 35.3877 35.7452 34.9508C35.7452 34.514 35.3877 34.1565 34.9508 34.1565ZM28.5961 25.4188C28.5961 26.0543 28.0798 26.6103 27.4046 26.6103C26.7294 26.6103 26.2131 26.0543 26.2131 25.4188V24.2273H28.5961V25.4188ZM28.1593 22.6386H25.7365L21.2882 18.1903L21.0897 16.6811H28.2784C28.5167 17.4754 29.1125 18.1506 29.8671 18.4683C29.5891 19.9776 28.9933 21.3677 28.1593 22.6386ZM32.1707 14.6952V15.8867C32.1707 16.5222 31.6543 17.0783 30.9792 17.0783C30.304 17.0783 29.7876 16.5222 29.7876 15.8867V14.6952H32.1707ZM26.2131 5.16319H28.5961V6.3547C28.5961 6.99017 28.0798 7.5462 27.4046 7.5462C26.7294 7.5462 26.2131 6.99017 26.2131 6.3547V5.16319ZM26.094 8.81714C26.4911 9.01573 26.928 9.13488 27.4046 9.13488C27.6429 9.13488 27.8812 9.09516 28.1195 9.05544C28.9139 10.2867 29.5493 11.637 29.8671 13.1066H28.9933C28.5564 13.1066 28.199 13.464 28.199 13.9009V15.0924H20.1762L19.9776 14.8938L26.094 8.81714ZM20.9308 27.8018C19.9379 28.0401 18.9449 28.199 17.8726 28.199C16.6811 28.199 15.5293 28.0401 14.4172 27.7224L15.847 16.6811L17.8329 14.9733L19.501 16.6414L20.9308 27.8018ZM20.4542 3.85254C21.9634 4.17027 23.3932 4.76602 24.6245 5.60008V6.3547C24.6245 6.8313 24.7436 7.26819 24.9422 7.66535L18.8655 13.7818L18.6669 13.5832V5.44121C19.4613 5.20291 20.1364 4.60716 20.4542 3.85254ZM16.6811 1.58867H19.0641V2.78018C19.0641 3.41565 18.5478 3.97169 17.8726 3.97169C17.1974 3.97169 16.6811 3.41565 16.6811 2.78018V1.58867ZM11.1207 6.3547V5.60008C12.3917 4.76602 13.7818 4.17027 15.291 3.85254C15.6087 4.60716 16.2442 5.20291 17.0783 5.44121V13.5434L16.84 13.742L10.803 7.66535C11.0016 7.26819 11.1207 6.8313 11.1207 6.3547ZM7.14904 5.16319H9.53205V6.3547C9.53205 6.99017 9.01573 7.5462 8.34054 7.5462C7.66535 7.5462 7.14904 6.99017 7.14904 6.3547V5.16319ZM7.62564 9.05544C7.86394 9.09516 8.10224 9.13488 8.34054 9.13488C8.81714 9.13488 9.25403 9.01573 9.6512 8.81714L15.6087 14.7747L15.2513 15.0924H7.5462V13.9009C7.5462 13.464 7.18875 13.1066 6.75187 13.1066H5.8781C6.23555 11.637 6.8313 10.247 7.62564 9.05544ZM4.76602 17.0783C4.09084 17.0783 3.57452 16.5222 3.57452 15.8867V14.6952H5.95753V15.8867C5.95753 16.5222 5.44121 17.0783 4.76602 17.0783ZM9.53205 25.4188C9.53205 26.0543 9.01573 26.6103 8.34054 26.6103C7.66535 26.6103 7.14904 26.0543 7.14904 25.4188V24.2273H9.53205V25.4188ZM10.0086 22.6386H7.58592C6.75187 21.3677 6.15611 19.9776 5.83838 18.4683C6.593 18.1506 7.18875 17.5151 7.42705 16.6811H14.2186L13.9803 18.6669L10.0086 22.6386ZM11.0413 26.1337C11.081 25.8954 11.1207 25.6571 11.1207 25.4188V23.7507L13.6626 21.2088L12.908 27.1266C12.2328 26.8486 11.637 26.5309 11.0413 26.1337ZM13.6229 34.1565L14.2584 29.311C15.4101 29.6288 16.6414 29.7876 17.9123 29.7876C19.0244 29.7876 20.1364 29.6288 21.1691 29.3905L21.7648 34.1565H13.6229ZM21.6457 20.7719L24.6245 23.7507V25.4188C24.6245 25.6571 24.6642 25.8954 24.7039 26.1337C23.989 26.6103 23.2344 27.0075 22.44 27.3252L21.6457 20.7719Z" fill="url(#paint0_linear)"/>
    <defs>
        <linearGradient id="paint0_linear" x1="0" y1="0" x2="42.8767" y2="14.1775" gradientUnits="userSpaceOnUse">
            <stop stop-color="#FF9E18"/>
            <stop offset="1" stop-color="#F8DF8D"/>
        </linearGradient>
    </defs>
</svg>