<svg width="77" height="77" viewBox="0 0 77 77" fill="none" xmlns="http://www.w3.org/2000/svg">
    <circle cx="38.8398" cy="38.3867" r="37" stroke="url(#paint0_linear)" stroke-width="2"/>
    <path d="M54.8954 29.4869C55.0194 29.487 55.1423 29.4631 55.2569 29.4167C55.3715 29.3702 55.4757 29.3021 55.5634 29.2162C55.6511 29.1303 55.7206 29.0283 55.7681 28.916C55.8155 28.8037 55.8399 28.6834 55.8398 28.5619V26.7119C55.8398 26.5364 55.7888 26.3645 55.6928 26.2162C55.5968 26.068 55.4597 25.9496 55.2975 25.8748L39.2419 18.4748C39.1161 18.4168 38.9788 18.3867 38.8398 18.3867C38.7008 18.3867 38.5634 18.4168 38.4377 18.4748L22.3821 25.8748C22.2199 25.9496 22.0829 26.068 21.9868 26.2162C21.8908 26.3645 21.8398 26.5364 21.8398 26.7119V28.5619C21.8398 28.6834 21.8642 28.8037 21.9116 28.916C21.959 29.0283 22.0286 29.1303 22.1163 29.2162C22.204 29.3021 22.3082 29.3702 22.4228 29.4167C22.5374 29.4631 22.6602 29.487 22.7843 29.4869H23.7287V37.0572C23.0986 37.2755 22.5675 37.7048 22.2293 38.2694C21.8911 38.8341 21.7676 39.4976 21.8807 40.1428C21.9937 40.788 22.3359 41.3733 22.8469 41.7952C23.358 42.2171 24.0048 42.4486 24.6732 42.4486C25.3416 42.4486 25.9884 42.2171 26.4994 41.7952C27.0104 41.3733 27.3527 40.788 27.4657 40.1428C27.5787 39.4976 27.4552 38.8341 27.1171 38.2694C26.7789 37.7048 26.2478 37.2755 25.6176 37.0572V29.4869H31.2843V37.0572C30.6541 37.2755 30.123 37.7048 29.7849 38.2694C29.4467 38.8341 29.3232 39.4976 29.4362 40.1428C29.5492 40.788 29.8915 41.3733 30.4025 41.7952C30.9135 42.2171 31.5604 42.4486 32.2287 42.4486C32.8971 42.4486 33.544 42.2171 34.055 41.7952C34.566 41.3733 34.9082 40.788 35.0213 40.1428C35.1343 39.4976 35.0108 38.8341 34.6726 38.2694C34.3344 37.7048 33.8033 37.2755 33.1732 37.0572V29.4869H37.8954V49.8367H24.6732C24.5491 49.8366 24.4263 49.8605 24.3117 49.907C24.1971 49.9534 24.0929 50.0216 24.0052 50.1075C23.9175 50.1934 23.8479 50.2954 23.8005 50.4076C23.753 50.5199 23.7287 50.6402 23.7287 50.7617V54.4617C23.7287 54.5832 23.753 54.7035 23.8005 54.8158C23.8479 54.928 23.9175 55.03 24.0052 55.116C24.0929 55.2019 24.1971 55.27 24.3117 55.3165C24.4263 55.3629 24.5491 55.3868 24.6732 55.3867H53.0065C53.1306 55.3868 53.2534 55.3629 53.368 55.3165C53.4826 55.27 53.5868 55.2019 53.6745 55.116C53.7622 55.03 53.8318 54.928 53.8792 54.8158C53.9266 54.7035 53.951 54.5832 53.951 54.4617V50.7617C53.951 50.6402 53.9266 50.5199 53.8792 50.4076C53.8318 50.2954 53.7622 50.1934 53.6745 50.1075C53.5868 50.0216 53.4826 49.9534 53.368 49.907C53.2534 49.8605 53.1306 49.8366 53.0065 49.8367H39.7843V29.4869H44.5065V37.0572C43.8764 37.2755 43.3453 37.7048 43.0071 38.2694C42.6689 38.8341 42.5454 39.4976 42.6584 40.1428C42.7714 40.788 43.1137 41.3733 43.6247 41.7952C44.1357 42.2171 44.7826 42.4486 45.451 42.4486C46.1193 42.4486 46.7662 42.2171 47.2772 41.7952C47.7882 41.3733 48.1305 40.788 48.2435 40.1428C48.3565 39.4976 48.233 38.8341 47.8948 38.2694C47.5566 37.7048 47.0255 37.2755 46.3954 37.0572V29.4869H52.0621V37.0572C51.4319 37.2755 50.9008 37.7048 50.5626 38.2694C50.2244 38.8341 50.101 39.4976 50.214 40.1428C50.327 40.788 50.6693 41.3733 51.1803 41.7952C51.6913 42.2171 52.3381 42.4486 53.0065 42.4486C53.6749 42.4486 54.3217 42.2171 54.8327 41.7952C55.3437 41.3733 55.686 40.788 55.799 40.1428C55.9121 39.4976 55.7886 38.8341 55.4504 38.2694C55.1122 37.7048 54.5811 37.2755 53.951 37.0572V29.4869H54.8954ZM24.6732 40.5867C24.4864 40.5867 24.3038 40.5324 24.1485 40.4308C23.9932 40.3292 23.8721 40.1847 23.8006 40.0157C23.7291 39.8466 23.7104 39.6607 23.7469 39.4812C23.7833 39.3018 23.8733 39.137 24.0054 39.0076C24.1374 38.8782 24.3057 38.7901 24.4889 38.7545C24.6721 38.7188 24.862 38.7371 25.0346 38.8071C25.2072 38.8771 25.3547 38.9957 25.4585 39.1478C25.5622 39.2999 25.6176 39.4787 25.6176 39.6617C25.6175 39.907 25.5179 40.1421 25.3408 40.3156C25.1637 40.489 24.9236 40.5865 24.6732 40.5867V40.5867ZM32.2287 40.5867C32.0419 40.5867 31.8593 40.5324 31.704 40.4308C31.5487 40.3292 31.4277 40.1847 31.3562 40.0157C31.2847 39.8466 31.266 39.6607 31.3024 39.4812C31.3389 39.3018 31.4288 39.137 31.5609 39.0076C31.693 38.8782 31.8613 38.7901 32.0445 38.7545C32.2277 38.7188 32.4176 38.7371 32.5902 38.8071C32.7627 38.8771 32.9102 38.9957 33.014 39.1478C33.1178 39.2999 33.1732 39.4787 33.1732 39.6617C33.173 39.907 33.0734 40.1421 32.8964 40.3156C32.7193 40.489 32.4792 40.5865 32.2287 40.5867V40.5867ZM52.0621 53.5367H25.6176V51.6867H52.0621V53.5367ZM45.451 40.5867C45.2642 40.5867 45.0816 40.5324 44.9262 40.4308C44.7709 40.3292 44.6499 40.1847 44.5784 40.0157C44.5069 39.8466 44.4882 39.6607 44.5247 39.4812C44.5611 39.3018 44.651 39.137 44.7831 39.0076C44.9152 38.8782 45.0835 38.7901 45.2667 38.7545C45.4499 38.7188 45.6398 38.7371 45.8124 38.8071C45.9849 38.8771 46.1325 38.9957 46.2362 39.1478C46.34 39.2999 46.3954 39.4787 46.3954 39.6617C46.3952 39.907 46.2957 40.1421 46.1186 40.3156C45.9415 40.489 45.7014 40.5865 45.451 40.5867V40.5867ZM53.0065 40.5867C52.8197 40.5867 52.6371 40.5324 52.4818 40.4308C52.3265 40.3292 52.2054 40.1847 52.134 40.0157C52.0625 39.8466 52.0438 39.6607 52.0802 39.4812C52.1167 39.3018 52.2066 39.137 52.3387 39.0076C52.4708 38.8782 52.639 38.7901 52.8223 38.7545C53.0055 38.7188 53.1954 38.7371 53.3679 38.8071C53.5405 38.8771 53.688 38.9957 53.7918 39.1478C53.8956 39.2999 53.951 39.4787 53.951 39.6617C53.9508 39.907 53.8512 40.1421 53.6742 40.3156C53.4971 40.489 53.2569 40.5865 53.0065 40.5867V40.5867ZM23.7287 27.299L38.8398 20.3346L53.951 27.299V27.6367H23.7287V27.299Z" fill="url(#paint1_linear)"/>
    <defs>
        <linearGradient id="paint0_linear" x1="0.839844" y1="0.386719" x2="92.0026" y2="30.5304" gradientUnits="userSpaceOnUse">
            <stop stop-color="#FF9E18"/>
            <stop offset="1" stop-color="#F8DF8D"/>
        </linearGradient>
        <linearGradient id="paint1_linear" x1="21.8398" y1="18.3867" x2="63.2583" y2="30.9716" gradientUnits="userSpaceOnUse">
            <stop stop-color="#FF9E18"/>
            <stop offset="1" stop-color="#F8DF8D"/>
        </linearGradient>
    </defs>
</svg>