<svg width="29" height="29" viewBox="0 0 29 29" fill="none" xmlns="http://www.w3.org/2000/svg">
    <path d="M27.8417 14.7644L25.0429 17.5905C24.9522 17.6823 24.8451 17.7546 24.7277 17.8033C24.6102 17.852 24.4847 17.8761 24.3584 17.8742C24.1031 17.8705 23.8597 17.7612 23.6818 17.5705C23.5038 17.3798 23.4059 17.1233 23.4095 16.8574C23.4131 16.5914 23.5179 16.3379 23.701 16.1525L26.4806 13.3264C26.739 13.0786 26.9214 12.7569 27.0049 12.4016C27.0885 12.0463 27.0695 11.6732 26.9503 11.3291C26.8458 10.9903 26.6521 10.6888 26.391 10.4593C26.13 10.2297 25.8123 10.0813 25.4742 10.0309L20.9597 9.35182C20.3595 9.25844 19.7898 9.01537 19.2992 8.64328C18.8085 8.2712 18.4114 7.78112 18.1417 7.21475L16.1384 3.00054C15.9893 2.67975 15.7565 2.40921 15.4666 2.21991C15.1767 2.03061 14.8415 1.93021 14.4994 1.93021C14.1573 1.93021 13.8221 2.03061 13.5322 2.21991C13.2423 2.40921 13.0095 2.67975 12.8604 3.00054L10.838 7.2547C10.5682 7.82106 10.1711 8.31114 9.68047 8.68323C9.18983 9.05531 8.62017 9.29839 8.01998 9.39176L3.51505 10.0708C3.17691 10.1212 2.8592 10.2697 2.59819 10.4992C2.33717 10.7288 2.14339 11.0302 2.03897 11.369C1.91978 11.7131 1.90077 12.0863 1.98432 12.4416C2.06787 12.7969 2.25027 13.1186 2.50863 13.3663L5.76751 16.6817C6.19485 17.1203 6.51461 17.6596 6.69979 18.254C6.88497 18.8485 6.93012 19.4806 6.83144 20.0971L6.06465 24.7806C6.00994 25.1302 6.04974 25.4887 6.17959 25.8161C6.30944 26.1434 6.52421 26.4266 6.79984 26.634C7.07546 26.8413 7.40106 26.9646 7.74014 26.99C8.07922 27.0154 8.4184 26.942 8.71968 26.7779L12.7549 24.5709C13.2929 24.2761 13.8916 24.1221 14.4994 24.1221C15.1072 24.1221 15.7059 24.2761 16.2439 24.5709L20.2504 26.7879C20.5517 26.952 20.8908 27.0254 21.2299 27C21.569 26.9746 21.8946 26.8513 22.1702 26.6439C22.4458 26.4366 22.6606 26.1534 22.7905 25.8261C22.9203 25.4987 22.9601 25.1402 22.9054 24.7906L22.3878 21.4652C22.3671 21.334 22.3713 21.1999 22.4003 21.0705C22.4292 20.941 22.4824 20.8188 22.5567 20.7108C22.631 20.6027 22.7251 20.511 22.8334 20.4408C22.9417 20.3707 23.0623 20.3234 23.1882 20.3018C23.314 20.2801 23.4428 20.2845 23.567 20.3147C23.6912 20.3449 23.8086 20.4003 23.9122 20.4777C24.0159 20.5552 24.104 20.6531 24.1713 20.766C24.2387 20.8789 24.284 21.0045 24.3048 21.1356L24.8224 24.4611C24.9355 25.1771 24.8549 25.9117 24.5897 26.5827C24.3244 27.2536 23.8849 27.8342 23.3205 28.2594C22.7561 28.6846 22.0892 28.9376 21.3945 28.9898C20.6998 29.0421 20.0049 28.8917 19.3877 28.5554L15.3525 26.3485C15.089 26.2058 14.7964 26.1313 14.4994 26.1313C14.2024 26.1313 13.9098 26.2058 13.6463 26.3485L9.61108 28.5554C8.9939 28.8917 8.29899 29.0421 7.60432 28.9898C6.90966 28.9376 6.24272 28.6846 5.67833 28.2594C5.11395 27.8342 4.67445 27.2536 4.40916 26.5827C4.14386 25.9117 4.06327 25.1771 4.17641 24.4611L4.91445 19.7575C4.96528 19.4527 4.94382 19.1397 4.85194 18.8455C4.76006 18.5513 4.60054 18.2851 4.38728 18.0698L1.12839 14.7544C0.626799 14.2437 0.272808 13.5966 0.106672 12.8867C-0.0594644 12.1768 -0.0310779 11.4326 0.188603 10.7387C0.408284 10.0448 0.810445 9.429 1.34935 8.96139C1.88826 8.49378 2.5423 8.1931 3.23708 8.09355L7.78994 7.41448C8.07957 7.37415 8.35583 7.26253 8.59584 7.08888C8.83586 6.91522 9.03273 6.68452 9.17017 6.41585L11.183 2.15171C11.4962 1.50469 11.9757 0.960951 12.568 0.581051C13.1603 0.20115 13.8422 0 14.5377 0C15.2333 0 15.9152 0.20115 16.5075 0.581051C17.0998 0.960951 17.5793 1.50469 17.8925 2.15171L19.9053 6.41585C20.0428 6.68452 20.2396 6.91522 20.4796 7.08888C20.7197 7.26253 20.9959 7.37415 21.2856 7.41448L25.7905 8.09355C26.4828 8.19985 27.133 8.50551 27.6675 8.97608C28.2021 9.44664 28.6 10.0634 28.8162 10.7569C29.0324 11.4504 29.0584 12.193 28.8913 12.901C28.7242 13.6091 28.3706 14.2544 27.8704 14.7644H27.8417Z" fill="url(#paint0_linear)"/>
    <defs>
        <linearGradient id="paint0_linear" x1="0" y1="0" x2="34.7858" y2="11.5022" gradientUnits="userSpaceOnUse">
            <stop stop-color="#FF9E18"/>
            <stop offset="1" stop-color="#F8DF8D"/>
        </linearGradient>
    </defs>
</svg>