<svg width="30" height="33" viewBox="0 0 30 33" fill="none" xmlns="http://www.w3.org/2000/svg">
    <path d="M28.9664 31.3013C28.939 31.2368 28.9003 31.179 28.8506 31.1296C28.8013 31.0814 28.7425 31.0425 28.678 31.0169C28.6135 30.9911 28.5448 30.978 28.475 30.9791H24.0171V25.21C24.0171 25.0705 23.9615 24.9373 23.8628 24.8387C23.7648 24.7404 23.631 24.6854 23.4925 24.6854H20.3454C20.3286 24.6844 20.3124 24.6844 20.2961 24.6854C20.1661 24.6976 20.0444 24.7578 19.9568 24.8554C19.8687 24.9518 19.82 25.0788 19.821 25.21V30.9791H17.9852V9.9995H25.8524V29.4057C25.8514 29.4755 25.8646 29.5442 25.8902 29.6088C25.9159 29.6733 25.9547 29.732 26.0035 29.782C26.0522 29.8311 26.1106 29.87 26.1745 29.8974C26.239 29.924 26.3071 29.9382 26.3769 29.9382C26.4466 29.9382 26.5154 29.9238 26.5793 29.8974C26.6433 29.8699 26.7015 29.8311 26.7502 29.782C26.7989 29.732 26.8378 29.6735 26.8636 29.6088C26.8892 29.5443 26.9023 29.4755 26.9013 29.4057V9.47493C26.9013 9.33585 26.8463 9.20248 26.7476 9.10406C26.649 9.00579 26.5158 8.95036 26.3767 8.95036H17.4605C17.4443 8.94963 17.4277 8.94963 17.4112 8.95036C17.2808 8.96264 17.16 9.02333 17.0718 9.12029C16.9839 9.21769 16.9353 9.34404 16.9359 9.47493V14.1953H14.4037L15.0348 8.95869L16.7097 8.07729C17.2819 7.77632 17.9225 7.14661 18.4223 6.39346C18.8242 5.78845 19.2417 4.95151 18.9505 4.39901C18.6481 3.82486 17.7297 3.70421 17.012 3.70421C16.292 3.70421 15.2727 3.83539 14.5712 4.20509L12.9758 5.04437L4.53296 0.626686C4.3952 0.554735 4.23039 0.554734 4.09262 0.627124L2.16925 1.63927C2.03807 1.70844 1.94681 1.83479 1.92254 1.98104C1.89797 2.12786 1.94433 2.27703 2.04655 2.38437L7.37415 7.99262L5.96248 8.73538C5.58663 8.93325 5.26651 9.14764 4.94653 9.41132L2.1109 7.48092C1.96656 7.3825 1.77907 7.37197 1.62479 7.45255L1.00501 7.77823C0.773509 7.8999 0.684156 8.1858 0.805829 8.41789L2.46846 11.5839L1.57521 12.3688C1.47577 12.4564 1.42707 12.5786 1.42136 12.7044C1.41829 12.7054 2.00736 13.9692 2.00736 13.9692C2.09071 14.1275 2.25407 14.2221 2.42634 14.2221C2.4648 14.2221 2.50356 14.2174 2.54231 14.2079L3.69499 13.9167L5.3816 17.1151C5.46686 17.2759 5.63066 17.3673 5.80103 17.3673C5.87532 17.3673 5.95049 17.3498 6.02112 17.3128L6.64016 16.9871C6.79504 16.9056 6.89214 16.7452 6.89302 16.5699L6.90764 13.0981C7.29826 12.985 7.65099 12.8439 8.02113 12.6494L9.43281 11.9066L9.91833 14.1953H8.54409C8.40487 14.1953 8.27165 14.2506 8.17322 14.349C8.0748 14.4475 8.01952 14.5808 8.01952 14.7199V30.9793H6.44595C6.42972 30.9787 6.4132 30.9787 6.39696 30.9793C6.32794 30.9823 6.26023 30.9993 6.19793 31.0287C6.13563 31.0581 6.07962 31.0995 6.03326 31.1504C5.98675 31.2013 5.95092 31.2609 5.92753 31.326C5.90398 31.3905 5.89374 31.4591 5.89696 31.5286C5.90032 31.5971 5.91685 31.6649 5.94625 31.7273C5.97564 31.7896 6.01703 31.8453 6.06792 31.8918C6.1191 31.9386 6.17862 31.9743 6.2437 31.9973C6.30849 32.021 6.37751 32.0315 6.4461 32.0278H28.4749C28.5446 32.029 28.6134 32.0164 28.6779 31.9901C28.7423 31.9649 28.8011 31.926 28.8504 31.8774C28.9003 31.8285 28.939 31.7703 28.9662 31.7057C28.9926 31.6416 29.0066 31.5738 29.0066 31.5037C29.0069 31.4339 28.9927 31.3654 28.9664 31.3013ZM3.16399 2.18548L4.31404 1.58048L11.9574 5.5802L8.24503 7.53386L3.16399 2.18548ZM1.91435 8.4916L4.20743 10.0527L3.19967 10.939L1.91435 8.4916ZM5.94844 16.1578L4.64001 13.6778L5.96028 13.3439L5.94844 16.1578ZM9.54629 10.7766C9.54585 10.7766 9.54585 10.7771 9.54527 10.7771L7.58065 11.8114C7.20612 12.0089 6.86962 12.1371 6.45634 12.2421L2.81505 13.1624L2.64746 12.6852L5.41115 10.2559C5.73156 9.97435 6.02843 9.77019 6.4034 9.57335L15.0125 5.04203C15.4576 4.80819 16.2617 4.65054 17.0125 4.65054C17.6563 4.65054 18.0061 4.76754 18.1037 4.83803C18.1159 5.26549 17.1815 6.75965 16.2688 7.23903L14.3767 8.23509C14.3758 8.23567 14.3748 8.23567 14.3739 8.23597L9.54629 10.7766ZM10.3043 11.447L14.0166 9.4938L13.4501 14.1953L13.3237 15.2443L12.9847 18.0577L11.8344 18.6627L11.1095 15.2443L10.887 14.1953L10.3043 11.447ZM14.0516 30.9791H11.9536V26.7836H14.0516V30.9791ZM16.9362 30.9791H15.1004V26.2592C15.1004 26.1195 15.0453 25.9864 14.947 25.8879C14.8487 25.789 14.7152 25.7344 14.5761 25.7344H11.429C11.4128 25.7334 11.3963 25.7334 11.38 25.7344C11.2493 25.7466 11.1285 25.807 11.0403 25.9044C10.9524 26.0009 10.904 26.128 10.9044 26.2592V30.9791H9.06896V15.2443H10.1412L11.038 19.4722C11.0687 19.6177 11.1662 19.7397 11.3002 19.8027C11.3642 19.8327 11.4328 19.8478 11.5014 19.8478C11.5772 19.8478 11.6529 19.8298 11.7221 19.7933L13.6455 18.7808C13.7832 18.7084 13.8759 18.5735 13.895 18.4182L14.2774 15.2445H16.9362V30.9791V30.9791ZM22.9681 30.9791H20.87V25.7344H22.9681V30.9791Z" fill="url(#paint0_linear)"/>
    <defs>
        <linearGradient id="paint0_linear" x1="0.751434" y1="0.572777" x2="35.3015" y2="10.8346" gradientUnits="userSpaceOnUse">
            <stop stop-color="#FF9E18"/>
            <stop offset="1" stop-color="#F8DF8D"/>
        </linearGradient>
    </defs>
</svg>