<svg width="77" height="77" viewBox="0 0 77 77" fill="none" xmlns="http://www.w3.org/2000/svg">
    <circle cx="38.8398" cy="38.2275" r="37" stroke="url(#paint0_linear)" stroke-width="2"/>
    <path d="M59.0824 38.6092L54.8359 42.6879C54.6984 42.8204 54.5359 42.9247 54.3577 42.995C54.1795 43.0652 53.9891 43.1 53.7973 43.0974C53.4101 43.0919 53.0408 42.9343 52.7708 42.6591C52.5009 42.3839 52.3522 42.0136 52.3577 41.6298C52.3631 41.246 52.5222 40.8801 52.7999 40.6125L57.0173 36.5338C57.4093 36.1762 57.686 35.712 57.8128 35.1992C57.9396 34.6864 57.9107 34.1479 57.7299 33.6513C57.5715 33.1622 57.2774 32.7272 56.8814 32.3959C56.4854 32.0646 56.0034 31.8504 55.4903 31.7776L48.6407 30.7976C47.7301 30.6628 46.8658 30.312 46.1213 29.775C45.3769 29.238 44.7744 28.5307 44.3652 27.7133L41.3257 21.6313C41.0995 21.1683 40.7462 20.7778 40.3064 20.5046C39.8666 20.2314 39.358 20.0865 38.8389 20.0865C38.3199 20.0865 37.8113 20.2314 37.3715 20.5046C36.9317 20.7778 36.5784 21.1683 36.3521 21.6313L33.2836 27.771C32.8744 28.5884 32.2719 29.2957 31.5275 29.8327C30.783 30.3697 29.9187 30.7205 29.0081 30.8552L22.173 31.8353C21.66 31.908 21.1779 32.1223 20.7819 32.4536C20.3859 32.7849 20.0919 33.2199 19.9334 33.7089C19.7526 34.2055 19.7238 34.744 19.8505 35.2568C19.9773 35.7696 20.254 36.2339 20.646 36.5914L25.5906 41.3764C26.2389 42.0093 26.7241 42.7876 27.005 43.6455C27.286 44.5034 27.3545 45.4158 27.2048 46.3054L26.0414 53.0649C25.9584 53.5694 26.0188 54.0869 26.2158 54.5593C26.4128 55.0317 26.7386 55.4405 27.1568 55.7397C27.575 56.0389 28.069 56.2169 28.5835 56.2536C29.098 56.2902 29.6126 56.1842 30.0697 55.9474L36.1922 52.7622C37.0084 52.3368 37.9167 52.1145 38.8389 52.1145C39.7611 52.1145 40.6695 52.3368 41.4857 52.7622L47.5646 55.9618C48.0217 56.1986 48.5363 56.3046 49.0508 56.268C49.5652 56.2313 50.0592 56.0534 50.4774 55.7541C50.8956 55.4549 51.2215 55.0462 51.4185 54.5737C51.6155 54.1013 51.6759 53.5838 51.5929 53.0793L50.8076 48.28C50.7761 48.0907 50.7825 47.8971 50.8264 47.7103C50.8704 47.5235 50.9511 47.3471 51.0639 47.1912C51.1766 47.0353 51.3192 46.9029 51.4836 46.8016C51.648 46.7003 51.8309 46.6321 52.0219 46.6009C52.2129 46.5697 52.4082 46.576 52.5967 46.6196C52.7852 46.6632 52.9632 46.7431 53.1205 46.8549C53.2778 46.9666 53.4114 47.108 53.5136 47.2709C53.6158 47.4338 53.6846 47.6151 53.7161 47.8043L54.5014 52.6037C54.6731 53.6371 54.5508 54.6974 54.1483 55.6657C53.7458 56.634 53.0789 57.472 52.2226 58.0856C51.3663 58.6993 50.3544 59.0643 49.3004 59.1398C48.2465 59.2152 47.1921 58.9981 46.2557 58.5128L40.1332 55.3277C39.7334 55.1217 39.2895 55.0142 38.8389 55.0142C38.3884 55.0142 37.9444 55.1217 37.5446 55.3277L31.4222 58.5128C30.4858 58.9981 29.4314 59.2152 28.3774 59.1398C27.3235 59.0643 26.3116 58.6993 25.4552 58.0856C24.5989 57.472 23.9321 56.634 23.5296 55.6657C23.1271 54.6974 23.0048 53.6371 23.1765 52.6037L24.2963 45.8154C24.3734 45.3756 24.3408 44.9237 24.2014 44.4992C24.062 44.0746 23.82 43.6903 23.4964 43.3797L18.5519 38.5948C17.7908 37.8577 17.2538 36.9238 17.0017 35.8993C16.7496 34.8747 16.7927 33.8007 17.126 32.7992C17.4593 31.7977 18.0695 30.909 18.8871 30.2341C19.7048 29.5593 20.6971 29.1253 21.7513 28.9816L28.6591 28.0016C29.0985 27.9434 29.5177 27.7823 29.8818 27.5317C30.246 27.281 30.5447 26.9481 30.7532 26.5603L33.8072 20.4062C34.2824 19.4724 35.0099 18.6877 35.9085 18.1394C36.8072 17.5911 37.8418 17.3008 38.8971 17.3008C39.9524 17.3008 40.987 17.5911 41.8857 18.1394C42.7843 18.6877 43.5118 19.4724 43.9871 20.4062L47.041 26.5603C47.2496 26.9481 47.5483 27.281 47.9124 27.5317C48.2766 27.7823 48.6957 27.9434 49.1352 28.0016L55.9702 28.9816C57.0207 29.135 58.0071 29.5762 58.8182 30.2553C59.6293 30.9345 60.2329 31.8246 60.5609 32.8254C60.889 33.8263 60.9285 34.898 60.675 35.9199C60.4214 36.9418 59.885 37.8732 59.126 38.6092H59.0824Z" fill="url(#paint1_linear)"/>
    <defs>
        <linearGradient id="paint0_linear" x1="0.839844" y1="0.227539" x2="92.0026" y2="30.3712" gradientUnits="userSpaceOnUse">
            <stop stop-color="#FF9E18"/>
            <stop offset="1" stop-color="#F8DF8D"/>
        </linearGradient>
        <linearGradient id="paint1_linear" x1="16.8398" y1="17.3008" x2="69.0767" y2="35.4591" gradientUnits="userSpaceOnUse">
            <stop stop-color="#FF9E18"/>
            <stop offset="1" stop-color="#F8DF8D"/>
        </linearGradient>
    </defs>
</svg>