<svg width="77" height="77" viewBox="0 0 77 77" fill="none" xmlns="http://www.w3.org/2000/svg">
    <circle cx="38.8398" cy="38.3867" r="37" stroke="url(#paint0_linear)" stroke-width="2"/>
    <path d="M40.7575 19.3867C36.4091 19.3867 32.7645 22.4538 31.8361 26.527C30.5465 24.6788 28.4148 23.4578 25.9998 23.4578C22.0772 23.4578 18.8754 26.6596 18.8754 30.5822C18.8754 32.8449 19.9402 34.8732 21.5948 36.18H17.8576C17.5877 36.18 17.3288 36.2872 17.138 36.4781C16.9471 36.669 16.8399 36.9278 16.8398 37.1977V55.5177C16.8399 55.7876 16.9471 56.0464 17.138 56.2373C17.3288 56.4282 17.5877 56.5354 17.8576 56.5354H22.3899C22.5248 56.5373 22.6587 56.5124 22.7838 56.4621C22.909 56.4118 23.0229 56.3372 23.1189 56.2425C23.215 56.1478 23.2912 56.0349 23.3433 55.9105C23.3953 55.7861 23.4222 55.6525 23.4222 55.5177C23.4222 55.3828 23.3953 55.2492 23.3433 55.1248C23.2912 55.0004 23.215 54.8875 23.1189 54.7928C23.0229 54.6981 22.909 54.6235 22.7838 54.5732C22.6587 54.5229 22.5248 54.498 22.3899 54.4999H18.8754V38.2155H49.4086V54.4999H26.4292C26.2943 54.498 26.1604 54.5229 26.0353 54.5732C25.9101 54.6235 25.7962 54.6981 25.7001 54.7928C25.6041 54.8875 25.5278 55.0004 25.4758 55.1248C25.4237 55.2492 25.3969 55.3828 25.3969 55.5177C25.3969 55.6525 25.4237 55.7861 25.4758 55.9105C25.5278 56.0349 25.6041 56.1478 25.7001 56.2425C25.7962 56.3372 25.9101 56.4118 26.0353 56.4621C26.1604 56.5124 26.2943 56.5373 26.4292 56.5354H50.4264C50.6963 56.5354 50.9551 56.4282 51.146 56.2373C51.3369 56.0464 51.4441 55.7876 51.4441 55.5177V52.4325L60.1429 56.933C60.298 57.0118 60.4707 57.0495 60.6446 57.0426C60.8184 57.0357 60.9876 56.9843 61.1359 56.8934C61.2842 56.8025 61.4068 56.6751 61.4918 56.5233C61.5769 56.3716 61.6217 56.2005 61.6219 56.0265V36.6889C61.6219 36.5525 61.5946 36.4175 61.5414 36.2919C61.4883 36.1663 61.4105 36.0527 61.3126 35.9577C61.2147 35.8628 61.0987 35.7885 60.9715 35.7393C60.8444 35.69 60.7086 35.6668 60.5723 35.6711C60.4227 35.6762 60.2761 35.7142 60.1429 35.7824L51.4441 40.2829V37.1977C51.4452 36.9436 51.3512 36.6982 51.1805 36.5098C51.0098 36.3215 50.7748 36.2038 50.5218 36.18C50.49 36.1785 50.4581 36.1785 50.4264 36.18H45.8305C48.294 34.5356 49.9175 31.7212 49.9175 28.5467C49.9175 23.4998 45.8044 19.3867 40.7575 19.3867ZM40.7575 21.4223C44.7043 21.4223 47.8819 24.5999 47.8819 28.5467C47.8819 32.4934 44.7043 35.6711 40.7575 35.6711C36.8108 35.6711 33.6331 32.4934 33.6331 28.5467C33.6331 24.5999 36.8108 21.4223 40.7575 21.4223ZM25.9998 25.4934C28.8224 25.4934 31.0887 27.7597 31.0887 30.5822C31.0887 33.4048 28.8224 35.6711 25.9998 35.6711C23.1772 35.6711 20.9109 33.4048 20.9109 30.5822C20.9109 27.7597 23.1772 25.4934 25.9998 25.4934ZM32.7266 32.9358C33.4416 34.2419 34.451 35.3566 35.6845 36.18H30.4048C31.4567 35.3492 32.2734 34.223 32.7266 32.9358ZM59.5863 38.3586V54.3568L51.4441 50.1266V42.5888L59.5863 38.3586Z" fill="url(#paint1_linear)"/>
    <defs>
        <linearGradient id="paint0_linear" x1="0.839844" y1="0.386719" x2="92.0026" y2="30.5304" gradientUnits="userSpaceOnUse">
            <stop stop-color="#FF9E18"/>
            <stop offset="1" stop-color="#F8DF8D"/>
        </linearGradient>
        <linearGradient id="paint1_linear" x1="16.8398" y1="19.3867" x2="68.4493" y2="39.6808" gradientUnits="userSpaceOnUse">
            <stop stop-color="#FF9E18"/>
            <stop offset="1" stop-color="#F8DF8D"/>
        </linearGradient>
    </defs>
</svg>