<svg width="27" height="28" viewBox="0 0 27 28" fill="none" xmlns="http://www.w3.org/2000/svg">
    <path d="M11.3322 14.1346L10.0072 23.8044C9.78165 25.5241 10.9939 27.131 12.7136 27.3566C12.8545 27.3848 12.9955 27.3848 13.1365 27.3848H23.3983C25.1461 27.3848 26.5557 25.9752 26.5557 24.2273C26.5557 24.0863 26.5557 23.9454 26.5275 23.8044L25.2025 14.1346C25.1461 13.7963 24.8642 13.5426 24.5259 13.5144H12.037C11.6705 13.5144 11.3886 13.7682 11.3322 14.1346ZM23.9057 14.924L25.1461 23.9736C25.2871 24.9321 24.6105 25.806 23.652 25.947C23.5674 25.947 23.4828 25.9752 23.4265 25.9752H13.1647C12.2061 25.9752 11.4168 25.1858 11.4168 24.2273C11.4168 24.1427 11.4168 24.0581 11.445 23.9736L12.6854 14.924H23.9057Z" fill="url(#paint0_linear)"/>
    <path d="M12.0087 0.0395584C9.38689 0.0395584 7.24432 2.18213 7.24432 4.80396V6.0444H3.55119C3.1847 6.0444 2.90278 6.29813 2.8464 6.66462L0.534675 23.8052C0.309141 25.5249 1.52139 27.1318 3.24108 27.3574C3.38204 27.3856 3.523 27.3856 3.66396 27.3856H8.23103C8.62571 27.3856 8.93582 27.0754 8.93582 26.6808C8.93582 26.2861 8.62571 25.976 8.23103 25.976H3.66396C2.70544 25.976 1.91607 25.1866 1.91607 24.2281C1.91607 24.1435 1.91607 24.0589 1.94426 23.9744L4.1996 7.45399H19.8742L20.4381 11.5982C20.4944 11.9929 20.8609 12.2748 21.2274 12.2184C21.5939 12.162 21.904 11.7955 21.8476 11.429L21.171 6.66462C21.1147 6.32632 20.8327 6.0444 20.4663 6.0444H16.7731V4.80396C16.7731 2.18213 14.6587 0.0395584 12.0087 0.0395584ZM8.6539 4.80396C8.6539 2.94331 10.1481 1.44915 12.0087 1.44915C13.8694 1.44915 15.3635 2.94331 15.3635 4.80396V6.0444H8.6539V4.80396Z" fill="url(#paint1_linear)"/>
    <path d="M18.2673 22.0298C20.2689 22.0298 21.904 20.3947 21.904 18.393V17.8292C21.904 17.4345 21.5939 17.1244 21.1992 17.1244C20.8045 17.1244 20.4944 17.4345 20.4944 17.8292V18.393C20.5508 19.6335 19.5641 20.6484 18.3519 20.7048C17.1114 20.7612 16.0965 19.7744 16.0401 18.5622C16.0401 18.5058 16.0401 18.4494 16.0401 18.393V17.8292C16.0401 17.4345 15.73 17.1244 15.3353 17.1244C14.9407 17.1244 14.6306 17.4345 14.6306 17.8292V18.393C14.6306 20.3947 16.2657 22.0298 18.2673 22.0298Z" fill="url(#paint2_linear)"/>
    <path d="M9.33051 10.8909C9.49232 10.4363 9.25494 9.93653 8.80031 9.77473C8.34568 9.61292 7.84597 9.8503 7.68416 10.3049C7.52236 10.7596 7.75974 11.2593 8.21437 11.4211C8.66899 11.5829 9.16871 11.3455 9.33051 10.8909Z" fill="url(#paint3_linear)"/>
    <path d="M16.3352 10.8697C16.497 10.4151 16.2596 9.91533 15.805 9.75353C15.3503 9.59172 14.8506 9.8291 14.6888 10.2837C14.527 10.7384 14.7644 11.2381 15.219 11.3999C15.6736 11.5617 16.1734 11.3243 16.3352 10.8697Z" fill="url(#paint4_linear)"/>
    <defs>
        <linearGradient id="paint0_linear" x1="9.98018" y1="13.5144" x2="29.0578" y2="21.0529" gradientUnits="userSpaceOnUse">
            <stop stop-color="#FF9E18"/>
            <stop offset="1" stop-color="#F8DF8D"/>
        </linearGradient>
        <linearGradient id="paint1_linear" x1="0.507675" y1="0.0395584" x2="27.1385" y2="6.91338" gradientUnits="userSpaceOnUse">
            <stop stop-color="#FF9E18"/>
            <stop offset="1" stop-color="#F8DF8D"/>
        </linearGradient>
        <linearGradient id="paint2_linear" x1="14.6306" y1="17.1244" x2="22.4334" y2="20.95" gradientUnits="userSpaceOnUse">
            <stop stop-color="#FF9E18"/>
            <stop offset="1" stop-color="#F8DF8D"/>
        </linearGradient>
        <linearGradient id="paint3_linear" x1="7.39119" y1="11.1281" x2="8.74703" y2="9.3857" gradientUnits="userSpaceOnUse">
            <stop stop-color="#FF9E18"/>
            <stop offset="1" stop-color="#F8DF8D"/>
        </linearGradient>
        <linearGradient id="paint4_linear" x1="14.3958" y1="11.1069" x2="15.7517" y2="9.36449" gradientUnits="userSpaceOnUse">
            <stop stop-color="#FF9E18"/>
            <stop offset="1" stop-color="#F8DF8D"/>
        </linearGradient>
    </defs>
</svg>