<svg width="32" height="26" viewBox="0 0 32 26" fill="none" xmlns="http://www.w3.org/2000/svg">
    <path d="M13.527 19.3418C13.4842 19.3841 9.35912 23.6814 8.49661 24.5329C8.08678 24.9376 7.62606 24.5329 7.53767 24.4377C7.44927 24.3425 7.00195 23.8903 7.42785 23.4778C8.33589 22.5787 12.5654 18.4532 12.6056 18.4162C12.6651 18.3621 12.713 18.2967 12.7463 18.2239C12.7797 18.1511 12.7979 18.0725 12.7998 17.9926C12.8017 17.9128 12.7873 17.8334 12.7574 17.7591C12.7276 17.6849 12.6829 17.6173 12.6261 17.5605C12.5692 17.5036 12.5014 17.4587 12.4266 17.4283C12.3517 17.3979 12.2715 17.3827 12.1906 17.3836C12.1097 17.3845 12.0298 17.4014 11.9557 17.4334C11.8815 17.4655 11.8147 17.5119 11.7591 17.5699C11.7163 17.6123 7.47338 21.7351 6.57605 22.6368C5.93854 23.2662 5.77247 24.3769 6.68587 25.2813C7.0628 25.6656 7.57728 25.8887 8.11892 25.9028C8.34937 25.9009 8.57705 25.8531 8.78832 25.7622C8.99959 25.6713 9.19009 25.5392 9.3484 25.3739C10.2216 24.5118 14.2315 20.3493 14.4029 20.1616C14.513 20.0469 14.5725 19.8937 14.5682 19.7358C14.564 19.5778 14.4963 19.428 14.3802 19.3193C14.264 19.2106 14.1089 19.1519 13.9489 19.1561C13.7889 19.1603 13.6371 19.2271 13.527 19.3418V19.3418Z" fill="url(#paint0_linear)"/>
    <path d="M31.427 6.41203C31.3118 6.30376 31.1555 6.24295 30.9926 6.24295C30.8297 6.24295 30.6734 6.30376 30.5582 6.41203L26.6345 10.1018C24.9706 11.664 22.6781 12.2165 21.1699 11.4122C21.0544 11.35 20.9206 11.3247 20.7885 11.3401C20.6564 11.3555 20.5331 11.4108 20.4373 11.4977C20.3415 11.5846 20.2783 11.6984 20.2572 11.822C20.236 11.9456 20.2581 12.0723 20.3201 12.1831L19.3338 13.1209C19.2189 13.23 19.1548 13.3775 19.1556 13.5309C19.1564 13.6844 19.2219 13.8313 19.3379 13.9393C19.4538 14.0473 19.6106 14.1076 19.7738 14.1069C19.937 14.1062 20.0933 14.0445 20.2081 13.9355L21.4404 12.7638C21.8564 12.8743 22.2868 12.9296 22.7191 12.9282C24.3312 12.9282 26.1072 12.2191 27.487 10.9215L31.427 7.22912C31.5422 7.12072 31.6068 6.97378 31.6068 6.82058C31.6068 6.66737 31.5422 6.52043 31.427 6.41203V6.41203Z" fill="url(#paint1_linear)"/>
    <path d="M21.3069 8.69772C21.4227 8.80683 21.5784 8.86674 21.7396 8.86428C21.9008 8.86181 22.0545 8.79717 22.1667 8.68456L27.5043 3.31532C27.6166 3.2023 27.6781 3.05052 27.6753 2.89339C27.6725 2.73626 27.6056 2.58664 27.4895 2.47745C27.3733 2.36826 27.2173 2.30844 27.0558 2.31115C26.8943 2.31387 26.7405 2.37889 26.6283 2.49192L21.2933 7.86116C21.1812 7.97387 21.1196 8.1253 21.1221 8.28216C21.1247 8.43902 21.1911 8.58849 21.3069 8.69772Z" fill="url(#paint2_linear)"/>
    <path d="M23.2625 10.6524C23.3743 10.7659 23.5259 10.8296 23.684 10.8296C23.8421 10.8296 23.9937 10.7659 24.1055 10.6524L29.4768 5.29983C29.5834 5.18604 29.6424 5.03463 29.6412 4.87753C29.64 4.72043 29.5788 4.56994 29.4705 4.45781C29.3621 4.34568 29.2151 4.28067 29.0605 4.27652C28.9059 4.27237 28.7557 4.32939 28.6416 4.43555L23.2704 9.78815C23.2134 9.84399 23.1679 9.91082 23.1366 9.98473C23.1052 10.0586 23.0887 10.1381 23.088 10.2186C23.0872 10.299 23.1023 10.3789 23.1322 10.4533C23.1622 10.5278 23.2065 10.5955 23.2625 10.6524V10.6524Z" fill="url(#paint3_linear)"/>
    <path d="M18.4265 12.7958C18.5034 12.7959 18.5796 12.7795 18.6505 12.7476C18.7214 12.7157 18.7855 12.6688 18.8391 12.6099L19.7412 11.6203C19.8496 11.6877 19.9756 11.7156 20.1001 11.6997C20.2247 11.6838 20.3409 11.6251 20.4314 11.5323C20.5218 11.4396 20.5814 11.318 20.6011 11.1858C20.6209 11.0537 20.5997 10.9183 20.5408 10.8002C19.7387 9.30482 20.2845 7.00846 21.8479 5.33266L25.5256 1.4097C25.5822 1.35339 25.6277 1.28548 25.6592 1.21003C25.6907 1.13458 25.7076 1.05313 25.709 0.970543C25.7104 0.887954 25.6961 0.805916 25.6671 0.729326C25.6381 0.652735 25.595 0.583161 25.5402 0.524752C25.4854 0.466344 25.4202 0.420297 25.3484 0.389361C25.2766 0.358425 25.1997 0.343233 25.1223 0.34469C25.0449 0.346147 24.9685 0.364225 24.8978 0.397844C24.827 0.431462 24.7634 0.479933 24.7106 0.540366L21.0329 4.46332C19.3978 6.20746 18.7033 8.58037 19.1825 10.4612L18.0087 11.7461C17.9296 11.8327 17.8762 11.9423 17.8552 12.0611C17.8341 12.1799 17.8464 12.3027 17.8904 12.4142C17.9345 12.5256 18.0083 12.6207 18.1027 12.6876C18.1972 12.7545 18.308 12.7903 18.4214 12.7904L18.4265 12.7958Z" fill="url(#paint4_linear)"/>
    <path d="M9.98662 11.3427C10.0811 11.2363 10.1348 11.1001 10.1384 10.9582C10.142 10.8162 10.0952 10.6776 10.0062 10.5665C9.91726 10.4555 9.7918 10.3792 9.65188 10.351C9.51197 10.3228 9.36655 10.3446 9.24117 10.4125C7.61474 11.3373 5.11817 10.7064 3.31283 8.9133C1.22286 6.83441 0.751199 3.92502 2.25836 2.42584C3.76552 0.926664 6.69309 1.39853 8.78035 3.47473C10.5857 5.27051 11.22 7.75117 10.2875 9.37168C10.2478 9.44091 10.2222 9.51723 10.2122 9.5963C10.2021 9.67536 10.2079 9.75562 10.229 9.83249C10.2501 9.90935 10.2863 9.98132 10.3354 10.0443C10.3845 10.1073 10.4456 10.16 10.5152 10.1995C10.5848 10.239 10.6615 10.2644 10.741 10.2744C10.8205 10.2844 10.9012 10.2787 10.9785 10.2577C11.0557 10.2366 11.1281 10.2007 11.1914 10.1518C11.2547 10.103 11.3077 10.0422 11.3474 9.97297C12.5455 7.88599 11.8299 4.79325 9.64235 2.61729C7.07259 0.0611306 3.36975 -0.408036 1.38009 1.56301C-0.609581 3.53405 -0.129784 7.22538 2.43456 9.76805C3.90919 11.2376 5.80669 12.0384 7.52799 12.0384C7.95507 12.0394 8.38051 11.986 8.7939 11.8793L20.7211 23.7433C20.7769 23.8029 20.8442 23.8507 20.919 23.8839C20.9939 23.9171 21.0746 23.9349 21.1565 23.9363C21.2384 23.9378 21.3198 23.9228 21.3957 23.8923C21.4716 23.8617 21.5406 23.8163 21.5985 23.7587C21.6565 23.7011 21.7021 23.6325 21.7328 23.5569C21.7635 23.4814 21.7785 23.4005 21.7771 23.319C21.7756 23.2376 21.7577 23.1572 21.7244 23.0828C21.6911 23.0084 21.643 22.9414 21.5831 22.8859L9.98662 11.3427Z" fill="url(#paint5_linear)"/>
    <path d="M13.6685 11.0157C13.6121 10.9584 13.5442 10.9124 13.4687 10.8805C13.3932 10.8485 13.3117 10.8314 13.229 10.83C13.1464 10.8286 13.0643 10.843 12.9877 10.8724C12.9111 10.9018 12.8415 10.9455 12.783 11.0009C12.7246 11.0564 12.6785 11.1224 12.6475 11.1951C12.6166 11.2678 12.6014 11.3456 12.6028 11.424C12.6043 11.5024 12.6224 11.5797 12.656 11.6513C12.6897 11.723 12.7382 11.7874 12.7986 11.8409L24.9242 23.3435C25.4247 23.8183 24.8804 24.3606 24.8147 24.4203C24.5795 24.6434 24.0707 24.9211 23.6632 24.5371C23.5465 24.4339 23.3922 24.3778 23.2328 24.3805C23.0733 24.3831 22.9212 24.4444 22.8084 24.5514C22.6957 24.6583 22.6311 24.8026 22.6283 24.9539C22.6255 25.1051 22.6847 25.2515 22.7934 25.3622C22.966 25.5313 23.1725 25.666 23.4008 25.7582C23.6291 25.8505 23.8746 25.8984 24.1227 25.8993C24.1974 25.9035 24.2723 25.9035 24.347 25.8993C24.8555 25.8342 25.3263 25.6095 25.6846 25.261C26.0502 24.9238 26.2853 24.4795 26.352 23.9999C26.3851 23.7318 26.3531 23.4599 26.2582 23.2054C26.1634 22.9508 26.0083 22.7202 25.8049 22.5313L13.6685 11.0157Z" fill="url(#paint6_linear)"/>
    <defs>
        <linearGradient id="paint0_linear" x1="6.04918" y1="17.3835" x2="16.2681" y2="20.7625" gradientUnits="userSpaceOnUse">
            <stop stop-color="#FF9E18"/>
            <stop offset="1" stop-color="#F8DF8D"/>
        </linearGradient>
        <linearGradient id="paint1_linear" x1="19.1556" y1="6.24295" x2="32.1596" y2="13.0511" gradientUnits="userSpaceOnUse">
            <stop stop-color="#FF9E18"/>
            <stop offset="1" stop-color="#F8DF8D"/>
        </linearGradient>
        <linearGradient id="paint2_linear" x1="21.1221" y1="2.31106" x2="28.9828" y2="4.91027" gradientUnits="userSpaceOnUse">
            <stop stop-color="#FF9E18"/>
            <stop offset="1" stop-color="#F8DF8D"/>
        </linearGradient>
        <linearGradient id="paint3_linear" x1="23.088" y1="4.27631" x2="30.9487" y2="6.87552" gradientUnits="userSpaceOnUse">
            <stop stop-color="#FF9E18"/>
            <stop offset="1" stop-color="#F8DF8D"/>
        </linearGradient>
        <linearGradient id="paint4_linear" x1="17.8452" y1="0.344594" x2="27.8721" y2="2.43858" gradientUnits="userSpaceOnUse">
            <stop stop-color="#FF9E18"/>
            <stop offset="1" stop-color="#F8DF8D"/>
        </linearGradient>
        <linearGradient id="paint5_linear" x1="0.151337" y1="0.344594" x2="26.5066" y2="8.33296" gradientUnits="userSpaceOnUse">
            <stop stop-color="#FF9E18"/>
            <stop offset="1" stop-color="#F8DF8D"/>
        </linearGradient>
        <linearGradient id="paint6_linear" x1="12.6028" y1="10.8299" x2="29.3854" y2="15.8967" gradientUnits="userSpaceOnUse">
            <stop stop-color="#FF9E18"/>
            <stop offset="1" stop-color="#F8DF8D"/>
        </linearGradient>
    </defs>
</svg>