<svg width="32" height="28" viewBox="0 0 32 28" fill="none" xmlns="http://www.w3.org/2000/svg">
    <path d="M8.71509 15.9582C9.19891 15.9582 9.73003 15.6939 10.0449 15.3114L10.9191 18.232C11.1112 18.8737 11.5903 18.9531 11.7326 18.962C11.8749 18.9698 12.3598 18.9527 12.6314 18.3396L14.5489 13.9978L16.8106 21.5367C17.0028 22.1764 17.481 22.2567 17.6241 22.2659C17.6363 22.2666 17.6522 22.2677 17.671 22.2677C17.8514 22.2677 18.2753 22.2034 18.5252 21.6494L21.0503 16.038C21.0714 16.0081 21.1383 15.9652 21.1745 15.9578H24.2315C24.6255 15.9578 24.9456 15.6381 24.9456 15.2438C24.9456 14.8494 24.6259 14.5301 24.2315 14.5301H21.1686C20.5853 14.5301 19.9892 14.9155 19.7508 15.4463L17.7852 19.8139L15.5169 12.2562C15.3255 11.6153 14.845 11.5362 14.7027 11.527C14.5604 11.5185 14.0755 11.537 13.8046 12.1494L11.8878 16.4893L11.1523 14.0329C11.0303 13.6219 10.7372 13.3473 10.3706 13.2978C10.0154 13.2497 9.67311 13.4227 9.44507 13.7605L8.96421 14.3704L8.94388 14.404C8.90692 14.455 8.77645 14.5267 8.71509 14.5312H1.00845V14.5419C0.672109 14.5988 0.414864 14.8915 0.414864 15.2445C0.414864 15.5978 0.671739 15.8902 1.00808 15.9475V15.9582H8.71509Z" fill="url(#paint0_linear)"/>
    <path d="M29.419 3.1853C27.8382 1.60486 25.7359 0.733704 23.5002 0.733704C21.2644 0.733704 19.1632 1.60449 17.5813 3.1853L16.4998 4.2675L15.4176 3.1853C13.8376 1.60486 11.7353 0.733704 9.49877 0.733704C7.26303 0.733704 5.16108 1.60449 3.58065 3.1853C1.99911 4.76647 1.12906 6.86878 1.12906 9.10416C1.12906 10.6657 1.55337 12.1615 2.34913 13.4607H4.09366C3.09832 12.2299 2.55758 10.7094 2.55758 9.10453C2.55758 7.24985 3.27868 5.50679 4.59041 4.1958C5.90214 2.88407 7.64483 2.1626 9.49914 2.1626C11.3535 2.1626 13.0969 2.88407 14.4079 4.1958L16.4998 6.28666L18.5903 4.1958C19.9021 2.88407 21.6455 2.1626 23.4998 2.1626C25.3541 2.1626 27.0975 2.88407 28.4085 4.1958C29.7203 5.50679 30.4421 7.25022 30.4421 9.10453C30.4421 10.9588 29.7203 12.7023 28.4078 14.0136L16.5002 25.9227L7.60639 17.03H5.58724L16.4998 27.9415L29.419 15.0227C30.9998 13.4422 31.8706 11.3399 31.8706 9.10416C31.8706 6.86842 30.9998 4.76647 29.419 3.1853Z" fill="url(#paint1_linear)"/>
    <defs>
        <linearGradient id="paint0_linear" x1="0.414864" y1="11.5258" x2="21.2036" y2="27.2234" gradientUnits="userSpaceOnUse">
            <stop stop-color="#FF9E18"/>
            <stop offset="1" stop-color="#F8DF8D"/>
        </linearGradient>
        <linearGradient id="paint1_linear" x1="1.12906" y1="0.733704" x2="37.0252" y2="14.1446" gradientUnits="userSpaceOnUse">
            <stop stop-color="#FF9E18"/>
            <stop offset="1" stop-color="#F8DF8D"/>
        </linearGradient>
    </defs>
</svg>