<svg width="77" height="77" viewBox="0 0 77 77" fill="none" xmlns="http://www.w3.org/2000/svg">
    <circle cx="38.8398" cy="38.3867" r="37" stroke="url(#paint0_linear)" stroke-width="2"/>
    <path d="M29.1794 45.3521C29.7821 45.3521 30.4437 45.0229 30.836 44.5464L31.9249 48.1846C32.1643 48.9839 32.761 49.0829 32.9383 49.0939C33.1155 49.1036 33.7196 49.0824 34.058 48.3186L36.4467 42.9101L39.2639 52.3012C39.5034 53.0982 40.0991 53.1981 40.2773 53.2096C40.2925 53.2105 40.3123 53.2119 40.3358 53.2119C40.5605 53.2119 41.0886 53.1318 41.3998 52.4416L44.5454 45.4516C44.5716 45.4143 44.655 45.3609 44.7001 45.3516H48.5082C48.999 45.3516 49.3977 44.9534 49.3977 44.4621C49.3977 43.9709 48.9995 43.5731 48.5082 43.5731H44.6927C43.9662 43.5731 43.2235 44.0533 42.9266 44.7144L40.4781 50.1552L37.6525 40.7406C37.414 39.9422 36.8154 39.8437 36.6382 39.8322C36.4609 39.8216 35.8569 39.8446 35.5194 40.6075L33.1317 46.0137L32.2154 42.9538C32.0635 42.4418 31.6984 42.0997 31.2416 42.038C30.7992 41.9782 30.3728 42.1936 30.0888 42.6145L29.4898 43.3742L29.4644 43.4161C29.4184 43.4796 29.2559 43.5689 29.1794 43.5744H19.5793V43.5878C19.1603 43.6587 18.8398 44.0233 18.8398 44.463C18.8398 44.9032 19.1598 45.2674 19.5788 45.3388V45.3521H29.1794Z" fill="url(#paint1_linear)"/>
    <path d="M54.9701 29.4407C53.0009 27.4719 50.382 26.3867 47.5969 26.3867C44.8119 26.3867 42.1944 27.4715 40.2238 29.4407L38.8766 30.7888L37.5285 29.4407C35.5603 27.4719 32.9414 26.3867 30.1554 26.3867C27.3704 26.3867 24.752 27.4715 22.7832 29.4407C20.8131 31.4103 19.7293 34.0292 19.7293 36.8138C19.7293 38.759 20.2578 40.6224 21.2491 42.2407H23.4223C22.1824 40.7075 21.5088 38.8134 21.5088 36.8142C21.5088 34.5039 22.4071 32.3325 24.0411 30.6994C25.6751 29.0654 27.846 28.1667 30.1559 28.1667C32.4658 28.1667 34.6376 29.0654 36.2707 30.6994L38.8766 33.304L41.4808 30.6994C43.1148 29.0654 45.2866 28.1667 47.5965 28.1667C49.9064 28.1667 52.0782 29.0654 53.7113 30.6994C55.3453 32.3325 56.2445 34.5043 56.2445 36.8142C56.2445 39.1242 55.3453 41.2959 53.7104 42.9295L38.8771 57.7646L27.7981 46.687H25.2828L38.8766 60.2794L54.9701 44.1864C56.9393 42.2177 58.024 39.5988 58.024 36.8138C58.024 34.0287 56.9393 31.4103 54.9701 29.4407Z" fill="url(#paint2_linear)"/>
    <defs>
        <linearGradient id="paint0_linear" x1="0.839844" y1="0.386719" x2="92.0026" y2="30.5304" gradientUnits="userSpaceOnUse">
            <stop stop-color="#FF9E18"/>
            <stop offset="1" stop-color="#F8DF8D"/>
        </linearGradient>
        <linearGradient id="paint1_linear" x1="18.8398" y1="39.8306" x2="44.7363" y2="59.3851" gradientUnits="userSpaceOnUse">
            <stop stop-color="#FF9E18"/>
            <stop offset="1" stop-color="#F8DF8D"/>
        </linearGradient>
        <linearGradient id="paint2_linear" x1="19.7293" y1="26.3867" x2="64.445" y2="43.0927" gradientUnits="userSpaceOnUse">
            <stop stop-color="#FF9E18"/>
            <stop offset="1" stop-color="#F8DF8D"/>
        </linearGradient>
    </defs>
</svg>