<svg width="77" height="77" viewBox="0 0 77 77" fill="none" xmlns="http://www.w3.org/2000/svg">
    <circle cx="38.8398" cy="38.3867" r="37" stroke="url(#paint0_linear)" stroke-width="2"/>
    <path d="M58.2022 39.2423L54.2453 43.0429C54.1171 43.1664 53.9657 43.2636 53.7997 43.3291C53.6336 43.3945 53.4562 43.4269 53.2775 43.4244C52.9166 43.4194 52.5726 43.2725 52.321 43.016C52.0694 42.7596 51.9309 42.4146 51.936 42.057C51.9411 41.6993 52.0893 41.3583 52.3481 41.109L56.2779 37.3084C56.6432 36.9752 56.9011 36.5426 57.0192 36.0648C57.1373 35.5869 57.1104 35.0852 56.9419 34.6224C56.7943 34.1667 56.5203 33.7614 56.1513 33.4527C55.7823 33.1439 55.3331 32.9443 54.8551 32.8765L48.4725 31.9633C47.6239 31.8377 46.8185 31.5108 46.1249 31.0104C45.4312 30.5101 44.8698 29.851 44.4884 29.0893L41.6562 23.4219C41.4454 22.9905 41.1162 22.6267 40.7064 22.3721C40.2966 22.1175 39.8227 21.9825 39.339 21.9825C38.8553 21.9825 38.3814 22.1175 37.9716 22.3721C37.5618 22.6267 37.2326 22.9905 37.0218 23.4219L34.1625 29.143C33.7811 29.9047 33.2197 30.5638 32.526 31.0642C31.8324 31.5646 31.027 31.8914 30.1784 32.017L23.8094 32.9302C23.3313 32.998 22.8822 33.1977 22.5131 33.5064C22.1441 33.8151 21.8702 34.2204 21.7225 34.6761C21.554 35.1389 21.5271 35.6406 21.6453 36.1185C21.7634 36.5963 22.0213 37.0289 22.3865 37.3621L26.9939 41.8208C27.5981 42.4106 28.0502 43.1358 28.312 43.9352C28.5738 44.7347 28.6376 45.5848 28.4981 46.4138L27.414 52.7124C27.3367 53.1825 27.3929 53.6647 27.5765 54.1049C27.7601 54.5451 28.0637 54.926 28.4534 55.2048C28.8431 55.4836 29.3034 55.6494 29.7828 55.6836C30.2622 55.7178 30.7417 55.619 31.1677 55.3983L36.8727 52.4303C37.6333 52.0339 38.4797 51.8268 39.339 51.8268C40.1983 51.8268 41.0448 52.0339 41.8053 52.4303L47.4697 55.4118C47.8956 55.6324 48.3752 55.7312 48.8546 55.6971C49.3339 55.6629 49.7943 55.4971 50.1839 55.2182C50.5736 54.9394 50.8773 54.5585 51.0608 54.1183C51.2444 53.6781 51.3007 53.1959 51.2234 52.7258L50.4916 48.2537C50.4622 48.0773 50.4682 47.8969 50.5092 47.7229C50.5502 47.5488 50.6253 47.3844 50.7304 47.2391C50.8355 47.0939 50.9684 46.9705 51.1216 46.8761C51.2747 46.7818 51.4452 46.7182 51.6231 46.6891C51.8011 46.66 51.9831 46.6659 52.1587 46.7065C52.3344 46.7471 52.5002 46.8216 52.6468 46.9258C52.7934 47.0299 52.9179 47.1616 53.0131 47.3134C53.1083 47.4652 53.1725 47.6341 53.2018 47.8105L53.9336 52.2826C54.0935 53.2455 53.9796 54.2335 53.6045 55.1358C53.2295 56.0381 52.6081 56.819 51.8102 57.3908C51.0123 57.9626 50.0693 58.3028 49.0872 58.3731C48.1051 58.4434 47.1227 58.2411 46.2501 57.7888L40.5451 54.8209C40.1725 54.629 39.7588 54.5288 39.339 54.5288C38.9192 54.5288 38.5055 54.629 38.133 54.8209L32.4279 57.7888C31.5554 58.2411 30.5729 58.4434 29.5908 58.3731C28.6087 58.3028 27.6658 57.9626 26.8678 57.3908C26.0699 56.819 25.4486 56.0381 25.0735 55.1358C24.6984 54.2335 24.5845 53.2455 24.7444 52.2826L25.7879 45.9572C25.8597 45.5473 25.8294 45.1262 25.6995 44.7307C25.5696 44.3351 25.3441 43.977 25.0425 43.6875L20.4352 39.2288C19.726 38.542 19.2255 37.6718 18.9907 36.7171C18.7558 35.7625 18.7959 34.7616 19.1065 33.8284C19.4171 32.8952 19.9856 32.0671 20.7476 31.4382C21.5095 30.8094 22.4341 30.405 23.4164 30.2711L29.8532 29.3579C30.2627 29.3037 30.6533 29.1536 30.9926 28.92C31.3319 28.6865 31.6103 28.3762 31.8046 28.0149L34.6503 22.2804C35.0932 21.4103 35.771 20.679 36.6084 20.1681C37.4458 19.6572 38.4099 19.3867 39.3932 19.3867C40.3766 19.3867 41.3406 19.6572 42.178 20.1681C43.0154 20.679 43.6933 21.4103 44.1361 22.2804L46.9818 28.0149C47.1762 28.3762 47.4545 28.6865 47.7938 28.92C48.1332 29.1536 48.5237 29.3037 48.9332 29.3579L55.3023 30.2711C56.2811 30.4141 57.2002 30.8252 57.956 31.458C58.7118 32.0908 59.2743 32.9203 59.58 33.8529C59.8857 34.7855 59.9224 35.7842 59.6862 36.7364C59.45 37.6886 58.9501 38.5565 58.2428 39.2423H58.2022Z" fill="url(#paint1_linear)"/>
    <defs>
        <linearGradient id="paint0_linear" x1="0.839844" y1="0.386719" x2="92.0026" y2="30.5304" gradientUnits="userSpaceOnUse">
            <stop stop-color="#FF9E18"/>
            <stop offset="1" stop-color="#F8DF8D"/>
        </linearGradient>
        <linearGradient id="paint1_linear" x1="18.8398" y1="19.3867" x2="67.5151" y2="36.3069" gradientUnits="userSpaceOnUse">
            <stop stop-color="#FF9E18"/>
            <stop offset="1" stop-color="#F8DF8D"/>
        </linearGradient>
    </defs>
</svg>
