<svg width="33" height="28" viewBox="0 0 33 28" fill="none" xmlns="http://www.w3.org/2000/svg">
    <path d="M17.7469 0.540506C14.6382 0.540506 12.0327 2.73316 11.3689 5.64514C10.447 4.32386 8.92303 3.45095 7.19654 3.45095C4.39223 3.45095 2.10328 5.7399 2.10328 8.54421C2.10328 10.1618 2.86453 11.6118 4.04736 12.5461H1.37567C1.1827 12.5461 0.997638 12.6228 0.861189 12.7592C0.72474 12.8956 0.648075 13.0807 0.648056 13.2737V26.3707C0.648075 26.5636 0.72474 26.7487 0.861189 26.8851C0.997638 27.0216 1.1827 27.0982 1.37567 27.0983H4.6158C4.71222 27.0996 4.80795 27.0818 4.89742 27.0459C4.98689 27.0099 5.06833 26.9565 5.13699 26.8888C5.20565 26.8211 5.26018 26.7405 5.29739 26.6515C5.33461 26.5625 5.35377 26.4671 5.35377 26.3707C5.35377 26.2742 5.33461 26.1788 5.29739 26.0898C5.26018 26.0008 5.20565 25.9202 5.13699 25.8525C5.06833 25.7848 4.98689 25.7314 4.89742 25.6954C4.80795 25.6595 4.71222 25.6417 4.6158 25.643H2.10328V14.0013H23.9316V25.643H7.5035C7.40709 25.6417 7.31136 25.6595 7.22189 25.6954C7.13242 25.7314 7.05098 25.7848 6.98232 25.8525C6.91365 25.9202 6.85913 26.0008 6.82191 26.0898C6.7847 26.1788 6.76553 26.2742 6.76553 26.3707C6.76553 26.4671 6.7847 26.5625 6.82191 26.6515C6.85913 26.7405 6.91365 26.8211 6.98232 26.8888C7.05098 26.9565 7.13242 27.0099 7.22189 27.0459C7.31136 27.0818 7.40709 27.0996 7.5035 27.0983H24.6592C24.8521 27.0982 25.0372 27.0216 25.1737 26.8851C25.3101 26.7487 25.3868 26.5636 25.3868 26.3707V24.1651L31.6056 27.3825C31.7165 27.4388 31.8399 27.4658 31.9642 27.4608C32.0885 27.4559 32.2094 27.4192 32.3155 27.3542C32.4215 27.2892 32.5091 27.1981 32.5699 27.0896C32.6308 26.9811 32.6628 26.8588 32.6629 26.7345V12.9099C32.6629 12.8124 32.6434 12.7159 32.6054 12.6261C32.5674 12.5363 32.5118 12.4551 32.4418 12.3872C32.3718 12.3193 32.2889 12.2662 32.198 12.231C32.107 12.1958 32.01 12.1792 31.9125 12.1823C31.8056 12.1859 31.7008 12.2131 31.6056 12.2618L25.3868 15.4792V13.2737C25.3876 13.092 25.3203 12.9165 25.1983 12.7819C25.0763 12.6472 24.9083 12.5631 24.7274 12.5461C24.7047 12.545 24.6819 12.545 24.6592 12.5461H21.3736C23.1347 11.3705 24.2954 9.35849 24.2954 7.08899C24.2954 3.48098 21.3549 0.540506 17.7469 0.540506ZM17.7469 1.99573C20.5684 1.99573 22.8402 4.26744 22.8402 7.08899C22.8402 9.91055 20.5684 12.1823 17.7469 12.1823C14.9253 12.1823 12.6536 9.91055 12.6536 7.08899C12.6536 4.26744 14.9253 1.99573 17.7469 1.99573ZM7.19654 4.90616C9.2144 4.90616 10.8346 6.52636 10.8346 8.54421C10.8346 10.5621 9.2144 12.1823 7.19654 12.1823C5.17869 12.1823 3.55849 10.5621 3.55849 8.54421C3.55849 6.52636 5.17869 4.90616 7.19654 4.90616ZM12.0056 10.2268C12.5167 11.1605 13.2384 11.9574 14.1202 12.5461H10.3457C11.0977 11.9521 11.6816 11.147 12.0056 10.2268ZM31.2077 14.1036V25.5407L25.3868 22.5166V17.1277L31.2077 14.1036Z" fill="url(#paint0_linear)"/>
    <defs>
        <linearGradient id="paint0_linear" x1="0.648056" y1="0.540506" x2="37.5438" y2="15.0488" gradientUnits="userSpaceOnUse">
            <stop stop-color="#FF9E18"/>
            <stop offset="1" stop-color="#F8DF8D"/>
        </linearGradient>
    </defs>
</svg>