<svg width="77" height="77" viewBox="0 0 77 77" fill="none" xmlns="http://www.w3.org/2000/svg">
    <circle cx="38.8398" cy="38.3867" r="37" stroke="url(#paint0_linear)" stroke-width="2"/>
    <path d="M35.3941 46.7386C35.3346 46.7973 29.6126 52.7583 28.4161 53.9395C27.8477 54.5007 27.2086 53.9395 27.086 53.8074C26.9633 53.6754 26.3428 53.0481 26.9336 52.4758C28.1932 51.2286 34.0602 45.506 34.1159 45.4546C34.1984 45.3796 34.2648 45.2889 34.3111 45.1879C34.3574 45.087 34.3826 44.9779 34.3853 44.8671C34.3879 44.7563 34.3679 44.6462 34.3266 44.5432C34.2852 44.4402 34.2232 44.3465 34.1443 44.2676C34.0655 44.1888 33.9713 44.1264 33.8676 44.0843C33.7638 44.0421 33.6524 44.021 33.5402 44.0223C33.428 44.0235 33.3172 44.047 33.2144 44.0914C33.1115 44.1358 33.0188 44.2002 32.9418 44.2808C32.8823 44.3395 26.9968 50.0584 25.752 51.3093C24.8677 52.1824 24.6374 53.7231 25.9044 54.9776C26.4272 55.5107 27.1409 55.8202 27.8922 55.8397C28.2119 55.837 28.5277 55.7707 28.8208 55.6446C29.1138 55.5185 29.3781 55.3354 29.5977 55.106C30.809 53.9101 36.3713 48.1362 36.6091 47.8757C36.7618 47.7167 36.8443 47.5042 36.8384 47.2851C36.8325 47.066 36.7386 46.8582 36.5775 46.7074C36.4164 46.5566 36.2012 46.4751 35.9792 46.481C35.7573 46.4868 35.5468 46.5795 35.3941 46.7386V46.7386Z" fill="url(#paint1_linear)"/>
    <path d="M60.2242 28.803C60.0643 28.6528 59.8476 28.5685 59.6216 28.5685C59.3956 28.5685 59.1788 28.6528 59.0189 28.803L53.5763 33.9213C51.2681 36.0883 48.0882 36.8547 45.996 35.739C45.8358 35.6527 45.6502 35.6176 45.4669 35.6389C45.2837 35.6603 45.1128 35.7371 44.9799 35.8576C44.847 35.9782 44.7593 36.136 44.73 36.3075C44.7007 36.4789 44.7313 36.6547 44.8173 36.8083L43.4491 38.1093C43.2897 38.2605 43.2008 38.4651 43.2019 38.678C43.203 38.8909 43.2939 39.0947 43.4548 39.2445C43.6156 39.3943 43.8331 39.4779 44.0595 39.4769C44.2859 39.4759 44.5026 39.3904 44.6619 39.2391L46.3713 37.6138C46.9484 37.7671 47.5454 37.8439 48.145 37.8419C50.3812 37.8419 52.8448 36.8582 54.7588 35.0583L60.2242 29.9365C60.3839 29.7861 60.4736 29.5823 60.4736 29.3697C60.4736 29.1572 60.3839 28.9534 60.2242 28.803V28.803Z" fill="url(#paint2_linear)"/>
    <path d="M46.1853 31.9737C46.346 32.1251 46.5619 32.2082 46.7856 32.2048C47.0092 32.2014 47.2223 32.1117 47.3781 31.9555L54.7821 24.5076C54.9378 24.3508 55.0231 24.1403 55.0192 23.9223C55.0153 23.7043 54.9226 23.4968 54.7615 23.3453C54.6003 23.1939 54.3839 23.1109 54.1599 23.1146C53.9359 23.1184 53.7225 23.2086 53.5669 23.3654L46.1666 30.8133C46.011 30.9697 45.9256 31.1797 45.9291 31.3973C45.9326 31.6149 46.0248 31.8222 46.1853 31.9737Z" fill="url(#paint3_linear)"/>
    <path d="M48.8982 34.6853C49.0533 34.8427 49.2636 34.931 49.4829 34.931C49.7022 34.931 49.9125 34.8427 50.0676 34.6853L57.5183 27.2605C57.6662 27.1026 57.748 26.8926 57.7464 26.6747C57.7448 26.4567 57.6599 26.248 57.5096 26.0924C57.3593 25.9369 57.1554 25.8467 56.9409 25.841C56.7264 25.8352 56.518 25.9143 56.3599 26.0616L48.9092 33.4864C48.8301 33.5639 48.7669 33.6566 48.7235 33.7591C48.68 33.8616 48.6571 33.9719 48.6561 34.0835C48.6551 34.1951 48.676 34.3058 48.7175 34.4091C48.7591 34.5125 48.8205 34.6063 48.8982 34.6853V34.6853Z" fill="url(#paint4_linear)"/>
    <path d="M42.1902 37.6584C42.2969 37.6585 42.4026 37.6358 42.5009 37.5915C42.5992 37.5472 42.6882 37.4823 42.7626 37.4005L44.0139 36.0278C44.1642 36.1213 44.339 36.1599 44.5118 36.1379C44.6845 36.1159 44.8458 36.0344 44.9713 35.9058C45.0967 35.7771 45.1793 35.6084 45.2067 35.4251C45.2341 35.2418 45.2048 35.054 45.1231 34.8902C44.0104 32.8159 44.7676 29.6305 46.9362 27.3059L52.0377 21.8642C52.1162 21.7861 52.1793 21.6919 52.223 21.5872C52.2667 21.4825 52.2902 21.3696 52.2921 21.255C52.294 21.1404 52.2743 21.0266 52.234 20.9204C52.1938 20.8142 52.1339 20.7176 52.058 20.6366C51.982 20.5556 51.8915 20.4917 51.7919 20.4488C51.6923 20.4059 51.5857 20.3848 51.4782 20.3869C51.3708 20.3889 51.2649 20.4139 51.1668 20.4606C51.0687 20.5072 50.9804 20.5745 50.9072 20.6583L45.8057 26.1C43.5376 28.5194 42.5741 31.8109 43.2389 34.4199L41.6107 36.2022C41.501 36.3224 41.4269 36.4744 41.3977 36.6392C41.3685 36.8041 41.3855 36.9744 41.4466 37.129C41.5077 37.2836 41.6101 37.4155 41.7411 37.5083C41.8721 37.6011 42.0258 37.6507 42.1831 37.6508L42.1902 37.6584Z" fill="url(#paint5_linear)"/>
    <path d="M30.4828 35.6427C30.6139 35.4951 30.6884 35.3062 30.6934 35.1093C30.6984 34.9124 30.6335 34.7201 30.51 34.566C30.3866 34.412 30.2126 34.3062 30.0185 34.2671C29.8244 34.228 29.6227 34.2582 29.4488 34.3524C27.1927 35.6353 23.7296 34.76 21.2253 32.2728C18.3262 29.389 17.6719 25.3533 19.7626 23.2737C21.8532 21.1941 25.9142 21.8487 28.8095 24.7287C31.3138 27.2197 32.1937 30.6607 30.9002 32.9086C30.8451 33.0046 30.8096 33.1105 30.7957 33.2202C30.7818 33.3299 30.7897 33.4412 30.819 33.5478C30.8484 33.6544 30.8985 33.7543 30.9666 33.8416C31.0348 33.929 31.1195 34.0021 31.216 34.0569C31.3126 34.1116 31.419 34.147 31.5293 34.1608C31.6395 34.1747 31.7514 34.1668 31.8586 34.1376C31.9658 34.1084 32.0662 34.0585 32.154 33.9908C32.2418 33.923 32.3154 33.8387 32.3704 33.7427C34.0324 30.8477 33.0397 26.5577 30.0053 23.5393C26.4406 19.9935 21.3043 19.3427 18.5443 22.0768C15.7843 24.811 16.4499 29.9314 20.007 33.4584C22.0525 35.4969 24.6846 36.6077 27.0723 36.6077C27.6648 36.6092 28.2549 36.535 28.8283 36.3871L45.373 52.8442C45.4505 52.9269 45.5439 52.9932 45.6477 53.0392C45.7515 53.0852 45.8635 53.1099 45.9771 53.1119C46.0907 53.1139 46.2035 53.0931 46.3089 53.0508C46.4142 53.0085 46.5099 52.9455 46.5903 52.8655C46.6706 52.7856 46.7339 52.6904 46.7765 52.5857C46.819 52.4809 46.8399 52.3686 46.8379 52.2556C46.8359 52.1426 46.8111 52.0312 46.7648 51.928C46.7186 51.8247 46.6519 51.7318 46.5688 51.6548L30.4828 35.6427Z" fill="url(#paint6_linear)"/>
    <path d="M35.5899 35.1892C35.5118 35.1096 35.4175 35.0458 35.3128 35.0015C35.2081 34.9573 35.095 34.9335 34.9804 34.9316C34.8658 34.9296 34.7519 34.9497 34.6456 34.9904C34.5393 35.0311 34.4428 35.0917 34.3617 35.1686C34.2806 35.2455 34.2167 35.3371 34.1738 35.438C34.1308 35.5388 34.1098 35.6468 34.1118 35.7556C34.1138 35.8643 34.1389 35.9716 34.1856 36.0709C34.2322 36.1702 34.2995 36.2596 34.3834 36.3338L51.2032 52.2896C51.8976 52.9483 51.1425 53.7005 51.0515 53.7833C50.7252 54.0928 50.0194 54.478 49.4541 53.9453C49.2922 53.8022 49.0782 53.7243 48.857 53.728C48.6359 53.7317 48.4248 53.8167 48.2684 53.9651C48.112 54.1135 48.0224 54.3137 48.0185 54.5235C48.0146 54.7333 48.0967 54.9363 48.2475 55.0898C48.4869 55.3244 48.7734 55.5112 49.0901 55.6392C49.4068 55.7671 49.7473 55.8337 50.0915 55.8349C50.1951 55.8407 50.299 55.8407 50.4026 55.8349C51.108 55.7446 51.7611 55.4329 52.258 54.9495C52.7652 54.4817 53.0913 53.8655 53.1838 53.2002C53.2298 52.8282 53.1853 52.4512 53.0538 52.098C52.9222 51.7448 52.7071 51.425 52.425 51.163L35.5899 35.1892Z" fill="url(#paint7_linear)"/>
    <defs>
        <linearGradient id="paint0_linear" x1="0.839844" y1="0.386719" x2="92.0026" y2="30.5304" gradientUnits="userSpaceOnUse">
            <stop stop-color="#FF9E18"/>
            <stop offset="1" stop-color="#F8DF8D"/>
        </linearGradient>
        <linearGradient id="paint1_linear" x1="25.0212" y1="44.0222" x2="39.1964" y2="48.7093" gradientUnits="userSpaceOnUse">
            <stop stop-color="#FF9E18"/>
            <stop offset="1" stop-color="#F8DF8D"/>
        </linearGradient>
        <linearGradient id="paint2_linear" x1="43.2019" y1="28.5685" x2="61.2404" y2="38.0124" gradientUnits="userSpaceOnUse">
            <stop stop-color="#FF9E18"/>
            <stop offset="1" stop-color="#F8DF8D"/>
        </linearGradient>
        <linearGradient id="paint3_linear" x1="45.929" y1="23.1145" x2="56.833" y2="26.72" gradientUnits="userSpaceOnUse">
            <stop stop-color="#FF9E18"/>
            <stop offset="1" stop-color="#F8DF8D"/>
        </linearGradient>
        <linearGradient id="paint4_linear" x1="48.6561" y1="25.8407" x2="59.56" y2="29.4462" gradientUnits="userSpaceOnUse">
            <stop stop-color="#FF9E18"/>
            <stop offset="1" stop-color="#F8DF8D"/>
        </linearGradient>
        <linearGradient id="paint5_linear" x1="41.3838" y1="20.3867" x2="55.2926" y2="23.2914" gradientUnits="userSpaceOnUse">
            <stop stop-color="#FF9E18"/>
            <stop offset="1" stop-color="#F8DF8D"/>
        </linearGradient>
        <linearGradient id="paint6_linear" x1="16.8398" y1="20.3867" x2="53.3985" y2="31.4677" gradientUnits="userSpaceOnUse">
            <stop stop-color="#FF9E18"/>
            <stop offset="1" stop-color="#F8DF8D"/>
        </linearGradient>
        <linearGradient id="paint7_linear" x1="34.1116" y1="34.9314" x2="57.3917" y2="41.9598" gradientUnits="userSpaceOnUse">
            <stop stop-color="#FF9E18"/>
            <stop offset="1" stop-color="#F8DF8D"/>
        </linearGradient>
    </defs>
</svg>