<svg width="77" height="77" viewBox="0 0 77 77" fill="none" xmlns="http://www.w3.org/2000/svg">
    <circle cx="38.8398" cy="38.739" r="37" stroke="url(#paint0_linear)" stroke-width="2"/>
    <path d="M62.7287 59.7668H46.5065L45.5621 52.4335C47.0065 51.8779 48.3398 51.2112 49.5621 50.3779C50.2287 50.989 51.1732 51.3779 52.1732 51.3779C54.3398 51.3779 56.0621 49.6557 56.0621 47.489V44.7112C56.0621 44.3779 55.8954 44.1001 55.6732 43.8779C56.7287 42.1001 57.5065 40.1001 57.8954 37.989C59.6732 37.6557 61.0621 36.0446 61.0621 34.1557V31.3779C61.0621 30.7668 60.5621 30.2668 59.951 30.2668H57.8954C57.3954 27.7668 56.3954 25.489 55.0621 23.4335C55.6732 22.7668 56.0621 21.8223 56.0621 20.8223V18.0446C56.0621 17.4335 55.5621 16.9335 54.951 16.9335H49.3954C49.0621 16.9335 48.7843 17.1001 48.5621 17.3223C46.7843 16.2668 44.8398 15.5446 42.7287 15.1001V13.1001C42.7287 12.489 42.2287 11.989 41.6176 11.989H36.0621C35.451 11.989 34.951 12.489 34.951 13.1001V15.1557C32.8398 15.6001 30.8954 16.3223 29.1176 17.3779C28.8954 17.1557 28.6176 16.989 28.2843 16.989H22.7287C22.1176 16.989 21.6176 17.489 21.6176 18.1001V20.8779C21.6176 21.8779 22.0065 22.8223 22.6176 23.489C21.2843 25.5446 20.2843 27.8223 19.7843 30.3223H17.7287C17.1176 30.3223 16.6176 30.8223 16.6176 31.4335V34.2112C16.6176 36.1001 18.0065 37.6557 19.7843 38.0446C20.2287 40.1557 20.951 42.1557 22.0065 43.9335C21.7843 44.1557 21.6176 44.4335 21.6176 44.7668V47.5446C21.6176 49.7112 23.3398 51.4335 25.5065 51.4335C26.5065 51.4335 27.451 51.0446 28.1176 50.4335C29.2287 51.1557 30.3954 51.7668 31.6176 52.2668L30.6176 59.7668H14.951C14.3398 59.7668 13.8398 60.2668 13.8398 60.8779C13.8398 61.489 14.3398 61.989 14.951 61.989H62.7287C63.3398 61.989 63.8398 61.489 63.8398 60.8779C63.8398 60.2668 63.3398 59.7668 62.7287 59.7668ZM53.8398 47.5446C53.8398 48.4335 53.1176 49.2112 52.1732 49.2112C51.2287 49.2112 50.5065 48.4335 50.5065 47.5446V45.8779H53.8398V47.5446ZM53.2287 43.6557H49.8398L43.6176 37.4335L43.3398 35.3223H53.3954C53.7287 36.4335 54.5621 37.3779 55.6176 37.8223C55.2287 39.9335 54.3954 41.8779 53.2287 43.6557ZM58.8398 32.5446V34.2112C58.8398 35.1001 58.1176 35.8779 57.1732 35.8779C56.2287 35.8779 55.5065 35.1001 55.5065 34.2112V32.5446H58.8398ZM50.5065 19.2112H53.8398V20.8779C53.8398 21.7668 53.1176 22.5446 52.1732 22.5446C51.2287 22.5446 50.5065 21.7668 50.5065 20.8779V19.2112ZM50.3398 24.3223C50.8954 24.6001 51.5065 24.7668 52.1732 24.7668C52.5065 24.7668 52.8398 24.7112 53.1732 24.6557C54.2843 26.3779 55.1732 28.2668 55.6176 30.3223H54.3954C53.7843 30.3223 53.2843 30.8223 53.2843 31.4335V33.1001H42.0621L41.7843 32.8223L50.3398 24.3223ZM43.1176 50.8779C41.7287 51.2112 40.3398 51.4335 38.8398 51.4335C37.1732 51.4335 35.5621 51.2112 34.0065 50.7668L36.0065 35.3223L38.7843 32.9335L41.1176 35.2668L43.1176 50.8779ZM42.451 17.3779C44.5621 17.8223 46.5621 18.6557 48.2843 19.8223V20.8779C48.2843 21.5446 48.451 22.1557 48.7287 22.7112L40.2287 31.2668L39.951 30.989V19.6001C41.0621 19.2668 42.0065 18.4335 42.451 17.3779ZM37.1732 14.2112H40.5065V15.8779C40.5065 16.7668 39.7843 17.5446 38.8398 17.5446C37.8954 17.5446 37.1732 16.7668 37.1732 15.8779V14.2112ZM29.3954 20.8779V19.8223C31.1732 18.6557 33.1176 17.8223 35.2287 17.3779C35.6732 18.4335 36.5621 19.2668 37.7287 19.6001V30.9335L37.3954 31.2112L28.951 22.7112C29.2287 22.1557 29.3954 21.5446 29.3954 20.8779ZM23.8398 19.2112H27.1732V20.8779C27.1732 21.7668 26.451 22.5446 25.5065 22.5446C24.5621 22.5446 23.8398 21.7668 23.8398 20.8779V19.2112ZM24.5065 24.6557C24.8398 24.7112 25.1732 24.7668 25.5065 24.7668C26.1732 24.7668 26.7843 24.6001 27.3398 24.3223L35.6732 32.6557L35.1732 33.1001H24.3954V31.4335C24.3954 30.8223 23.8954 30.3223 23.2843 30.3223H22.0621C22.5621 28.2668 23.3954 26.3223 24.5065 24.6557ZM20.5065 35.8779C19.5621 35.8779 18.8398 35.1001 18.8398 34.2112V32.5446H22.1732V34.2112C22.1732 35.1001 21.451 35.8779 20.5065 35.8779ZM27.1732 47.5446C27.1732 48.4335 26.451 49.2112 25.5065 49.2112C24.5621 49.2112 23.8398 48.4335 23.8398 47.5446V45.8779H27.1732V47.5446ZM27.8398 43.6557H24.451C23.2843 41.8779 22.451 39.9335 22.0065 37.8223C23.0621 37.3779 23.8954 36.489 24.2287 35.3223H33.7287L33.3954 38.1001L27.8398 43.6557ZM29.2843 48.5446C29.3398 48.2112 29.3954 47.8779 29.3954 47.5446V45.2112L32.951 41.6557L31.8954 49.9335C30.951 49.5446 30.1176 49.1001 29.2843 48.5446ZM32.8954 59.7668L33.7843 52.989C35.3954 53.4335 37.1176 53.6557 38.8954 53.6557C40.451 53.6557 42.0065 53.4335 43.451 53.1001L44.2843 59.7668H32.8954ZM44.1176 41.0446L48.2843 45.2112V47.5446C48.2843 47.8779 48.3398 48.2112 48.3954 48.5446C47.3954 49.2112 46.3398 49.7668 45.2287 50.2112L44.1176 41.0446Z" fill="url(#paint1_linear)"/>
    <defs>
        <linearGradient id="paint0_linear" x1="0.839844" y1="0.739014" x2="92.0026" y2="30.8827" gradientUnits="userSpaceOnUse">
            <stop stop-color="#FF9E18"/>
            <stop offset="1" stop-color="#F8DF8D"/>
        </linearGradient>
        <linearGradient id="paint1_linear" x1="13.8398" y1="11.989" x2="73.8153" y2="31.8204" gradientUnits="userSpaceOnUse">
            <stop stop-color="#FF9E18"/>
            <stop offset="1" stop-color="#F8DF8D"/>
        </linearGradient>
    </defs>
</svg>