<svg width="22" height="23" viewBox="0 0 22 23" fill="none" xmlns="http://www.w3.org/2000/svg">
    <path d="M8.88404 6.61734C8.76535 6.52832 8.64665 6.46897 8.49828 6.46897C8.32023 6.46897 8.17186 6.52832 8.05316 6.67669L4.31419 11.0091C4.13615 11.2465 4.13615 11.573 4.31419 11.7807L8.05316 16.1131C8.26088 16.3505 8.64665 16.3802 8.88404 16.1725C9.12144 15.9648 9.15111 15.579 8.94339 15.3416L6.06498 11.9884L14.8486 11.9884C15.175 11.9884 15.4421 11.7213 15.4421 11.3949C15.4421 11.0685 15.175 10.8014 14.8486 10.8014L6.06498 10.8014L8.94339 7.44822C9.15111 7.21083 9.12144 6.82506 8.88404 6.61734Z" fill="url(#paint0_linear)"/>
    <path d="M1.13892 15.2823C1.02023 14.9856 0.664132 14.8372 0.367388 14.9559C0.0706445 15.0746 -0.0777268 15.4307 0.0409707 15.7274C1.79176 20.0302 5.94617 22.7899 10.5754 22.7899C16.8663 22.7899 22 17.6859 22 11.395C22 5.10399 16.896 -7.79149e-08 10.605 4.72059e-07C5.94617 8.7935e-07 1.82143 2.78939 0.0409699 7.09217C-0.0777275 7.38892 0.0706439 7.74501 0.367388 7.86371C0.664131 7.98241 1.02023 7.83403 1.13892 7.53729C2.71166 3.67962 6.42096 1.18698 10.605 1.18697C16.2432 1.18697 20.813 5.7865 20.813 11.395C20.813 17.0034 16.2135 21.6029 10.605 21.6029C6.42096 21.6029 2.71167 19.14 1.13892 15.2823Z" fill="url(#paint1_linear)"/>
    <defs>
        <linearGradient id="paint0_linear" x1="15.4421" y1="16.3114" x2="2.33328" y2="11.352" gradientUnits="userSpaceOnUse">
            <stop stop-color="#FF9E18"/>
            <stop offset="1" stop-color="#F8DF8D"/>
        </linearGradient>
        <linearGradient id="paint1_linear" x1="22" y1="22.7899" x2="-4.56759" y2="14.3096" gradientUnits="userSpaceOnUse">
            <stop stop-color="#FF9E18"/>
            <stop offset="1" stop-color="#F8DF8D"/>
        </linearGradient>
    </defs>
</svg>