<svg width="39" height="39" viewBox="0 0 39 39" fill="none" xmlns="http://www.w3.org/2000/svg">
    <path fill-rule="evenodd" clip-rule="evenodd" d="M19.958 38.5688C30.4514 38.5688 38.958 30.0623 38.958 19.5688C38.958 9.07544 30.4514 0.568848 19.958 0.568848C9.4646 0.568848 0.958008 9.07544 0.958008 19.5688C0.958008 30.0623 9.4646 38.5688 19.958 38.5688Z" fill="url(#paint0_linear)"/>
    <path d="M14.6677 8.55908C13.2242 8.55908 11.9972 9.53344 11.6002 10.8687H8.31629C7.81107 10.8687 7.4502 11.2656 7.4502 11.7709C7.4502 12.2761 7.84716 12.673 8.35238 12.673H11.6363C11.9972 14.0083 13.2603 14.9826 14.7038 14.9826C16.1833 14.9826 17.4103 14.0083 17.8073 12.673H31.1235C31.6288 12.673 32.0257 12.2761 32.0257 11.7709C32.0257 11.2656 31.6288 10.8687 31.1235 10.8687H17.8073C17.3742 9.53344 16.1473 8.55908 14.6677 8.55908ZM14.7038 10.3635C15.4616 10.3635 16.1112 10.9769 16.1112 11.7709C16.1112 12.5648 15.4616 13.1783 14.7038 13.1783C13.9459 13.1783 13.2964 12.5648 13.2964 11.7709C13.2964 10.9769 13.9459 10.3635 14.7038 10.3635Z" fill="url(#paint1_linear)"/>
    <path d="M25.53 15.7766C24.0865 15.7766 22.8595 16.751 22.4626 18.0862H8.35238C7.81107 18.0862 7.4502 18.4832 7.4502 18.9884C7.4502 19.4936 7.84716 19.8906 8.35238 19.8906H22.4626C22.8234 21.2258 24.0865 22.2002 25.53 22.2002C27.0096 22.2002 28.2365 21.2258 28.6335 19.8906H31.1235C31.6288 19.8906 32.0257 19.4936 32.0257 18.9884C32.0257 18.4832 31.6288 18.0862 31.1235 18.0862H28.6335C28.2365 16.751 27.0096 15.7766 25.53 15.7766ZM25.5661 17.581C26.3239 17.581 26.9735 18.1945 26.9735 18.9884C26.9735 19.7823 26.3239 20.3958 25.5661 20.3958C24.8082 20.3958 24.1587 19.7823 24.1587 18.9884C24.1587 18.1945 24.7722 17.581 25.5661 17.581Z" fill="url(#paint2_linear)"/>
    <path d="M18.9982 23.7158C17.5547 23.7158 16.3277 24.6902 15.9307 26.0254H8.35238C7.81107 26.0254 7.4502 26.4224 7.4502 26.9276C7.4502 27.4328 7.84716 27.8298 8.35238 27.8298H15.9668C16.3277 29.165 17.5908 30.1394 19.0343 30.1394C20.5138 30.1394 21.7408 29.165 22.1378 27.8298H31.1235C31.6288 27.8298 32.0257 27.4328 32.0257 26.9276C32.0257 26.4224 31.6288 26.0254 31.1235 26.0254H22.1017C21.7047 24.6902 20.4778 23.7158 18.9982 23.7158ZM19.0343 25.5202C19.7921 25.5202 20.4417 26.1337 20.4417 26.9276C20.4417 27.7215 19.7921 28.335 19.0343 28.335C18.2764 28.335 17.6268 27.7215 17.6268 26.9276C17.6629 26.1337 18.2764 25.5202 19.0343 25.5202Z" fill="url(#paint3_linear)"/>
    <defs>
        <linearGradient id="paint0_linear" x1="0.958008" y1="0.568848" x2="46.5394" y2="15.6407" gradientUnits="userSpaceOnUse">
            <stop stop-color="#FF9E18"/>
            <stop offset="1" stop-color="#F8DF8D"/>
        </linearGradient>
        <linearGradient id="paint1_linear" x1="7.4502" y1="8.55908" x2="20.0261" y2="24.4682" gradientUnits="userSpaceOnUse">
            <stop/>
            <stop offset="1" stop-color="#3A3A3A"/>
        </linearGradient>
        <linearGradient id="paint2_linear" x1="7.4502" y1="15.7766" x2="20.0261" y2="31.6857" gradientUnits="userSpaceOnUse">
            <stop/>
            <stop offset="1" stop-color="#3A3A3A"/>
        </linearGradient>
        <linearGradient id="paint3_linear" x1="7.4502" y1="23.7158" x2="20.0261" y2="39.6249" gradientUnits="userSpaceOnUse">
            <stop/>
            <stop offset="1" stop-color="#3A3A3A"/>
        </linearGradient>
    </defs>
</svg>