<svg width="23" height="19" viewBox="0 0 23 19" fill="none" xmlns="http://www.w3.org/2000/svg">
    <path fill-rule="evenodd" clip-rule="evenodd" d="M22.6025 2.06023C22.6025 2.71954 17.7247 3.25401 11.7075 3.25401C5.69036 3.25401 0.8125 2.71954 0.8125 2.06023C0.8125 1.40093 5.69036 0.866455 11.7075 0.866455C17.7247 0.866455 22.6025 1.40093 22.6025 2.06023ZM22.6025 9.86646C22.6025 10.5258 17.7247 11.0602 11.7075 11.0602C5.69036 11.0602 0.8125 10.5258 0.8125 9.86646C0.8125 9.20715 5.69036 8.67268 11.7075 8.67268C17.7247 8.67268 22.6025 9.20715 22.6025 9.86646ZM11.7075 18.8665C17.7247 18.8665 22.6025 18.332 22.6025 17.6727C22.6025 17.0134 17.7247 16.4789 11.7075 16.4789C5.69036 16.4789 0.8125 17.0134 0.8125 17.6727C0.8125 18.332 5.69036 18.8665 11.7075 18.8665Z" fill="white"/>
</svg>