<svg width="23" height="19" viewBox="0 0 23 19" fill="none" xmlns="http://www.w3.org/2000/svg">
    <path fill-rule="evenodd" clip-rule="evenodd" d="M22.79 1.24856C22.79 1.93813 17.6883 2.49713 11.395 2.49713C5.10172 2.49713 0 1.93813 0 1.24856C0 0.559001 5.10172 0 11.395 0C17.6883 0 22.79 0.559001 22.79 1.24856ZM22.79 9.41303C22.79 10.1026 17.6883 10.6616 11.395 10.6616C5.10172 10.6616 0 10.1026 0 9.41303C0 8.72346 5.10172 8.16446 11.395 8.16446C17.6883 8.16446 22.79 8.72346 22.79 9.41303ZM11.395 18.8261C17.6883 18.8261 22.79 18.2671 22.79 17.5775C22.79 16.8879 17.6883 16.3289 11.395 16.3289C5.10172 16.3289 0 16.8879 0 17.5775C0 18.2671 5.10172 18.8261 11.395 18.8261Z" fill="url(#paint0_linear)"/>
    <defs>
        <linearGradient id="paint0_linear" x1="0" y1="0" x2="26.1378" y2="10.4624" gradientUnits="userSpaceOnUse">
            <stop stop-color="#FF9E18"/>
            <stop offset="1" stop-color="#F8DF8D"/>
        </linearGradient>
    </defs>
</svg>