<svg width="21" height="21" viewBox="0 0 21 21" fill="none" xmlns="http://www.w3.org/2000/svg">
    <path d="M17.9477 11.8519C18.4048 11.909 18.8048 11.6233 18.8619 11.1662C19.3191 8.2519 18.3477 5.28047 16.2905 3.16618C14.5762 1.39475 12.2334 0.480469 9.77623 0.480469C7.31908 0.480469 4.97623 1.4519 3.26194 3.16618C1.54765 4.88047 0.576225 7.22333 0.576225 9.68047C0.576225 12.1376 1.49051 14.5376 3.2048 16.2519C4.97623 18.0233 7.26194 18.9376 9.71908 18.9376C11.8905 18.9376 14.0048 18.1948 15.6619 16.7662L19.1477 20.2519C19.3191 20.4233 19.4905 20.4805 19.7191 20.4805C19.9477 20.4805 20.1191 20.4233 20.2905 20.2519C20.5762 19.9662 20.5762 19.4519 20.2905 19.109L16.2334 15.1662C15.9477 14.8805 15.4334 14.8805 15.0905 15.1662C13.6619 16.5948 11.7191 17.3948 9.71908 17.3948C7.66194 17.3948 5.77623 16.5948 4.34766 15.1662C1.37623 12.1948 1.37623 7.33761 4.34766 4.36618C5.77623 2.93761 7.71908 2.13761 9.71908 2.13761C11.7762 2.13761 13.6619 2.93761 15.0905 4.36618C16.8048 6.08047 17.6048 8.53761 17.2048 10.9948C17.2048 11.3948 17.4905 11.7948 17.9477 11.8519Z" fill="url(#paint0_linear)"/>
    <defs>
        <linearGradient id="paint0_linear" x1="0.576225" y1="0.480469" x2="24.4976" y2="8.36198" gradientUnits="userSpaceOnUse">
            <stop stop-color="#FF9E18"/>
            <stop offset="1" stop-color="#F8DF8D"/>
        </linearGradient>
    </defs>
</svg>