<svg width="21" height="20" viewBox="0 0 21 20" fill="none" xmlns="http://www.w3.org/2000/svg">
    <path d="M18.0959 7.68606H17.8668C17.7348 7.68155 17.6073 7.63724 17.501 7.55897C17.3947 7.48069 17.3145 7.37209 17.271 7.24743C17.217 7.12926 17.1993 6.99767 17.2203 6.86943C17.2413 6.74118 17.3 6.62209 17.3889 6.5273L17.5525 6.37018C17.9085 6.00365 18.1076 5.51285 18.1076 5.00193C18.1076 4.49101 17.9085 4.00021 17.5525 3.63368L16.7538 2.83499C16.3873 2.47905 15.8965 2.27995 15.3856 2.27995C14.8747 2.27995 14.3839 2.47905 14.0173 2.83499L13.8602 2.97901C13.7636 3.06954 13.6418 3.12863 13.5109 3.1485C13.38 3.16837 13.2461 3.14808 13.127 3.09031C13.0058 3.04512 12.9007 2.96505 12.8249 2.86018C12.7492 2.75532 12.7062 2.63037 12.7014 2.50111V2.32435C12.7015 1.80909 12.4991 1.31443 12.1378 0.947039C11.7766 0.579645 11.2854 0.368939 10.7702 0.360352H9.64416C9.12328 0.360352 8.62373 0.567272 8.2554 0.935593C7.88708 1.30391 7.68016 1.80346 7.68016 2.32435V2.52075C7.66189 2.64199 7.6124 2.7564 7.53656 2.85275C7.46071 2.94909 7.36111 3.02405 7.24754 3.07027C7.13397 3.11649 7.01033 3.13238 6.88877 3.11638C6.7672 3.10038 6.65188 3.05304 6.55414 2.97901L6.39702 2.81535C6.02794 2.46203 5.5357 2.26645 5.02478 2.27011C4.51386 2.27378 4.02448 2.47641 3.66052 2.83499L2.86182 3.63368C2.50589 4.00021 2.30679 4.49101 2.30679 5.00193C2.30679 5.51285 2.50589 6.00365 2.86182 6.37018L3.02549 6.5273C3.11601 6.62393 3.17511 6.74573 3.19498 6.87664C3.21485 7.00754 3.19456 7.14139 3.13678 7.26053C3.0916 7.38173 3.01152 7.48683 2.90666 7.56257C2.8018 7.6383 2.67685 7.68127 2.54759 7.68606H2.35119C1.83599 7.69465 1.34481 7.90535 0.983543 8.27275C0.622272 8.64014 0.41985 9.13479 0.419922 9.65006V10.7761C0.42851 11.2913 0.639215 11.7825 1.00661 12.1437C1.374 12.505 1.86866 12.7074 2.38392 12.7073H2.54759C2.67953 12.7119 2.80704 12.7562 2.91335 12.8344C3.01967 12.9127 3.09984 13.0213 3.14333 13.146C3.18793 13.2618 3.19869 13.3879 3.17435 13.5096C3.15001 13.6313 3.09157 13.7436 3.00585 13.8334L2.84218 13.9905C2.48625 14.357 2.28715 14.8478 2.28715 15.3587C2.28715 15.8697 2.48625 16.3605 2.84218 16.727L3.66052 17.5257C4.02705 17.8816 4.51785 18.0807 5.02877 18.0807C5.53968 18.0807 6.03049 17.8816 6.39702 17.5257L6.55414 17.362C6.65309 17.279 6.7729 17.2246 6.90056 17.2048C7.02823 17.1851 7.15887 17.2007 7.2783 17.2499C7.39773 17.2992 7.50138 17.3802 7.578 17.4842C7.65462 17.5882 7.70127 17.7113 7.7129 17.8399V18.0691C7.72148 18.5842 7.93219 19.0754 8.29958 19.4367C8.66698 19.798 9.16163 20.0004 9.67689 20.0003H10.8029C11.3125 19.9919 11.7988 19.7857 12.1592 19.4253C12.5196 19.065 12.7258 18.5786 12.7342 18.0691V17.8399C12.7387 17.708 12.783 17.5805 12.8613 17.4742C12.9396 17.3678 13.0482 17.2877 13.1728 17.2442C13.291 17.1901 13.4226 17.1725 13.5508 17.1935C13.6791 17.2144 13.7982 17.2731 13.8929 17.362L14.0501 17.5257C14.4166 17.8816 14.9074 18.0807 15.4183 18.0807C15.9292 18.0807 16.42 17.8816 16.7866 17.5257L17.5525 16.727C17.9085 16.3605 18.1076 15.8697 18.1076 15.3587C18.1076 14.8478 17.9085 14.357 17.5525 13.9905L17.4085 13.8334C17.3254 13.7344 17.2711 13.6146 17.2513 13.4869C17.2315 13.3593 17.2471 13.2286 17.2964 13.1092C17.3457 12.9898 17.4267 12.8861 17.5307 12.8095C17.6347 12.7329 17.7577 12.6862 17.8864 12.6746H18.1155C18.6217 12.6612 19.1031 12.4528 19.4593 12.0929C19.8154 11.7331 20.0189 11.2496 20.0272 10.7433V9.61732C20.0187 9.10775 19.8126 8.62141 19.4522 8.26103C19.0918 7.90066 18.6055 7.69448 18.0959 7.68606ZM18.7178 10.7433C18.7099 10.9057 18.6418 11.0594 18.5269 11.1743C18.4119 11.2893 18.2583 11.3573 18.0959 11.3653H17.8668C17.4771 11.3741 17.0985 11.4961 16.7769 11.7162C16.4554 11.9364 16.2048 12.2453 16.0556 12.6054C15.9064 12.9654 15.8652 13.3611 15.9369 13.7442C16.0085 14.1272 16.19 14.4812 16.4592 14.763L16.6229 14.9267C16.6811 14.9839 16.7273 15.0522 16.7589 15.1275C16.7904 15.2028 16.8067 15.2836 16.8067 15.3653C16.8067 15.4469 16.7904 15.5278 16.7589 15.6031C16.7273 15.6784 16.6811 15.7466 16.6229 15.8039L15.8242 16.5961C15.7039 16.7046 15.5476 16.7647 15.3856 16.7647C15.2235 16.7647 15.0672 16.7046 14.947 16.5961L14.7898 16.4324C14.5078 16.1653 14.1544 15.9856 13.7724 15.9152C13.3904 15.8447 12.9961 15.8865 12.6374 16.0354C12.2786 16.1843 11.9707 16.434 11.7508 16.7542C11.531 17.0745 11.4087 17.4516 11.3987 17.8399V18.0691C11.3907 18.2314 11.3227 18.3851 11.2077 18.5C11.0927 18.615 10.9391 18.6831 10.7767 18.691H9.64416C9.47606 18.6912 9.31432 18.6267 9.19244 18.511C9.07057 18.3952 8.9979 18.2369 8.9895 18.0691V17.8399C8.98492 17.4484 8.86343 17.0672 8.64063 16.7453C8.41782 16.4233 8.10387 16.1753 7.73908 16.033C7.49219 15.9302 7.2275 15.8768 6.96003 15.8759C6.45929 15.88 5.97998 16.0797 5.62451 16.4324L5.46085 16.5961C5.34055 16.7046 5.18427 16.7647 5.02222 16.7647C4.86018 16.7647 4.70389 16.7046 4.5836 16.5961L3.79145 15.7974C3.73326 15.7401 3.68704 15.6718 3.65549 15.5965C3.62394 15.5212 3.6077 15.4404 3.6077 15.3587C3.6077 15.2771 3.62394 15.1963 3.65549 15.121C3.68704 15.0457 3.73326 14.9774 3.79145 14.9201L3.95512 14.763C4.22434 14.4812 4.40583 14.1272 4.4775 13.7442C4.54916 13.3611 4.5079 12.9654 4.35875 12.6054C4.2096 12.2453 3.95898 11.9364 3.63741 11.7162C3.31585 11.4961 2.93721 11.3741 2.54759 11.3653H2.35119C2.18308 11.3655 2.02134 11.301 1.89947 11.1852C1.77759 11.0695 1.70492 10.9112 1.69652 10.7433V9.61732C1.69652 9.4437 1.76549 9.27718 1.88827 9.1544C2.01104 9.03163 2.17756 8.96266 2.35119 8.96266H2.54759C2.93909 8.95808 3.3203 8.83659 3.64226 8.61379C3.96422 8.39098 4.21223 8.07703 4.35446 7.71225C4.5009 7.35916 4.54111 6.97101 4.47018 6.5954C4.39924 6.21979 4.22024 5.87304 3.95512 5.59768L3.79145 5.44056C3.73326 5.38329 3.68704 5.31502 3.65549 5.23971C3.62394 5.16441 3.6077 5.08358 3.6077 5.00193C3.6077 4.92029 3.62394 4.83946 3.65549 4.76415C3.68704 4.68885 3.73326 4.62057 3.79145 4.5633L4.59014 3.76461C4.71044 3.65604 4.86672 3.59595 5.02877 3.59595C5.19081 3.59595 5.3471 3.65604 5.46739 3.76461L5.62451 3.92828C5.9063 4.1975 6.26027 4.37899 6.64335 4.45066C7.02642 4.52232 7.42207 4.48107 7.78212 4.33191C8.14217 4.18276 8.45109 3.93214 8.67126 3.61058C8.89144 3.28901 9.01338 2.91037 9.02223 2.52075V2.32435C9.02223 2.15072 9.0912 1.9842 9.21397 1.86143C9.33675 1.73866 9.50327 1.66968 9.67689 1.66968H10.8029C10.9708 1.67809 11.129 1.75075 11.2448 1.87263C11.3606 1.9945 11.4251 2.15625 11.4249 2.32435V2.52075C11.4392 2.90396 11.563 3.27505 11.7814 3.59023C11.9999 3.90541 12.3039 4.15151 12.6577 4.2995C13.0115 4.44748 13.4002 4.49116 13.778 4.42538C14.1558 4.3596 14.5069 4.18712 14.7898 3.92828L14.9535 3.76461C15.0738 3.65604 15.2301 3.59595 15.3921 3.59595C15.5542 3.59595 15.7105 3.65604 15.8308 3.76461L16.6229 4.5633C16.6811 4.62057 16.7273 4.68885 16.7589 4.76415C16.7904 4.83946 16.8067 4.92029 16.8067 5.00193C16.8067 5.08358 16.7904 5.16441 16.7589 5.23971C16.7273 5.31502 16.6811 5.38329 16.6229 5.44056L16.4592 5.59768C16.1921 5.87972 16.0125 6.23312 15.942 6.61513C15.8715 6.99714 15.9133 7.39138 16.0622 7.75015C16.2111 8.10893 16.4608 8.41686 16.7811 8.6367C17.1013 8.85653 17.4784 8.97885 17.8668 8.98884H18.0959C18.2638 8.99725 18.422 9.06992 18.5378 9.19179C18.6536 9.31367 18.718 9.47541 18.7178 9.64351V10.7433ZM12.9895 10.1803C12.9895 10.354 12.9205 10.5205 12.7978 10.6433C12.675 10.766 12.5085 10.835 12.3348 10.835C12.1612 10.835 11.9947 10.766 11.8719 10.6433C11.7491 10.5205 11.6802 10.354 11.6802 10.1803C11.6802 9.889 11.5938 9.60422 11.4319 9.36198C11.2701 9.11975 11.04 8.93095 10.7709 8.81946C10.5017 8.70798 10.2055 8.67881 9.91981 8.73564C9.63407 8.79248 9.37161 8.93277 9.16561 9.13877C8.9596 9.34477 8.81931 9.60723 8.76248 9.89297C8.70564 10.1787 8.73481 10.4749 8.8463 10.744C8.95779 11.0132 9.14659 11.2432 9.38882 11.4051C9.63105 11.5669 9.91584 11.6533 10.2072 11.6533C10.3808 11.6533 10.5473 11.7223 10.6701 11.8451C10.7929 11.9679 10.8618 12.1344 10.8618 12.308C10.8618 12.4816 10.7929 12.6481 10.6701 12.7709C10.5473 12.8937 10.3808 12.9627 10.2072 12.9627C9.65688 12.9627 9.11895 12.7995 8.66139 12.4938C8.20384 12.188 7.84722 11.7535 7.63664 11.2451C7.42605 10.7367 7.37095 10.1772 7.47831 9.63753C7.58566 9.09781 7.85065 8.60205 8.23977 8.21293C8.62889 7.82382 9.12465 7.55883 9.66437 7.45147C10.2041 7.34411 10.7635 7.39921 11.2719 7.6098C11.7803 7.82039 12.2149 8.17701 12.5206 8.63456C12.8263 9.09211 12.9895 9.63004 12.9895 10.1803Z" fill="url(#paint0_linear)"/>
    <defs>
        <linearGradient id="paint0_linear" x1="0.419922" y1="0.360352" x2="23.9467" y2="8.1267" gradientUnits="userSpaceOnUse">
            <stop stop-color="#FF9E18"/>
            <stop offset="1" stop-color="#F8DF8D"/>
        </linearGradient>
    </defs>
</svg>