<svg width="25" height="25" viewBox="0 0 25 25" fill="none" xmlns="http://www.w3.org/2000/svg">
    <path d="M12.5449 0.287476C5.928 0.287476 0.544434 5.67104 0.544434 12.2879C0.544434 16.1142 2.34433 19.5282 5.14256 21.7267C5.16292 21.7462 5.18497 21.7658 5.20787 21.7836C7.15535 23.2908 9.45823 24.1433 11.9019 24.2705C11.9197 24.2714 11.9367 24.2722 11.9545 24.2731C12.0317 24.2764 12.1097 24.2798 12.1878 24.2824C12.2107 24.2832 12.2336 24.2841 12.2565 24.2841C12.3523 24.2866 12.4482 24.2875 12.5449 24.2875C12.6416 24.2875 12.7382 24.2858 12.8349 24.2841C12.857 24.2832 12.879 24.2824 12.9011 24.2824C12.9808 24.2798 13.0606 24.2773 13.1395 24.2731C13.1547 24.2722 13.17 24.2714 13.1853 24.2705C15.6696 24.1416 18.0031 23.2662 19.9684 21.7166C19.9955 21.6954 20.0209 21.6725 20.0447 21.6479C22.7861 19.4468 24.5453 16.0684 24.5453 12.2871C24.5453 5.67104 19.1617 0.287476 12.5449 0.287476ZM13.6467 22.5325C13.5941 22.5385 13.5415 22.5427 13.4889 22.5478C13.4304 22.5529 13.3719 22.5588 13.3133 22.5631C13.2115 22.5707 13.1098 22.5766 13.0071 22.5809C12.9724 22.5826 12.9367 22.5834 12.902 22.5851C12.7832 22.5894 12.6645 22.5919 12.5449 22.5919C12.427 22.5919 12.3091 22.5894 12.192 22.5851C12.1572 22.5843 12.1225 22.5826 12.0885 22.5809C11.991 22.5766 11.8934 22.5707 11.7967 22.5639C11.7399 22.5597 11.6839 22.5546 11.6279 22.5503C11.5669 22.5453 11.5067 22.5393 11.4456 22.5325C11.3777 22.5249 11.3099 22.5181 11.2429 22.5096C11.231 22.5079 11.2191 22.5062 11.2072 22.5045C9.49725 22.2815 7.91789 21.6385 6.57603 20.6817V19.1456C6.57603 17.1244 7.57946 15.3347 9.11386 14.2447C10.0723 14.9937 11.2776 15.4424 12.5856 15.4424C13.8935 15.4424 15.0988 14.9945 16.0573 14.2447C17.5917 15.3347 18.5951 17.1244 18.5951 19.1456V20.6224C17.1752 21.6563 15.4822 22.3366 13.6467 22.5325ZM20.2907 19.0752C20.2686 16.5985 19.0718 14.3974 17.232 13.0021C17.864 12.0894 18.2355 10.9842 18.2355 9.79248C18.2355 9.51257 18.2151 9.23012 18.1736 8.95445C18.1048 8.49133 17.6731 8.17155 17.21 8.24026C16.7469 8.30896 16.4271 8.7407 16.4958 9.20382C16.5246 9.39721 16.5391 9.59484 16.5391 9.79248C16.5391 10.6661 16.2532 11.4745 15.7714 12.1301C15.3804 12.662 14.8596 13.092 14.2565 13.3745C13.7485 13.6128 13.1819 13.7468 12.5847 13.7468C11.9876 13.7468 11.421 13.6128 10.9129 13.3745C10.3098 13.092 9.78903 12.6611 9.39801 12.1301C8.91623 11.4753 8.63038 10.667 8.63038 9.79248C8.63038 7.61259 10.404 5.83899 12.5839 5.83899C12.8841 5.83899 13.1827 5.87291 13.4719 5.93907C13.9291 6.04425 14.3838 5.75841 14.4881 5.30207C14.5924 4.84574 14.3074 4.39025 13.8511 4.28592C13.4372 4.19092 13.0114 4.14342 12.5839 4.14342C9.46841 4.14342 6.93397 6.67786 6.93397 9.79332C6.93397 10.9851 7.30549 12.0903 7.9374 13.0029C6.07983 14.411 4.87792 16.6409 4.87792 19.1465V19.1652C3.24003 17.3398 2.24085 14.9284 2.24085 12.2879C2.24085 6.60576 6.86272 1.98389 12.5449 1.98389C18.2261 1.98389 22.8489 6.60576 22.8489 12.2879C22.8489 14.8851 21.8819 17.2609 20.2907 19.0752Z" fill="#828282"/>
</svg>