<svg width="22" height="26" viewBox="0 0 22 26" fill="none" xmlns="http://www.w3.org/2000/svg">
    <path d="M15.4327 2.18672C17.9827 2.18672 20.0527 4.25672 20.0527 6.80672C20.0527 7.16672 20.3427 7.45672 20.7027 7.45672C21.0627 7.45672 21.3527 7.16672 21.3527 6.80672C21.3527 3.53672 18.6927 0.886719 15.4327 0.886719C13.6927 0.886719 12.1327 1.63672 11.0427 2.82672C10.5327 2.43672 9.87273 2.26672 9.21273 2.39672C8.61273 2.52672 8.10273 2.86672 7.76273 3.36672C7.42273 3.86672 7.30273 4.47672 7.42273 5.06672C7.44273 5.16672 7.46273 5.25672 7.50273 5.34672C4.79273 6.26672 2.90273 8.84672 2.90273 11.7767C2.90273 12.1367 3.19273 12.4267 3.55273 12.4267C3.91273 12.4267 4.20273 12.1367 4.20273 11.7767C4.20273 9.16672 6.05273 6.90672 8.61273 6.39672H8.63273C8.92273 6.33672 9.22273 6.30672 9.53273 6.29672C9.51273 6.46672 9.50273 6.63672 9.50273 6.80672C9.50273 9.99672 12.0327 12.5967 15.1927 12.7267V14.1267C15.1927 15.5867 15.8427 16.9667 16.9627 17.8967L17.3827 18.2467C17.7427 18.5467 17.9427 18.9767 17.9427 19.4467V19.4667C17.9427 20.3167 17.2527 20.9967 16.4027 20.9967H2.89273C2.04273 20.9967 1.35273 20.3067 1.35273 19.4667C1.35273 19.2367 1.40273 19.0067 1.50273 18.7967C1.60273 18.5867 1.75273 18.3967 1.93273 18.2567L2.36273 17.9067C3.52273 16.9667 4.19273 15.5767 4.19273 14.0867V13.3167C4.19273 12.9567 3.90273 12.6667 3.54273 12.6667C3.18273 12.6667 2.89273 12.9567 2.89273 13.3167V14.0867C2.89273 15.1867 2.40273 16.2067 1.54273 16.8967L1.11273 17.2467C0.782734 17.5167 0.512734 17.8567 0.322734 18.2367C0.152734 18.6167 0.0527344 19.0467 0.0527344 19.4667C0.0527344 21.0367 1.32273 22.3067 2.89273 22.3067H6.27273C6.37273 24.0767 7.85273 25.4867 9.64273 25.4867C11.4327 25.4867 12.9127 24.0767 13.0127 22.3067H16.3927C17.9627 22.3067 19.2327 21.0367 19.2327 19.4667V19.4467C19.2327 18.5967 18.8527 17.7967 18.2027 17.2467L17.7827 16.8967C16.9527 16.2067 16.4827 15.1967 16.4827 14.1267V12.6267C17.3927 12.4667 18.2527 12.0867 19.0027 11.5167C20.0027 10.7567 20.7527 9.67672 21.1027 8.46672C21.2027 8.11672 21.0027 7.75672 20.6627 7.65672C20.3127 7.55672 19.9527 7.75672 19.8527 8.09672C19.5927 9.04672 19.0127 9.88672 18.2227 10.4867C17.4127 11.0967 16.4427 11.4267 15.4227 11.4267C12.8727 11.4267 10.7927 9.35672 10.7927 6.80672C10.8027 4.25672 12.8827 2.18672 15.4327 2.18672ZM9.65273 24.1867C8.57273 24.1867 7.68273 23.3567 7.58273 22.3067H11.7227C11.6227 23.3567 10.7327 24.1867 9.65273 24.1867ZM9.78273 4.99672C9.75273 4.99672 9.72273 4.99672 9.69273 4.99672C9.38273 4.99672 9.08273 5.01672 8.78273 5.05672C8.75273 4.97672 8.72273 4.89672 8.70273 4.81672C8.65273 4.56672 8.70273 4.30672 8.84273 4.09672C8.99273 3.87672 9.21273 3.73672 9.46273 3.68672C9.76273 3.62672 10.0527 3.70672 10.2727 3.88672C10.0727 4.23672 9.91273 4.60672 9.78273 4.99672Z" fill="#828282"/>
</svg>
