<svg width="22" height="25" viewBox="0 0 22 25" fill="none" xmlns="http://www.w3.org/2000/svg">
    <path d="M1.47766 0.75022C0.690758 0.75022 0.0445557 1.39642 0.0445557 2.18332V5.82632C0.0445557 6.21135 0.364708 6.53066 0.748891 6.53066H0.773324V23.2738C0.773324 23.8652 1.07915 24.2578 1.33612 24.4474C1.63858 24.6707 1.98401 24.7465 2.28394 24.7465C2.46592 24.7465 2.63273 24.7178 2.77765 24.6723C4.00097 24.2974 5.66407 22.9199 7.25641 21.475C8.74175 20.1279 10.0038 18.8254 10.6677 18.1328C11.3148 18.8287 12.5364 20.1296 13.9838 21.475C15.5382 22.9208 17.1685 24.2991 18.3935 24.674C18.7785 24.792 19.3481 24.8055 19.8333 24.4466L19.835 24.4449C20.0928 24.2553 20.3978 23.8644 20.3978 23.2729V9.69595C20.3978 9.31093 20.0777 8.99162 19.6935 8.99162C19.3085 8.99162 18.9892 9.31093 18.9892 9.69595V23.2729C18.9892 23.3833 19.0077 23.3066 18.9976 23.3142C19.006 23.3083 18.8333 23.3353 18.808 23.3277H18.8072H18.8063C18.3505 23.1887 17.594 22.7043 16.7809 22.0522C15.9679 21.4001 15.0782 20.5845 14.2551 19.7875C12.6089 18.1943 11.2052 16.6508 11.201 16.6458C11.0679 16.4975 10.8792 16.4141 10.6829 16.4124C10.4874 16.4107 10.3071 16.4815 10.1631 16.6365C10.1664 16.6323 8.70805 18.1859 7.01545 19.7808C6.16873 20.5786 5.25714 21.3942 4.42559 22.0463C3.59403 22.6984 2.82483 23.1862 2.36735 23.3269H2.3665H2.36566C2.34376 23.3336 2.16683 23.3066 2.17441 23.3117C2.17357 23.3109 2.17357 23.3109 2.17273 23.31C2.1702 23.3083 2.18452 23.3825 2.18452 23.2704V6.52897H20.4231C20.8081 6.52897 21.1274 6.20882 21.1274 5.82464V2.18164C21.1274 1.39474 20.4812 0.748535 19.6943 0.748535L1.47766 0.75022ZM1.47766 2.15973H19.6935C19.7112 2.15973 19.7162 2.16563 19.7162 2.18248V5.11946H1.45407V2.18248C1.45407 2.16479 1.45997 2.15973 1.47682 2.15973H1.47766Z" fill="#828282"/>
</svg>