<svg width="28" height="25" viewBox="0 0 28 25" fill="none" xmlns="http://www.w3.org/2000/svg">
    <path d="M27.9439 11.0005C27.9805 10.8541 27.9805 10.6712 27.9073 10.5249C27.761 8.76878 27.4317 7.34195 26.9561 6.64683L26.8829 6.50049L26.7366 6.42732C25.7854 5.87854 24.6512 5.40293 23.3708 5.00049C21.1756 2.25659 17.8098 0.500488 14.0049 0.500488C10.2366 0.500488 6.83417 2.25659 4.63905 5.00049C3.35856 5.40293 2.22442 5.87854 1.2732 6.42732L1.12686 6.50049L1.05369 6.64683C0.431736 7.63463 0.0292969 9.86634 0.0292969 12.5005C0.0292969 15.1346 0.431736 17.3663 1.05369 18.3541L1.12686 18.5005L1.2732 18.5737C2.22442 19.1224 3.35856 19.598 4.63905 20.0005C6.83417 22.7444 10.2 24.5005 14.0049 24.5005C17.7732 24.5005 21.1756 22.7444 23.3708 20.0005C24.6512 19.598 25.7854 19.1224 26.7366 18.5737L26.8829 18.5005L26.9561 18.3541C27.5781 17.3663 27.9805 15.1346 27.9805 12.5005C27.9805 11.9883 27.9439 11.4761 27.9439 11.0005ZM14.0049 19.9639C9.24881 19.9639 4.82198 19.0493 2.07808 17.5127C1.85856 17.0737 1.63905 16.2322 1.49271 15.0615C2.37076 15.9395 3.54149 16.4883 4.93174 16.6346C5.15125 16.6712 5.37076 16.6712 5.59027 16.6712C7.63905 16.6712 10.1269 15.6834 11.8464 12.9761C12.5781 14.0737 13.9683 15.6834 15.9073 16.0127C17.5171 16.3054 19.2 15.6468 20.8464 14.1102C21.6147 14.6224 23.1147 15.4273 24.6878 14.9883C25.4195 14.7688 26.0781 14.3298 26.6269 13.6346C26.5171 15.5371 26.2244 16.9273 25.8951 17.5127C23.1878 19.0493 18.761 19.9639 14.0049 19.9639ZM14.0049 5.03707C18.761 5.03707 23.1878 5.95171 25.9317 7.48829C26.2244 8.03707 26.5171 9.2078 26.6269 10.8541C26.0781 12.5005 25.3098 13.4883 24.3951 13.7444C22.8951 14.1834 21.2854 12.7932 21.2854 12.7566L20.8098 12.3541L20.3708 12.7932C18.9073 14.2932 17.4805 14.9517 16.1634 14.7322C13.8586 14.3663 12.4683 11.4029 12.4317 11.4029L11.8464 10.159L11.261 11.4029C9.68783 14.659 7.0171 15.5737 5.07808 15.3541C3.21222 15.1712 1.78539 13.9639 1.34637 12.281C1.38296 9.90293 1.74881 8.18341 2.07808 7.52488C4.82198 5.95171 9.24881 5.03707 14.0049 5.03707ZM14.0049 1.81756C16.6756 1.81756 19.0903 2.80537 20.9561 4.41512C18.8342 3.9761 16.4561 3.72 14.0049 3.72C11.5537 3.72 9.17564 3.9761 7.05369 4.41512C8.91954 2.80537 11.3342 1.81756 14.0049 1.81756ZM14.0049 23.1834C11.3342 23.1834 8.91954 22.1956 7.05369 20.5859C9.17564 21.0249 11.5537 21.281 14.0049 21.281C16.4561 21.281 18.8342 21.0249 20.9561 20.5859C19.0903 22.1956 16.6756 23.1834 14.0049 23.1834Z" fill="url(#paint0_linear)"/>
    <path d="M16.7488 12.9395C18.4317 12.9395 19.7854 11.5858 19.7854 9.90292C19.7854 8.21999 18.4317 6.86633 16.7488 6.86633C15.0658 6.86633 13.7122 8.21999 13.7122 9.90292C13.7122 11.5858 15.0658 12.9395 16.7488 12.9395ZM16.7488 8.18341C17.7 8.18341 18.4683 8.9517 18.4683 9.90292C18.4683 10.8541 17.7 11.6224 16.7488 11.6224C15.7976 11.6224 15.0293 10.8541 15.0293 9.90292C15.0293 8.9517 15.7976 8.18341 16.7488 8.18341Z" fill="url(#paint1_linear)"/>
    <defs>
        <linearGradient id="paint0_linear" x1="0.0292969" y1="0.500488" x2="32.4194" y2="12.9737" gradientUnits="userSpaceOnUse">
            <stop stop-color="#FF9E18"/>
            <stop offset="1" stop-color="#F8DF8D"/>
        </linearGradient>
        <linearGradient id="paint1_linear" x1="13.7122" y1="6.86633" x2="20.997" y2="9.27512" gradientUnits="userSpaceOnUse">
            <stop stop-color="#FF9E18"/>
            <stop offset="1" stop-color="#F8DF8D"/>
        </linearGradient>
    </defs>
</svg>