<svg width="21" height="25" viewBox="0 0 21 25" fill="none" xmlns="http://www.w3.org/2000/svg">
    <path d="M20.2306 6.12014C20.2306 6.31423 20.3881 6.47169 20.5822 6.47169C20.7764 6.47169 20.9337 6.31423 20.9337 6.12014C20.9337 3.02147 18.4089 0.500488 15.3055 0.500488C13.5488 0.500488 11.9775 1.30853 10.9447 2.57176C10.4871 2.09789 9.81325 1.87761 9.14126 2.01201C8.62527 2.11583 8.1807 2.41374 7.88919 2.851C7.59751 3.28861 7.49406 3.81321 7.59769 4.32883C7.63523 4.51504 7.69913 4.69266 7.78611 4.85763C5.02691 5.6448 3.07575 8.18793 3.07575 11.098C3.07575 11.2921 3.23322 11.4496 3.42731 11.4496C3.62159 11.4496 3.77887 11.2921 3.77887 11.098C3.77887 8.34229 5.7412 5.95516 8.44455 5.42141L8.44565 5.42123C8.81625 5.34835 9.19637 5.31155 9.5754 5.31155C9.62887 5.31155 9.68233 5.31246 9.73562 5.31393C9.69753 5.57723 9.67739 5.84639 9.67739 6.12014C9.67739 9.21881 12.2022 11.7398 15.3055 11.7398C15.3276 11.7398 15.3496 11.7387 15.3717 11.7385V13.4384C15.3717 14.8104 15.9773 16.1015 17.033 16.9806L17.456 17.3327C17.8817 17.687 18.126 18.2076 18.126 18.7605V18.7825C18.126 19.7943 17.3013 20.6174 16.2876 20.6174H2.7707C1.75704 20.6174 0.932337 19.7943 0.932337 18.7825C0.932337 18.5062 0.995325 18.229 1.11434 17.9809C1.23373 17.7319 1.41042 17.5088 1.62557 17.3356L2.05953 16.9857C3.15229 16.1061 3.77887 14.7974 3.77887 13.3958V12.6251C3.77887 12.431 3.62159 12.2735 3.42731 12.2735C3.23322 12.2735 3.07575 12.431 3.07575 12.6251V13.3958C3.07575 14.5836 2.54475 15.6924 1.61843 16.4382L1.18447 16.7881C0.888392 17.0264 0.644681 17.3338 0.480436 17.6767C0.316009 18.0192 0.229218 18.4017 0.229218 18.7825C0.229218 20.182 1.36941 21.3205 2.77089 21.3205H6.45109C6.45 21.3553 6.4489 21.3899 6.4489 21.4245C6.4489 23.1206 7.83078 24.5005 9.52926 24.5005C11.2277 24.5005 12.6094 23.1206 12.6094 21.4245C12.6094 21.3899 12.6085 21.3553 12.6072 21.3205H16.2878C17.6891 21.3205 18.8293 20.182 18.8293 18.7825V18.7605C18.8293 17.9979 18.4928 17.2807 17.9061 16.7924L17.4831 16.4402C16.5883 15.6952 16.075 14.6011 16.075 13.4384V11.687C17.0307 11.5578 17.9297 11.1877 18.7088 10.5963C19.6622 9.87267 20.3719 8.84527 20.7072 7.70344C20.762 7.51722 20.6552 7.32185 20.469 7.2671C20.2826 7.21235 20.0872 7.3191 20.0327 7.50532C19.7395 8.50397 19.1182 9.40264 18.2836 10.0362C17.4216 10.6906 16.3918 11.0365 15.3056 11.0365C12.5898 11.0365 10.3805 8.83099 10.3805 6.11995C10.3805 3.4091 12.5898 1.20361 15.3055 1.20361C18.0213 1.20361 20.2306 3.4091 20.2306 6.12014ZM11.9063 21.4245C11.9063 22.7328 10.8399 23.7972 9.52926 23.7972C8.21841 23.7972 7.15202 22.7328 7.15202 21.4245C7.15202 21.3899 7.15293 21.3551 7.1544 21.3205H11.9039C11.9056 21.3551 11.9063 21.3899 11.9063 21.4245ZM9.5754 4.60843C9.21963 4.60843 8.86331 4.63791 8.51266 4.69522C8.40152 4.54672 8.32425 4.37479 8.28708 4.19004C8.22043 3.85898 8.28708 3.52207 8.47421 3.24101C8.66171 2.95976 8.94772 2.76805 9.2795 2.7014C9.75539 2.606 10.2333 2.78728 10.5246 3.15824C10.2454 3.60612 10.0273 4.09574 9.88247 4.61557C9.78084 4.61081 9.67812 4.60843 9.5754 4.60843Z" fill="url(#paint0_linear)"/>
    <path d="M15.3053 8.56443C15.4996 8.56443 15.6568 8.40715 15.6568 8.21287V3.83266C15.6568 3.69331 15.5748 3.56734 15.4474 3.51094C15.3201 3.45473 15.1716 3.4789 15.0687 3.57265L14.3147 4.25911C14.1711 4.38984 14.1607 4.61213 14.2912 4.75568C14.422 4.89924 14.6443 4.90967 14.788 4.77894L14.9537 4.62806V8.21287C14.9537 8.40715 15.1112 8.56443 15.3053 8.56443Z" fill="url(#paint1_linear)"/>
    <defs>
        <linearGradient id="paint0_linear" x1="0.229218" y1="0.500488" x2="25.7067" y2="7.76804" gradientUnits="userSpaceOnUse">
            <stop stop-color="#FF9E18"/>
            <stop offset="1" stop-color="#F8DF8D"/>
        </linearGradient>
        <linearGradient id="paint1_linear" x1="14.1998" y1="3.48098" x2="16.1214" y2="3.6631" gradientUnits="userSpaceOnUse">
            <stop stop-color="#FF9E18"/>
            <stop offset="1" stop-color="#F8DF8D"/>
        </linearGradient>
    </defs>
</svg>
