<svg width="29" height="25" viewBox="0 0 29 25" fill="none" xmlns="http://www.w3.org/2000/svg">
    <path d="M28.7027 10.9821C28.7393 10.8357 28.7393 10.6528 28.6661 10.5064C28.5198 8.75035 28.1905 7.32352 27.7149 6.6284L27.6417 6.48205L27.4954 6.40889C26.5442 5.8601 25.41 5.38449 24.1295 4.98206C21.9344 2.23815 18.5686 0.482056 14.7637 0.482056C10.9954 0.482056 7.59296 2.23815 5.39784 4.98206C4.11735 5.38449 2.98321 5.8601 2.03199 6.40889L1.88565 6.48205L1.81248 6.6284C1.19052 7.6162 0.788086 9.84791 0.788086 12.4821C0.788086 15.1162 1.19052 17.3479 1.81248 18.3357L1.88565 18.4821L2.03199 18.5552C2.98321 19.104 4.11735 19.5796 5.39784 19.9821C7.59296 22.726 10.9588 24.4821 14.7637 24.4821C18.532 24.4821 21.9344 22.726 24.1295 19.9821C25.41 19.5796 26.5442 19.104 27.4954 18.5552L27.6417 18.4821L27.7149 18.3357C28.3369 17.3479 28.7393 15.1162 28.7393 12.4821C28.7393 11.9699 28.7027 11.4577 28.7027 10.9821ZM14.7637 19.9455C10.0076 19.9455 5.58077 19.0308 2.83687 17.4942C2.61735 17.0552 2.39784 16.2138 2.2515 15.043C3.12955 15.9211 4.30028 16.4699 5.69052 16.6162C5.91004 16.6528 6.12955 16.6528 6.34906 16.6528C8.39784 16.6528 10.8856 15.665 12.6052 12.9577C13.3369 14.0552 14.7271 15.665 16.6661 15.9942C18.2759 16.2869 19.9588 15.6284 21.6052 14.0918C22.3734 14.604 23.8734 15.4089 25.4466 14.9699C26.1783 14.7503 26.8369 14.3113 27.3856 13.6162C27.2759 15.5186 26.9832 16.9089 26.6539 17.4942C23.9466 19.0308 19.5198 19.9455 14.7637 19.9455ZM14.7637 5.01864C19.5198 5.01864 23.9466 5.93327 26.6905 7.46986C26.9832 8.01864 27.2759 9.18937 27.3856 10.8357C26.8369 12.4821 26.0686 13.4699 25.1539 13.726C23.6539 14.165 22.0442 12.7747 22.0442 12.7382L21.5686 12.3357L21.1295 12.7747C19.6661 14.2747 18.2393 14.9333 16.9222 14.7138C14.6174 14.3479 13.2271 11.3845 13.1905 11.3845L12.6052 10.1406L12.0198 11.3845C10.4466 14.6406 7.77589 15.5552 5.83687 15.3357C3.97101 15.1528 2.54418 13.9455 2.10516 12.2625C2.14174 9.88449 2.5076 8.16498 2.83687 7.50645C5.58077 5.93328 10.0076 5.01864 14.7637 5.01864ZM14.7637 1.79913C17.4344 1.79913 19.8491 2.78693 21.7149 4.39669C19.593 3.95766 17.2149 3.70157 14.7637 3.70157C12.3125 3.70157 9.93443 3.95766 7.81248 4.39669C9.67833 2.78693 12.093 1.79913 14.7637 1.79913ZM14.7637 23.165C12.093 23.165 9.67833 22.1772 7.81248 20.5674C9.93443 21.0064 12.3125 21.2625 14.7637 21.2625C17.2149 21.2625 19.593 21.0064 21.7149 20.5674C19.8491 22.1772 17.4344 23.165 14.7637 23.165Z" fill="#828282"/>
    <path d="M17.5078 12.9211C19.1907 12.9211 20.5444 11.5674 20.5444 9.88449C20.5444 8.20156 19.1907 6.8479 17.5078 6.8479C15.8248 6.8479 14.4712 8.20156 14.4712 9.88449C14.4712 11.5674 15.8248 12.9211 17.5078 12.9211ZM17.5078 8.16497C18.459 8.16497 19.2273 8.93327 19.2273 9.88449C19.2273 10.8357 18.459 11.604 17.5078 11.604C16.5566 11.604 15.7883 10.8357 15.7883 9.88449C15.7883 8.93327 16.5566 8.16497 17.5078 8.16497Z" fill="#828282"/>
</svg>
