<svg width="25" height="25" viewBox="0 0 25 25" fill="none" xmlns="http://www.w3.org/2000/svg">
    <path d="M3.48178 0.219309C2.90811 0.219309 2.34731 0.389403 1.87031 0.708083C1.39331 1.02676 1.02154 1.47971 0.802002 2.00966C0.582464 2.5396 0.525023 3.12274 0.636942 3.68532C0.748862 4.24791 1.02511 4.76468 1.43077 5.17028C1.83642 5.57588 2.35325 5.8521 2.91591 5.964C3.47857 6.07591 4.06178 6.01847 4.59179 5.79896C5.1218 5.57945 5.57481 5.20773 5.89353 4.73079C6.21225 4.25385 6.38236 3.69313 6.38236 3.11952C6.38157 2.35058 6.07572 1.61336 5.53192 1.06964C4.98813 0.525915 4.25082 0.220103 3.48178 0.219309ZM3.48178 4.81706C3.14528 4.81706 2.81634 4.71725 2.53659 4.53026C2.25684 4.34327 2.03885 4.0775 1.91021 3.76659C1.78157 3.45569 1.74807 3.11361 1.81394 2.78366C1.8798 2.4537 2.04208 2.1507 2.28024 1.913C2.51839 1.67529 2.82172 1.51357 3.15183 1.44829C3.48194 1.38302 3.824 1.41712 4.13472 1.54629C4.44543 1.67546 4.71085 1.89389 4.89737 2.17394C5.08389 2.45398 5.18313 2.78306 5.18254 3.11952C5.18254 3.57053 5.00335 4.00307 4.6844 4.32198C4.36544 4.64089 3.93285 4.82006 3.48178 4.82006V4.81706ZM12.4805 0.219309C11.9068 0.219309 11.346 0.389403 10.869 0.708083C10.392 1.02676 10.0202 1.47971 9.80069 2.00966C9.58115 2.5396 9.52371 3.12274 9.63563 3.68532C9.74755 4.24791 10.0238 4.76468 10.4295 5.17028C10.8351 5.57588 11.3519 5.8521 11.9146 5.964C12.4773 6.07591 13.0605 6.01847 13.5905 5.79896C14.1205 5.57945 14.5735 5.20773 14.8922 4.73079C15.2109 4.25385 15.381 3.69313 15.381 3.11952C15.3803 2.35058 15.0744 1.61336 14.5306 1.06964C13.9868 0.525915 13.2495 0.220103 12.4805 0.219309V0.219309ZM12.4805 4.81706C12.144 4.81706 11.815 4.71725 11.5353 4.53026C11.2555 4.34327 11.0375 4.0775 10.9089 3.76659C10.7803 3.45569 10.7468 3.11361 10.8126 2.78366C10.8785 2.4537 11.0408 2.1507 11.2789 1.913C11.5171 1.67529 11.8204 1.51357 12.1505 1.44829C12.4806 1.38302 12.8227 1.41712 13.1334 1.54629C13.4441 1.67546 13.7095 1.89389 13.8961 2.17394C14.0826 2.45398 14.1818 2.78306 14.1812 3.11952C14.1812 3.57053 14.002 4.00307 13.6831 4.32198C13.3641 4.64089 12.9315 4.82006 12.4805 4.82006V4.81706ZM21.4792 6.01673C22.053 6.01673 22.6139 5.84656 23.0909 5.52775C23.568 5.20894 23.9398 4.75581 24.1592 4.22569C24.3787 3.69557 24.4359 3.11228 24.3238 2.54961C24.2116 1.98695 23.9351 1.47018 23.5291 1.0647C23.1232 0.659219 22.606 0.383238 22.0432 0.271671C21.4803 0.160105 20.897 0.217967 20.3671 0.437937C19.8371 0.657907 19.3843 1.0301 19.066 1.50743C18.7476 1.98476 18.578 2.54578 18.5786 3.11952C18.5794 3.88846 18.8852 4.62568 19.429 5.1694C19.9728 5.71312 20.7101 6.01894 21.4792 6.01973V6.01673ZM21.4792 1.41898C21.8155 1.41898 22.1444 1.51872 22.424 1.70557C22.7037 1.89243 22.9217 2.15802 23.0504 2.46875C23.1792 2.77948 23.2129 3.12141 23.1472 3.45128C23.0816 3.78115 22.9196 4.08416 22.6818 4.32198C22.4439 4.5598 22.1409 4.72177 21.811 4.78738C21.481 4.853 21.1391 4.81932 20.8283 4.69061C20.5175 4.5619 20.2519 4.34394 20.065 4.06429C19.8782 3.78464 19.7784 3.45585 19.7784 3.11952C19.7784 2.66851 19.9576 2.23597 20.2765 1.91706C20.5955 1.59815 21.0281 1.41898 21.4792 1.41898V1.41898ZM3.48178 9.21686C2.90811 9.21686 2.34731 9.38695 1.87031 9.70563C1.39331 10.0243 1.02154 10.4773 0.802002 11.0072C0.582464 11.5372 0.525023 12.1203 0.636942 12.6829C0.748862 13.2455 1.02511 13.7622 1.43077 14.1678C1.83642 14.5734 2.35325 14.8496 2.91591 14.9616C3.47857 15.0735 4.06178 15.016 4.59179 14.7965C5.1218 14.577 5.57481 14.2053 5.89353 13.7283C6.21225 13.2514 6.38236 12.6907 6.38236 12.1171C6.38157 11.3481 6.07572 10.6109 5.53192 10.0672C4.98813 9.52347 4.25082 9.21765 3.48178 9.21686V9.21686ZM3.48178 13.8146C3.14528 13.8146 2.81634 13.7148 2.53659 13.5278C2.25684 13.3408 2.03885 13.0751 1.91021 12.7641C1.78157 12.4532 1.74807 12.1112 1.81394 11.7812C1.8798 11.4513 2.04208 11.1483 2.28024 10.9105C2.51839 10.6728 2.82172 10.5111 3.15183 10.4458C3.48194 10.3806 3.824 10.4147 4.13472 10.5438C4.44543 10.673 4.71085 10.8914 4.89737 11.1715C5.08389 11.4515 5.18313 11.7806 5.18254 12.1171C5.18254 12.5681 5.00335 13.0006 4.6844 13.3195C4.36544 13.6384 3.93285 13.8176 3.48178 13.8176V13.8146ZM12.4805 9.21686C11.9068 9.21686 11.346 9.38695 10.869 9.70563C10.392 10.0243 10.0202 10.4773 9.80069 11.0072C9.58115 11.5372 9.52371 12.1203 9.63563 12.6829C9.74755 13.2455 10.0238 13.7622 10.4295 14.1678C10.8351 14.5734 11.3519 14.8496 11.9146 14.9616C12.4773 15.0735 13.0605 15.016 13.5905 14.7965C14.1205 14.577 14.5735 14.2053 14.8922 13.7283C15.2109 13.2514 15.381 12.6907 15.381 12.1171C15.3803 11.3481 15.0744 10.6109 14.5306 10.0672C13.9868 9.52347 13.2495 9.21765 12.4805 9.21686V9.21686ZM12.4805 13.8146C12.144 13.8146 11.815 13.7148 11.5353 13.5278C11.2555 13.3408 11.0375 13.0751 10.9089 12.7641C10.7803 12.4532 10.7468 12.1112 10.8126 11.7812C10.8785 11.4513 11.0408 11.1483 11.2789 10.9105C11.5171 10.6728 11.8204 10.5111 12.1505 10.4458C12.4806 10.3806 12.8227 10.4147 13.1334 10.5438C13.4441 10.673 13.7095 10.8914 13.8961 11.1715C14.0826 11.4515 14.1818 11.7806 14.1812 12.1171C14.1812 12.5681 14.002 13.0006 13.6831 13.3195C13.3641 13.6384 12.9315 13.8176 12.4805 13.8176V13.8146ZM21.4792 9.21686C20.9055 9.21686 20.3447 9.38695 19.8677 9.70563C19.3907 10.0243 19.0189 10.4773 18.7994 11.0072C18.5798 11.5372 18.5224 12.1203 18.6343 12.6829C18.7462 13.2455 19.0225 13.7622 19.4281 14.1678C19.8338 14.5734 20.3506 14.8496 20.9133 14.9616C21.4759 15.0735 22.0591 15.016 22.5892 14.7965C23.1192 14.577 23.5722 14.2053 23.8909 13.7283C24.2096 13.2514 24.3797 12.6907 24.3797 12.1171C24.3789 11.3481 24.0731 10.6109 23.5293 10.0672C22.9855 9.52347 22.2482 9.21765 21.4792 9.21686V9.21686ZM21.4792 13.8146C21.1427 13.8146 20.8137 13.7148 20.534 13.5278C20.2542 13.3408 20.0362 13.0751 19.9076 12.7641C19.7789 12.4532 19.7454 12.1112 19.8113 11.7812C19.8772 11.4513 20.0395 11.1483 20.2776 10.9105C20.5158 10.6728 20.8191 10.5111 21.1492 10.4458C21.4793 10.3806 21.8214 10.4147 22.1321 10.5438C22.4428 10.673 22.7082 10.8914 22.8947 11.1715C23.0813 11.4515 23.1805 11.7806 23.1799 12.1171C23.1799 12.5681 23.0007 13.0006 22.6818 13.3195C22.3628 13.6384 21.9302 13.8176 21.4792 13.8176V13.8146ZM3.48178 18.2144C2.90811 18.2144 2.34731 18.3845 1.87031 18.7032C1.39331 19.0219 1.02154 19.4748 0.802002 20.0048C0.582464 20.5347 0.525023 21.1178 0.636942 21.6804C0.748862 22.243 1.02511 22.7598 1.43077 23.1654C1.83642 23.571 2.35325 23.8472 2.91591 23.9591C3.47857 24.071 4.06178 24.0136 4.59179 23.7941C5.1218 23.5746 5.57481 23.2028 5.89353 22.7259C6.21225 22.249 6.38236 21.6882 6.38236 21.1146C6.38157 20.3457 6.07572 19.6085 5.53192 19.0647C4.98813 18.521 4.25082 18.2152 3.48178 18.2144ZM3.48178 22.8122C3.14528 22.8122 2.81634 22.7123 2.53659 22.5254C2.25684 22.3384 2.03885 22.0726 1.91021 21.7617C1.78157 21.4508 1.74807 21.1087 1.81394 20.7788C1.8798 20.4488 2.04208 20.1458 2.28024 19.9081C2.51839 19.6704 2.82172 19.5087 3.15183 19.4434C3.48194 19.3781 3.824 19.4122 4.13472 19.5414C4.44543 19.6706 4.71085 19.889 4.89737 20.169C5.08389 20.4491 5.18313 20.7782 5.18254 21.1146C5.18254 21.5656 5.00335 21.9982 4.6844 22.3171C4.36544 22.636 3.93285 22.8152 3.48178 22.8152V22.8122ZM12.4805 18.2144C11.9068 18.2144 11.346 18.3845 10.869 18.7032C10.392 19.0219 10.0202 19.4748 9.80069 20.0048C9.58115 20.5347 9.52371 21.1178 9.63563 21.6804C9.74755 22.243 10.0238 22.7598 10.4295 23.1654C10.8351 23.571 11.3519 23.8472 11.9146 23.9591C12.4773 24.071 13.0605 24.0136 13.5905 23.7941C14.1205 23.5746 14.5735 23.2028 14.8922 22.7259C15.2109 22.249 15.381 21.6882 15.381 21.1146C15.3803 20.3457 15.0744 19.6085 14.5306 19.0647C13.9868 18.521 13.2495 18.2152 12.4805 18.2144ZM12.4805 22.8122C12.144 22.8122 11.815 22.7123 11.5353 22.5254C11.2555 22.3384 11.0375 22.0726 10.9089 21.7617C10.7803 21.4508 10.7468 21.1087 10.8126 20.7788C10.8785 20.4488 11.0408 20.1458 11.2789 19.9081C11.5171 19.6704 11.8204 19.5087 12.1505 19.4434C12.4806 19.3781 12.8227 19.4122 13.1334 19.5414C13.4441 19.6706 13.7095 19.889 13.8961 20.169C14.0826 20.4491 14.1818 20.7782 14.1812 21.1146C14.1812 21.5656 14.002 21.9982 13.6831 22.3171C13.3641 22.636 12.9315 22.8152 12.4805 22.8152V22.8122ZM21.4792 18.2144C20.9055 18.2144 20.3447 18.3845 19.8677 18.7032C19.3907 19.0219 19.0189 19.4748 18.7994 20.0048C18.5798 20.5347 18.5224 21.1178 18.6343 21.6804C18.7462 22.243 19.0225 22.7598 19.4281 23.1654C19.8338 23.571 20.3506 23.8472 20.9133 23.9591C21.4759 24.071 22.0591 24.0136 22.5892 23.7941C23.1192 23.5746 23.5722 23.2028 23.8909 22.7259C24.2096 22.249 24.3797 21.6882 24.3797 21.1146C24.3789 20.3457 24.0731 19.6085 23.5293 19.0647C22.9855 18.521 22.2482 18.2152 21.4792 18.2144ZM21.4792 22.8122C21.1427 22.8122 20.8137 22.7123 20.534 22.5254C20.2542 22.3384 20.0362 22.0726 19.9076 21.7617C19.7789 21.4508 19.7454 21.1087 19.8113 20.7788C19.8772 20.4488 20.0395 20.1458 20.2776 19.9081C20.5158 19.6704 20.8191 19.5087 21.1492 19.4434C21.4793 19.3781 21.8214 19.4122 22.1321 19.5414C22.4428 19.6706 22.7082 19.889 22.8947 20.169C23.0813 20.4491 23.1805 20.7782 23.1799 21.1146C23.1799 21.5656 23.0007 21.9982 22.6818 22.3171C22.3628 22.636 21.9302 22.8152 21.4792 22.8152V22.8122Z" fill="#828282"/>
</svg>