<svg width="29" height="25" viewBox="0 0 29 25" fill="none" xmlns="http://www.w3.org/2000/svg">
    <path d="M28.7027 11.3531C28.7393 11.2068 28.7393 11.0239 28.6661 10.8775C28.5198 9.12144 28.1905 7.69461 27.7149 6.99949L27.6417 6.85315L27.4954 6.77998C26.5442 6.2312 25.41 5.75559 24.1295 5.35315C21.9344 2.60925 18.5686 0.853149 14.7637 0.853149C10.9954 0.853149 7.59296 2.60925 5.39784 5.35315C4.11735 5.75559 2.98321 6.2312 2.03199 6.77998L1.88565 6.85315L1.81248 6.99949C1.19052 7.9873 0.788086 10.219 0.788086 12.8531C0.788086 15.4873 1.19052 17.719 1.81248 18.7068L1.88565 18.8531L2.03199 18.9263C2.98321 19.4751 4.11735 19.9507 5.39784 20.3531C7.59296 23.097 10.9588 24.8531 14.7637 24.8531C18.532 24.8531 21.9344 23.097 24.1295 20.3531C25.41 19.9507 26.5442 19.4751 27.4954 18.9263L27.6417 18.8531L27.7149 18.7068C28.3369 17.719 28.7393 15.4873 28.7393 12.8531C28.7393 12.341 28.7027 11.8288 28.7027 11.3531ZM14.7637 20.3166C10.0076 20.3166 5.58077 19.4019 2.83687 17.8653C2.61735 17.4263 2.39784 16.5849 2.2515 15.4141C3.12955 16.2922 4.30028 16.841 5.69052 16.9873C5.91004 17.0239 6.12955 17.0239 6.34906 17.0239C8.39784 17.0239 10.8856 16.0361 12.6052 13.3288C13.3369 14.4263 14.7271 16.0361 16.6661 16.3653C18.2759 16.658 19.9588 15.9995 21.6052 14.4629C22.3734 14.9751 23.8734 15.78 25.4466 15.341C26.1783 15.1214 26.8369 14.6824 27.3856 13.9873C27.2759 15.8897 26.9832 17.28 26.6539 17.8653C23.9466 19.4019 19.5198 20.3166 14.7637 20.3166ZM14.7637 5.38973C19.5198 5.38973 23.9466 6.30437 26.6905 7.84095C26.9832 8.38973 27.2759 9.56047 27.3856 11.2068C26.8369 12.8531 26.0686 13.841 25.1539 14.0971C23.6539 14.5361 22.0442 13.1458 22.0442 13.1092L21.5686 12.7068L21.1295 13.1458C19.6661 14.6458 18.2393 15.3044 16.9222 15.0849C14.6174 14.719 13.2271 11.7556 13.1905 11.7556L12.6052 10.5117L12.0198 11.7556C10.4466 15.0117 7.77589 15.9263 5.83687 15.7068C3.97101 15.5239 2.54418 14.3166 2.10516 12.6336C2.14174 10.2556 2.5076 8.53608 2.83687 7.87754C5.58077 6.30437 10.0076 5.38973 14.7637 5.38973ZM14.7637 2.17022C17.4344 2.17022 19.8491 3.15803 21.7149 4.76778C19.593 4.32876 17.2149 4.07266 14.7637 4.07266C12.3125 4.07266 9.93443 4.32876 7.81248 4.76778C9.67833 3.15803 12.093 2.17022 14.7637 2.17022ZM14.7637 23.5361C12.093 23.5361 9.67833 22.5483 7.81248 20.9385C9.93443 21.3775 12.3125 21.6336 14.7637 21.6336C17.2149 21.6336 19.593 21.3775 21.7149 20.9385C19.8491 22.5483 17.4344 23.5361 14.7637 23.5361Z" fill="url(#paint0_linear)"/>
    <path d="M17.5078 13.2922C19.1907 13.2922 20.5444 11.9385 20.5444 10.2556C20.5444 8.57265 19.1907 7.21899 17.5078 7.21899C15.8248 7.21899 14.4712 8.57265 14.4712 10.2556C14.4712 11.9385 15.8248 13.2922 17.5078 13.2922ZM17.5078 8.53607C18.459 8.53607 19.2273 9.30436 19.2273 10.2556C19.2273 11.2068 18.459 11.9751 17.5078 11.9751C16.5566 11.9751 15.7883 11.2068 15.7883 10.2556C15.7883 9.30436 16.5566 8.53607 17.5078 8.53607Z" fill="url(#paint1_linear)"/>
    <defs>
        <linearGradient id="paint0_linear" x1="0.788086" y1="0.853149" x2="33.1782" y2="13.3264" gradientUnits="userSpaceOnUse">
            <stop stop-color="#FF9E18"/>
            <stop offset="1" stop-color="#F8DF8D"/>
        </linearGradient>
        <linearGradient id="paint1_linear" x1="14.4712" y1="7.21899" x2="21.756" y2="9.62778" gradientUnits="userSpaceOnUse">
            <stop stop-color="#FF9E18"/>
            <stop offset="1" stop-color="#F8DF8D"/>
        </linearGradient>
    </defs>
</svg>
