<svg width="22" height="25" viewBox="0 0 22 25" fill="none" xmlns="http://www.w3.org/2000/svg">
    <path d="M15.4327 1.55781C17.9827 1.55781 20.0527 3.62781 20.0527 6.17781C20.0527 6.53781 20.3427 6.82781 20.7027 6.82781C21.0627 6.82781 21.3527 6.53781 21.3527 6.17781C21.3527 2.90781 18.6927 0.257812 15.4327 0.257812C13.6927 0.257812 12.1327 1.00781 11.0427 2.19781C10.5327 1.80781 9.87273 1.63781 9.21273 1.76781C8.61273 1.89781 8.10273 2.23781 7.76273 2.73781C7.42273 3.23781 7.30273 3.84781 7.42273 4.43781C7.44273 4.53781 7.46273 4.62781 7.50273 4.71781C4.79273 5.63781 2.90273 8.21781 2.90273 11.1478C2.90273 11.5078 3.19273 11.7978 3.55273 11.7978C3.91273 11.7978 4.20273 11.5078 4.20273 11.1478C4.20273 8.53781 6.05273 6.27781 8.61273 5.76781H8.63273C8.92273 5.70781 9.22273 5.67781 9.53273 5.66781C9.51273 5.83781 9.50273 6.00781 9.50273 6.17781C9.50273 9.36781 12.0327 11.9678 15.1927 12.0978V13.4978C15.1927 14.9578 15.8427 16.3378 16.9627 17.2678L17.3827 17.6178C17.7427 17.9178 17.9427 18.3478 17.9427 18.8178V18.8378C17.9427 19.6878 17.2527 20.3678 16.4027 20.3678H2.89273C2.04273 20.3678 1.35273 19.6778 1.35273 18.8378C1.35273 18.6078 1.40273 18.3778 1.50273 18.1678C1.60273 17.9578 1.75273 17.7678 1.93273 17.6278L2.36273 17.2778C3.52273 16.3378 4.19273 14.9478 4.19273 13.4578V12.6878C4.19273 12.3278 3.90273 12.0378 3.54273 12.0378C3.18273 12.0378 2.89273 12.3278 2.89273 12.6878V13.4578C2.89273 14.5578 2.40273 15.5778 1.54273 16.2678L1.11273 16.6178C0.782734 16.8878 0.512734 17.2278 0.322734 17.6078C0.152734 17.9878 0.0527344 18.4178 0.0527344 18.8378C0.0527344 20.4078 1.32273 21.6778 2.89273 21.6778H6.27273C6.37273 23.4478 7.85273 24.8578 9.64273 24.8578C11.4327 24.8578 12.9127 23.4478 13.0127 21.6778H16.3927C17.9627 21.6778 19.2327 20.4078 19.2327 18.8378V18.8178C19.2327 17.9678 18.8527 17.1678 18.2027 16.6178L17.7827 16.2678C16.9527 15.5778 16.4827 14.5678 16.4827 13.4978V11.9978C17.3927 11.8378 18.2527 11.4578 19.0027 10.8878C20.0027 10.1278 20.7527 9.04781 21.1027 7.83781C21.2027 7.48781 21.0027 7.12781 20.6627 7.02781C20.3127 6.92781 19.9527 7.12781 19.8527 7.46781C19.5927 8.41781 19.0127 9.25781 18.2227 9.85781C17.4127 10.4678 16.4427 10.7978 15.4227 10.7978C12.8727 10.7978 10.7927 8.72781 10.7927 6.17781C10.8027 3.62781 12.8827 1.55781 15.4327 1.55781ZM9.65273 23.5578C8.57273 23.5578 7.68273 22.7278 7.58273 21.6778H11.7227C11.6227 22.7278 10.7327 23.5578 9.65273 23.5578ZM9.78273 4.36781C9.75273 4.36781 9.72273 4.36781 9.69273 4.36781C9.38273 4.36781 9.08273 4.38781 8.78273 4.42781C8.75273 4.34781 8.72273 4.26781 8.70273 4.18781C8.65273 3.93781 8.70273 3.67781 8.84273 3.46781C8.99273 3.24781 9.21273 3.10781 9.46273 3.05781C9.76273 2.99781 10.0527 3.07781 10.2727 3.25781C10.0727 3.60781 9.91273 3.97781 9.78273 4.36781Z" fill="url(#paint0_linear)"/>
    <defs>
        <linearGradient id="paint0_linear" x1="0.0527344" y1="0.257813" x2="26.2485" y2="7.75769" gradientUnits="userSpaceOnUse">
            <stop stop-color="#FF9E18"/>
            <stop offset="1" stop-color="#F8DF8D"/>
        </linearGradient>
    </defs>
</svg>
