<svg width="24" height="25" viewBox="0 0 24 25" fill="none" xmlns="http://www.w3.org/2000/svg">
    <path d="M5.58602 0.0151367C5.19652 0.0151367 4.88117 0.330482 4.88117 0.719983V1.67997H4.59006C2.59189 1.67997 0.965973 3.30589 0.965973 5.30442V20.3911C0.965973 22.3896 2.59189 24.0151 4.59006 24.0151H19.6741C21.6723 24.0151 23.2982 22.3896 23.2982 20.3911V17.0063C23.2982 16.6172 22.9825 16.3015 22.5934 16.3015C22.2039 16.3015 21.8885 16.6172 21.8885 17.0063V20.3911C21.8885 21.6121 20.8951 22.6054 19.6741 22.6054H4.59006C3.36906 22.6054 2.37566 21.6121 2.37566 20.3911V8.19172H21.8881V13.3132C21.8881 13.7024 22.2039 14.0181 22.593 14.0181C22.9825 14.0181 23.2978 13.7024 23.2978 13.3132V5.30442C23.2978 3.30589 21.6723 1.67997 19.6741 1.67997H19.383V0.719983C19.383 0.330482 19.0677 0.0151367 18.6782 0.0151367C18.289 0.0151367 17.9733 0.330482 17.9733 0.719983V1.67997H6.29086V0.719983C6.29086 0.330482 5.97515 0.0151367 5.58602 0.0151367V0.0151367ZM17.9733 3.08966V3.90647C17.9733 4.29561 18.289 4.61132 18.6782 4.61132C19.0677 4.61132 19.383 4.29561 19.383 3.90647V3.08966H19.6741C20.8951 3.08966 21.8885 4.08305 21.8885 5.30442V6.78202H2.37603V5.30442C2.37603 4.08305 3.36906 3.08966 4.59006 3.08966H4.88117V3.90647C4.88117 4.29561 5.19688 4.61132 5.58602 4.61132C5.97515 4.61132 6.29086 4.29561 6.29086 3.90647V3.08966H17.9733Z" fill="#828282"/>
    <path d="M15.3256 11.5167L10.8336 16.0097L8.939 14.1147C8.66367 13.8393 8.21763 13.8393 7.9423 14.1147C7.66697 14.39 7.66697 14.836 7.9423 15.1114L10.3351 17.5045C10.4673 17.6371 10.6464 17.7112 10.8336 17.7112C11.0205 17.7112 11.1996 17.6367 11.3322 17.5045L16.3226 12.5134C16.598 12.238 16.5976 11.7916 16.3226 11.5167C16.0469 11.2417 15.6009 11.2417 15.3256 11.5167V11.5167Z" fill="#828282"/>
</svg>
