<svg width="25" height="25" viewBox="0 0 25 25" fill="none" xmlns="http://www.w3.org/2000/svg">
    <path d="M12.5449 0.658569C5.928 0.658569 0.544434 6.04213 0.544434 12.659C0.544434 16.4853 2.34433 19.8993 5.14256 22.0978C5.16292 22.1173 5.18497 22.1369 5.20787 22.1547C7.15535 23.6619 9.45823 24.5144 11.9019 24.6416C11.9197 24.6425 11.9367 24.6433 11.9545 24.6441C12.0317 24.6475 12.1097 24.6509 12.1878 24.6535C12.2107 24.6543 12.2336 24.6552 12.2565 24.6552C12.3523 24.6577 12.4482 24.6586 12.5449 24.6586C12.6416 24.6586 12.7382 24.6569 12.8349 24.6552C12.857 24.6543 12.879 24.6535 12.9011 24.6535C12.9808 24.6509 13.0606 24.6484 13.1395 24.6441C13.1547 24.6433 13.17 24.6425 13.1853 24.6416C15.6696 24.5127 18.0031 23.6373 19.9684 22.0877C19.9955 22.0664 20.0209 22.0435 20.0447 22.019C22.7861 19.8179 24.5453 16.4394 24.5453 12.6581C24.5453 6.04214 19.1617 0.658569 12.5449 0.658569ZM13.6467 22.9036C13.5941 22.9096 13.5415 22.9138 13.4889 22.9189C13.4304 22.924 13.3719 22.9299 13.3133 22.9342C13.2115 22.9418 13.1098 22.9477 13.0071 22.952C12.9724 22.9537 12.9367 22.9545 12.902 22.9562C12.7832 22.9605 12.6645 22.963 12.5449 22.963C12.427 22.963 12.3091 22.9605 12.192 22.9562C12.1572 22.9554 12.1225 22.9537 12.0885 22.952C11.991 22.9477 11.8934 22.9418 11.7967 22.935C11.7399 22.9308 11.6839 22.9257 11.6279 22.9214C11.5669 22.9164 11.5067 22.9104 11.4456 22.9036C11.3777 22.896 11.3099 22.8892 11.2429 22.8807C11.231 22.879 11.2191 22.8773 11.2072 22.8756C9.49725 22.6526 7.91789 22.0096 6.57603 21.0528V19.5167C6.57603 17.4955 7.57946 15.7058 9.11386 14.6158C10.0723 15.3648 11.2776 15.8135 12.5856 15.8135C13.8935 15.8135 15.0988 15.3656 16.0573 14.6158C17.5917 15.7058 18.5951 17.4955 18.5951 19.5167V20.9935C17.1752 22.0274 15.4822 22.7077 13.6467 22.9036ZM20.2907 19.4463C20.2686 16.9696 19.0718 14.7685 17.232 13.3732C17.864 12.4605 18.2355 11.3553 18.2355 10.1636C18.2355 9.88366 18.2151 9.60121 18.1736 9.32554C18.1048 8.86242 17.6731 8.54265 17.21 8.61135C16.7469 8.68006 16.4271 9.11179 16.4958 9.57491C16.5246 9.76831 16.5391 9.96594 16.5391 10.1636C16.5391 11.0372 16.2532 11.8456 15.7714 12.5012C15.3804 13.0331 14.8596 13.4631 14.2565 13.7455C13.7485 13.9839 13.1819 14.1179 12.5847 14.1179C11.9876 14.1179 11.421 13.9839 10.9129 13.7455C10.3098 13.4631 9.78903 13.0322 9.39801 12.5012C8.91623 11.8464 8.63038 11.0381 8.63038 10.1636C8.63038 7.98368 10.404 6.21008 12.5839 6.21008C12.8841 6.21008 13.1827 6.24401 13.4719 6.31017C13.9291 6.41535 14.3838 6.1295 14.4881 5.67317C14.5924 5.21683 14.3074 4.76134 13.8511 4.65701C13.4372 4.56201 13.0114 4.51452 12.5839 4.51452C9.46841 4.51452 6.93397 7.04896 6.93397 10.1644C6.93397 11.3561 7.30549 12.4614 7.9374 13.374C6.07983 14.7821 4.87792 17.012 4.87792 19.5176V19.5362C3.24003 17.7109 2.24085 15.2995 2.24085 12.659C2.24085 6.97686 6.86272 2.35498 12.5449 2.35498C18.2261 2.35498 22.8489 6.97686 22.8489 12.659C22.8489 15.2562 21.8819 17.632 20.2907 19.4463Z" fill="url(#paint0_linear)"/>
    <defs>
        <linearGradient id="paint0_linear" x1="0.544434" y1="0.658569" x2="29.3335" y2="10.1782" gradientUnits="userSpaceOnUse">
            <stop stop-color="#FF9E18"/>
            <stop offset="1" stop-color="#F8DF8D"/>
        </linearGradient>
    </defs>
</svg>