<svg width="876" height="1008" viewBox="0 0 876 1008" fill="none" xmlns="http://www.w3.org/2000/svg">
<path d="M364.988 851.902C372.212 829.815 396.492 615.813 396.492 615.813C396.492 615.813 361.992 847.504 354.647 849.041C340.218 849.794 325.885 846.299 313.421 838.991L293.354 892.994C293.354 892.994 303.498 896.368 325.577 905.053L364.988 851.902Z" fill="#EE7623"/>
<path d="M394.328 844.387C387.368 863.114 379.122 881.338 369.649 898.929C366.812 905.157 361.895 910.204 355.742 913.202C349.59 916.201 342.585 916.963 335.932 915.359C313.845 908.135 291.07 899.139 291.07 899.139L313.423 838.985C331.914 845.016 351.4 847.4 370.799 846.002C374.177 844.769 377.241 842.803 379.768 840.245C382.296 837.688 384.226 834.602 385.42 831.209C392.66 809.09 416.547 622.27 416.547 622.27C416.547 622.27 403.013 822.275 394.328 844.387Z" fill="#FFB548"/>
<path d="M265.936 815.095C274.888 793.65 396.247 615.722 396.247 615.722C396.247 615.722 271.077 813.721 275.636 819.681C286.072 829.673 299.209 836.387 313.421 838.991L293.354 892.994C293.354 892.994 283.468 888.925 261.075 881.084L265.936 815.095Z" fill="#EE7623"/>
<path d="M248.623 790.244C241.664 808.972 236.009 828.158 231.697 847.666C229.777 854.236 230.206 861.269 232.907 867.558C235.609 873.846 240.416 878.998 246.502 882.128C267.947 891.08 291.07 899.139 291.07 899.139L313.423 838.985C295.48 831.478 279.167 820.558 265.387 806.832C263.634 803.692 262.598 800.202 262.354 796.615C262.11 793.027 262.663 789.429 263.975 786.081C272.936 764.601 376.842 607.515 376.842 607.515C376.842 607.515 256.485 767.826 248.623 790.244Z" fill="#FF9E18"/>
<path d="M574.184 104.741C688.418 146.099 732.617 309.001 676.626 470.178C675.187 474.58 673.743 477.507 672.304 481.892C670.844 484.82 670.865 486.294 669.421 489.221C649.062 533.685 622.49 575.075 590.46 612.218C529.597 671.515 460.953 722.618 386.276 764.228C378.473 767.949 371.033 772.347 364.045 777.37C355.389 781.917 345.21 782.943 335.672 780.23C348.143 785.134 361.886 785.689 374.576 781.802C383.499 778.893 393.924 775.988 404.328 771.609C477.226 746.852 588.711 701.674 668.597 641.743C707.494 609.563 739.011 569.692 761.149 524.66C762.609 521.732 762.588 520.259 764.032 517.331C765.471 512.929 766.915 510.002 768.354 505.617C782.29 467.232 788.322 426.401 786.102 385.463C783.882 344.524 773.455 304.283 755.417 267.044C737.38 229.805 712.088 196.3 680.988 168.45C649.889 140.599 613.595 118.949 574.184 104.741Z" fill="#F8DF8D"/>
<path d="M595.585 112.694C482.064 69.4193 342.212 163.929 279.365 322.558C277.58 326.831 276.762 329.991 274.988 334.252C274.182 337.423 273.204 338.525 272.385 341.685C258.769 388.655 251.864 437.353 251.867 486.399C259.239 571.052 277.854 654.58 307.239 734.858C310.719 742.772 313.481 750.961 315.493 759.329C319.08 768.425 326.118 775.849 335.113 780.023C322.467 775.593 311.696 767.039 304.624 755.808C299.765 747.779 293.767 738.77 288.747 728.66C249.705 662.307 194.776 555.29 173.41 457.734C164.966 407.963 167.133 357.186 179.774 308.624C180.58 305.453 181.558 304.351 182.377 301.191C184.161 296.918 184.98 293.758 186.753 289.497C201.264 251.326 223.36 216.465 251.775 186.91C280.19 157.355 314.365 133.688 352.343 117.264C390.321 100.84 431.356 91.982 473.095 91.1978C514.835 90.4137 556.46 97.7186 595.585 112.694Z" fill="#FF9E18"/>
<path d="M305.617 735.731C275.219 656.435 256.346 573.25 249.572 488.701C248.851 439.696 255.324 390.872 268.787 343.777C269.558 340.595 270.512 339.475 271.296 336.303C273.021 332 273.805 328.829 275.52 324.538C335.138 163.926 473.936 66.635 584.906 108.711L543.61 219.842C504.221 205.738 461.453 207.878 423.581 225.422C385.708 242.966 356.356 274.709 341.895 313.759C327.434 352.809 329.032 396.014 346.343 433.994C363.654 471.974 394.351 501.318 433.425 516.271L335.377 780.131C330.811 778.44 326.688 775.734 323.324 772.22C319.959 768.707 317.22 764.605 315.739 759.981C310.808 752.655 307.517 744.349 305.606 735.744" fill="#FFB548"/>
<path d="M386.967 765.961C461.771 725.757 530.386 675.081 590.728 615.473C623.275 578.83 650.256 537.627 670.814 493.168C672.308 490.255 672.316 488.783 673.794 485.869C675.297 481.484 676.775 478.57 678.278 474.201C738.01 313.631 696.425 149.311 584.906 108.711L543.61 219.842C582.651 234.882 613.644 264.431 630.87 302.449C648.095 340.468 649.597 383.676 635.048 422.693C620.5 461.711 591.075 493.388 553.164 510.848C515.252 528.307 472.841 530.485 433.484 516.293L335.435 780.153C339.997 781.854 344.886 782.496 349.729 782.032C354.572 781.568 359.364 780.265 363.505 777.73C372.023 775.402 379.9 771.247 386.967 765.977" fill="#FFC557"/>
<path fill-rule="evenodd" clip-rule="evenodd" d="M432.709 518.292C515.162 548.931 606.842 506.927 637.481 424.474C668.12 342.021 626.117 250.341 543.663 219.702C461.21 189.063 369.53 231.067 338.891 313.52C308.252 395.973 350.256 487.653 432.709 518.292ZM451.201 468.527C506.17 488.953 567.29 460.951 587.716 405.982C608.142 351.013 580.139 289.893 525.171 269.467C470.202 249.041 409.082 277.043 388.656 332.012C368.23 386.981 396.232 448.101 451.201 468.527Z" fill="#FF9E18"/>
</svg>
