<svg width="21" height="21" viewBox="0 0 21 21" fill="none" xmlns="http://www.w3.org/2000/svg">
    <path d="M18.3421 11.6507C18.7993 11.7079 19.1993 11.4222 19.2564 10.965C19.7136 8.05072 18.7421 5.0793 16.685 2.96501C14.9707 1.19358 12.6278 0.279297 10.1707 0.279297C7.71356 0.279297 5.3707 1.25072 3.65642 2.96501C1.94213 4.6793 0.970703 7.02215 0.970703 9.4793C0.970703 11.9364 1.88499 14.3364 3.59928 16.0507C5.3707 17.8222 7.65642 18.7364 10.1136 18.7364C12.285 18.7364 14.3993 17.9936 16.0564 16.565L19.5421 20.0507C19.7136 20.2222 19.885 20.2793 20.1136 20.2793C20.3421 20.2793 20.5136 20.2222 20.685 20.0507C20.9707 19.765 20.9707 19.2507 20.685 18.9079L16.6278 14.965C16.3421 14.6793 15.8278 14.6793 15.485 14.965C14.0564 16.3936 12.1136 17.1936 10.1136 17.1936C8.05642 17.1936 6.1707 16.3936 4.74213 14.965C1.7707 11.9936 1.7707 7.13644 4.74213 4.16501C6.1707 2.73644 8.11356 1.93644 10.1136 1.93644C12.1707 1.93644 14.0564 2.73644 15.485 4.16501C17.1993 5.8793 17.9993 8.33644 17.5993 10.7936C17.5993 11.1936 17.885 11.5936 18.3421 11.6507Z" fill="white"/>
</svg>