<svg width="201" height="201" viewBox="0 0 201 201" fill="none" xmlns="http://www.w3.org/2000/svg">
    <path d="M180.857 78.5714H179.75C176.606 66.9316 170.938 56.1268 163.148 46.9238C155.359 37.7209 145.639 30.3456 134.678 25.3214C132.45 17.9938 127.924 11.5768 121.77 7.0174C115.616 2.45804 108.159 -0.0021197 100.5 1.37039e-06C92.8469 0.00553549 85.3981 2.46923 79.2511 7.02803C73.1041 11.5868 68.5841 17.9996 66.3571 25.3214C55.3902 30.3414 45.6633 37.7149 37.8674 46.918C30.0716 56.1212 24.3981 66.9282 21.25 78.5714H20.1428C14.9361 78.5808 9.94539 80.6534 6.26368 84.3351C2.58198 88.0168 0.509441 93.0075 0.5 98.2142C0.509441 103.421 2.58198 108.412 6.26368 112.093C9.94539 115.775 14.9361 117.848 20.1428 117.857H24.1071V118.071C24.0899 118.214 24.0899 118.358 24.1071 118.5C25.8232 125.587 28.541 132.394 32.1785 138.714L19.3571 155.928C18.8072 156.624 18.5355 157.499 18.5949 158.383C18.6543 159.268 19.0406 160.099 19.6786 160.714L39.7857 180.821C40.3955 181.43 41.205 181.798 42.0648 181.858C42.9247 181.917 43.7769 181.663 44.4643 181.143L61.6428 168.25C67.2622 171.461 73.2611 173.957 79.4999 175.678L82.5357 197.107C82.698 197.951 83.1594 198.709 83.8351 199.24C84.5108 199.771 85.3556 200.041 86.2142 200H114.786C115.652 200.008 116.492 199.702 117.149 199.136C117.807 198.571 118.236 197.787 118.357 196.928L121.393 175.5C127.632 173.778 133.631 171.282 139.25 168.071L156.428 180.964C157.102 181.537 157.965 181.84 158.849 181.813C159.733 181.787 160.576 181.434 161.214 180.821L181.321 160.714C181.93 160.104 182.298 159.295 182.357 158.435C182.417 157.575 182.163 156.723 181.643 156.036L168.714 138.714C172.352 132.394 175.07 125.587 176.786 118.5V117.964H180.857C183.444 117.96 186.005 117.445 188.393 116.449C190.781 115.454 192.95 113.997 194.774 112.163C196.599 110.328 198.043 108.152 199.026 105.759C200.008 103.365 200.509 100.801 200.5 98.2142C200.49 93.0075 198.418 88.0168 194.736 84.3351C191.054 80.6534 186.064 78.5808 180.857 78.5714ZM162.25 135.714L161.821 136.464L161.428 137.143C161.022 137.737 160.804 138.44 160.804 139.161C160.804 139.881 161.022 140.584 161.428 141.178L173.893 157.786L158.25 173.571L141.643 161.107C141.052 160.708 140.356 160.495 139.643 160.495C138.93 160.495 138.233 160.708 137.643 161.107C131.345 164.949 124.49 167.792 117.321 169.536C116.624 169.7 115.992 170.071 115.508 170.6C115.024 171.128 114.71 171.79 114.607 172.5L111.678 192.857H89.3214L86.3928 172.321C86.2901 171.612 85.9763 170.95 85.4922 170.421C85.0081 169.892 84.3762 169.522 83.6785 169.357C76.5101 167.614 69.655 164.771 63.3571 160.928C62.7665 160.529 62.07 160.316 61.3571 160.316C60.6442 160.316 59.9477 160.529 59.3571 160.928L42.75 173.571L26.9286 157.75L39.3928 141.143C39.7998 140.549 40.0175 139.845 40.0175 139.125C40.0175 138.405 39.7998 137.701 39.3928 137.107L39 136.429L38.75 135.714C35.5068 130.119 33.0321 124.113 31.3928 117.857H54.0714C55.492 121.733 57.4131 125.407 59.7857 128.786C60.8214 130.214 61.9642 131.643 63.3571 133.143L63.8214 133.643C64.9526 134.891 66.1446 136.083 67.3928 137.214L67.7857 137.607C70.737 140.187 73.9862 142.405 77.4642 144.214C78.9837 145.013 80.5456 145.728 82.1428 146.357L83.2499 146.786H83.6071C84.8571 147.25 86.1071 147.643 87.4285 148L89.2142 148.464C90.4999 148.786 91.8214 149 93.1428 149.214H93.6428H94.8571C98.6763 149.679 102.538 149.679 106.357 149.214H107.571H108.071C109.393 149 110.714 148.786 112 148.464L113.786 148C115.107 147.643 116.357 147.25 117.607 146.786H117.964L119.071 146.357C120.644 145.739 122.182 145.036 123.678 144.25H124.036C127.41 142.444 130.562 140.251 133.428 137.714L133.964 137.25C135.218 136.124 136.41 134.932 137.536 133.679L138.036 133.179C139.321 131.679 140.464 130.25 141.607 128.821C143.845 125.411 145.634 121.726 146.928 117.857H169.464C167.87 124.106 165.443 130.112 162.25 135.714ZM68.8571 128.821L68.3571 128.571C67.2907 127.385 66.3006 126.133 65.3928 124.821C63.9486 122.622 62.7169 120.29 61.7142 117.857H139.286C138.239 120.232 136.971 122.504 135.5 124.643C134.633 126.012 133.679 127.325 132.643 128.571L132.25 129C131.268 130.077 130.231 131.102 129.143 132.071L128.714 132.464C126.193 134.686 123.41 136.593 120.428 138.143C119.214 138.786 117.893 139.393 116.428 140L115.607 140.286H115.178C114.103 140.689 113.006 141.035 111.893 141.321L110.393 141.714C109.286 142 108.143 142.179 106.821 142.357H106.25H105.357C102.085 142.786 98.7717 142.786 95.4999 142.357H94.6428H94.0357C92.8928 142.179 91.7499 142 90.6428 141.714L89.1428 141.321C88.0298 141.035 86.933 140.689 85.8571 140.286H85.4285L84.6071 139.964C83.1578 139.396 81.7392 138.752 80.3571 138.036C77.4791 136.392 74.8058 134.414 72.3928 132.143L70.0357 134.821L71.9285 131.714C70.8558 130.803 69.8307 129.838 68.8571 128.821ZM189.786 107.143C188.627 108.295 187.249 109.204 185.735 109.817C184.22 110.431 182.598 110.736 180.964 110.714H20.1428C16.8276 110.714 13.6482 109.397 11.304 107.053C8.95981 104.709 7.64285 101.529 7.64285 98.2142C7.64285 94.899 8.95981 91.7196 11.304 89.3754C13.6482 87.0312 16.8276 85.7142 20.1428 85.7142H32.6428C33.59 85.7142 34.4984 85.338 35.1682 84.6682C35.838 83.9984 36.2143 83.09 36.2143 82.1428C36.2143 81.1956 35.838 80.2872 35.1682 79.6174C34.4984 78.9477 33.59 78.5714 32.6428 78.5714H28.6428C34.3303 59.5235 47.3238 43.5 64.7857 34C64.7857 34.5714 64.7857 35.1428 64.7857 35.7143V53.5714C64.7857 54.5186 65.1619 55.427 65.8317 56.0968C66.5015 56.7666 67.4099 57.1428 68.3571 57.1428C69.3043 57.1428 70.2127 56.7666 70.8825 56.0968C71.5523 55.427 71.9285 54.5186 71.9285 53.5714V35.7143C71.9285 28.1367 74.9387 20.8694 80.2969 15.5112C85.6551 10.153 92.9223 7.14286 100.5 7.14286C108.078 7.14286 115.345 10.153 120.703 15.5112C126.061 20.8694 129.071 28.1367 129.071 35.7143V53.5714C129.071 54.5186 129.448 55.427 130.117 56.0968C130.787 56.7666 131.696 57.1428 132.643 57.1428C133.59 57.1428 134.498 56.7666 135.168 56.0968C135.838 55.427 136.214 54.5186 136.214 53.5714V35.7143C136.214 35.1428 136.214 34.5714 136.214 34.0357C153.674 43.5212 166.668 59.5331 172.357 78.5714H168.357C167.41 78.5714 166.501 78.9477 165.832 79.6174C165.162 80.2872 164.786 81.1956 164.786 82.1428C164.786 83.09 165.162 83.9984 165.832 84.6682C166.501 85.338 167.41 85.7142 168.357 85.7142H180.857C184.172 85.7142 187.352 87.0312 189.696 89.3754C192.04 91.7196 193.357 94.899 193.357 98.2142C193.391 99.8659 193.092 101.507 192.478 103.041C191.865 104.575 190.949 105.97 189.786 107.143Z" fill="url(#paint0_linear)"/>
    <defs>
        <linearGradient id="paint0_linear" x1="0.5" y1="0" x2="240.403" y2="79.3241" gradientUnits="userSpaceOnUse">
            <stop stop-color="#FF9E18"/>
            <stop offset="1" stop-color="#F8DF8D"/>
        </linearGradient>
    </defs>
</svg>