<svg width="201" height="201" viewBox="0 0 201 201" fill="none" xmlns="http://www.w3.org/2000/svg">
    <path fill-rule="evenodd" clip-rule="evenodd" d="M147.1 1.74912C153.155 -1.27868 160.422 0.840781 164.358 6.59359C177.075 4.17136 189.791 18.7048 195.544 30.816C202.811 47.4688 201.297 65.3328 193.122 71.6912C194.636 78.3523 191.305 85.3163 184.947 88.0413C178.589 90.7663 171.625 88.6468 167.689 83.1968L110.16 102.575V103.18C110.16 108.63 107.738 113.172 104.105 116.503L147.705 195.831C148.613 197.345 148.008 199.161 146.494 200.07C144.98 200.978 143.163 200.372 142.255 198.859L98.9576 119.53C98.352 119.682 97.8221 119.833 97.2922 119.985L97.2917 119.985C96.762 120.136 96.2323 120.287 95.627 120.439V197.345C95.627 199.161 94.4159 200.372 92.5992 200.372C90.7825 200.372 89.5714 199.161 89.5714 197.345V120.439C89.1173 120.287 88.5874 120.136 88.0576 119.985L88.0574 119.984C87.5276 119.833 86.9978 119.682 86.5436 119.53L43.2462 198.859C42.3378 200.372 40.5211 200.978 39.0072 200.07C37.4933 199.161 36.8878 197.345 37.7961 195.831L81.3964 116.503C78.6713 114.383 76.8547 111.658 75.9463 108.327L17.5099 131.036C16.2988 131.642 14.4821 131.339 12.6654 130.128C7.2154 126.191 -0.354089 108.933 0.25147 101.969C0.554249 99.2441 2.06815 98.033 2.97648 97.7302L70.4963 63.2134C70.4963 61.0939 70.4963 59.2772 71.1019 57.7633C71.7074 55.6439 73.2213 54.4328 74.1297 54.13L138.924 17.7964C137.411 11.4381 140.741 4.47413 147.1 1.74912ZM15.996 125.283L75.038 102.272C75.3408 97.7302 77.1575 93.7941 80.1852 90.7663C76.8547 84.4079 73.5241 76.2329 71.7074 68.9662L6.30706 102.877C5.7015 107.116 12.6654 122.861 15.996 125.283ZM81.0936 103.18C81.0936 109.539 86.2408 114.686 92.5992 114.686C98.9576 114.686 104.105 109.539 104.105 103.18C104.105 96.8219 98.9576 91.6746 92.5992 91.6746C86.2408 91.6746 81.0936 96.8219 81.0936 103.18ZM92.5992 85.619C100.169 85.619 106.527 90.4635 108.949 96.8219L164.661 77.7468L141.044 23.5492L76.8547 59.58C75.6436 62.0022 78.3686 74.4162 85.0297 87.4357C87.452 86.2246 89.8742 85.619 92.5992 85.619ZM171.927 78.3523C173.441 82.2885 178.589 84.4079 182.525 82.5912C186.461 80.7746 188.58 75.9301 186.461 71.6912L160.119 11.4381C158.302 7.19915 153.761 5.38247 149.522 7.19915C145.283 9.01583 143.466 13.8603 145.283 18.0992L171.927 78.3523ZM167.386 12.6492L190.7 65.9384C194.939 60.4883 195.544 46.8633 189.791 33.8437C185.855 24.1548 176.469 12.952 167.386 12.6492ZM166.781 109.842C166.781 108.025 167.992 106.814 169.808 106.814C171.625 106.814 172.836 108.328 172.836 109.842V112.567H175.561C177.378 112.567 178.589 113.778 178.589 115.594C178.589 117.411 177.378 118.622 175.561 118.622H172.836V121.347C172.836 123.164 171.625 124.375 169.808 124.375C167.992 124.375 166.781 123.164 166.781 121.347V118.622H164.056C162.239 118.622 161.028 117.411 161.028 115.594C161.028 113.778 162.239 112.567 164.056 112.567H166.781V109.842ZM103.5 22.3377C105.317 22.3377 106.528 21.1266 106.528 19.3099V16.5849H109.253C111.07 16.5849 112.281 15.3738 112.281 13.5571C112.281 11.7404 111.07 10.5293 109.253 10.5293H106.528V7.80426C106.528 5.98759 105.317 4.77647 103.5 4.77647C101.684 4.77647 100.472 5.98759 100.472 7.80426V10.5293H97.7475C95.9308 10.5293 94.7197 11.7404 94.7197 13.5571C94.7197 15.3738 95.9308 16.5849 97.7475 16.5849H100.472V19.3099C100.472 21.1266 101.986 22.3377 103.5 22.3377ZM71.7079 28.6962C71.7079 30.5129 70.4968 31.724 68.6801 31.724C66.8634 31.724 65.6523 30.2101 65.6523 28.6962V25.9712H62.9273C61.1106 25.9712 59.8995 24.76 59.8995 22.9434C59.8995 21.1267 61.1106 19.9156 62.9273 19.9156H65.6523V17.1906C65.6523 15.3739 66.8634 14.1628 68.6801 14.1628C70.4968 14.1628 71.7079 15.3739 71.7079 17.1906V19.9156H74.4329C76.2496 19.9156 77.4607 21.1267 77.4607 22.9434C77.4607 24.76 76.2496 25.9712 74.4329 25.9712H71.7079V28.6962ZM44.1548 57.7633C45.9715 57.7633 47.1826 56.5522 47.1826 54.7355V52.0105H49.9076C51.7243 52.0105 52.9354 50.7994 52.9354 48.9827C52.9354 47.166 51.7243 45.9549 49.9076 45.9549H47.1826V43.2299C47.1826 41.4132 45.9715 40.2021 44.1548 40.2021C42.3381 40.2021 41.127 41.4132 41.127 43.2299V45.9549H38.402C36.5853 45.9549 35.3742 47.166 35.3742 48.9827C35.3742 50.7994 36.5853 52.0105 38.402 52.0105H41.127V54.7355C41.127 56.5522 42.6409 57.7633 44.1548 57.7633ZM144.678 137.394C144.678 139.211 143.467 140.422 141.65 140.422C140.137 140.422 138.623 138.908 138.623 137.394V134.669H135.898C134.081 134.669 132.87 133.458 132.87 131.641C132.87 129.824 134.081 128.613 135.898 128.613H138.623V125.888C138.623 124.072 139.834 122.861 141.65 122.861C143.467 122.861 144.678 124.072 144.678 125.888V128.613H147.403C149.22 128.613 150.431 129.824 150.431 131.641C150.431 133.458 149.22 134.669 147.403 134.669H144.678V137.394ZM174.654 165.251C176.471 165.251 177.682 164.04 177.682 162.223V159.498H180.407C182.223 159.498 183.434 158.287 183.434 156.47C183.434 154.653 182.223 153.442 180.407 153.442H177.682V150.717C177.682 148.901 176.471 147.689 174.654 147.689C172.837 147.689 171.626 148.901 171.626 150.717V153.442H168.901C167.084 153.442 165.873 154.653 165.873 156.47C165.873 158.287 167.084 159.498 168.901 159.498H171.626V162.223C171.626 163.737 173.14 165.251 174.654 165.251ZM90.4799 105.299C89.2687 104.088 89.2687 102.272 90.4799 101.06C91.691 99.8493 93.5077 99.8493 94.7188 101.06C95.9299 102.272 95.9299 104.088 94.7188 105.299C93.5077 106.51 91.691 106.51 90.4799 105.299Z" fill="url(#paint0_linear)"/>
    <defs>
        <linearGradient id="paint0_linear" x1="0.217285" y1="0.37207" x2="240.149" y2="79.6578" gradientUnits="userSpaceOnUse">
            <stop stop-color="#FF9E18"/>
            <stop offset="1" stop-color="#F8DF8D"/>
        </linearGradient>
    </defs>
</svg>