<svg width="330" height="54" viewBox="0 0 330 54" fill="none" xmlns="http://www.w3.org/2000/svg">
<path d="M6.73944 45.4492C7.19144 44.0902 14.7084 33.0422 14.7084 33.0422C14.7084 33.0422 7.19144 45.2682 7.37244 45.6302C8.00302 46.2758 8.83255 46.6904 9.72744 46.8072L8.54844 50.1582C8.54844 50.1582 8.00544 49.9772 6.64844 49.4342L6.73944 45.4492Z" fill="#EE7623"/>
<path d="M12.8973 47.6222C13.3503 46.2642 14.7973 33.0422 14.7973 33.0422C14.7973 33.0422 12.7143 47.3502 12.2613 47.4422C11.3722 47.4834 10.4905 47.2629 9.72529 46.8082L8.55029 50.1582C8.55029 50.1582 9.09329 50.3392 10.4503 50.8822L12.8973 47.6222Z" fill="#EE7623"/>
<path d="M5.74325 43.9082C5.29025 45.2662 4.74325 47.4402 4.74325 47.4402C4.64004 47.8496 4.68358 48.2821 4.86628 48.6627C5.04898 49.0433 5.35929 49.3478 5.74325 49.5232C7.10125 50.0662 8.46025 50.5232 8.46025 50.5232L9.81825 46.8082C8.71487 46.3621 7.70226 45.7182 6.83025 44.9082C6.70405 44.7239 6.62911 44.5094 6.61312 44.2865C6.59713 44.0637 6.64066 43.8407 6.73925 43.6402C7.19225 42.1912 13.4393 32.4112 13.4393 32.4112C13.4393 32.4112 6.19425 42.5542 5.73925 43.9112" fill="#FF9E18"/>
<path d="M14.7082 47.1702C14.2727 48.3214 13.7581 49.441 13.1682 50.5212C12.9912 50.9039 12.6865 51.213 12.3063 51.3955C11.9262 51.578 11.4945 51.6224 11.0852 51.5212C9.72716 51.0682 8.36816 50.5212 8.36816 50.5212L9.72616 46.8082C10.8631 47.1864 12.0626 47.3403 13.2582 47.2612C13.4667 47.1865 13.6561 47.0665 13.8128 46.9098C13.9694 46.7532 14.0894 46.5638 14.1642 46.3552C14.6182 44.9952 16.1572 33.4952 16.1572 33.4952C16.1572 33.4952 15.2512 45.8112 14.7082 47.1702Z" fill="#FFB548"/>
<path d="M26.2093 1.70822C33.0923 4.24422 35.6273 14.2962 32.0953 24.2572C32.0043 24.5292 31.9143 24.7102 31.8233 24.9812C31.7323 25.1622 31.7323 25.2532 31.6423 25.4342C30.3704 28.1829 28.7248 30.7428 26.7523 33.0412C23.0141 36.7122 18.8118 39.8783 14.2523 42.4592C13.7765 42.6902 13.322 42.9629 12.8943 43.2742C12.3661 43.5563 11.7487 43.6212 11.1733 43.4552C11.9244 43.7561 12.7563 43.7882 13.5283 43.5462C14.0713 43.3652 14.7053 43.1842 15.3393 42.9122C19.7763 41.3722 26.5683 38.5652 31.4593 34.8522C33.8434 32.8591 35.7871 30.3923 37.1673 27.6082C37.2583 27.4272 37.2583 27.3362 37.3483 27.1552C37.4393 26.8832 37.5293 26.7022 37.6203 26.4312C38.498 24.0589 38.8989 21.5367 38.8002 19.0092C38.7014 16.4817 38.105 13.9985 37.045 11.7019C35.9849 9.40527 34.4822 7.34037 32.6228 5.62548C30.7635 3.91059 28.584 2.57941 26.2093 1.70822Z" fill="#F8DF8D"/>
<path d="M9.81734 42.0982C9.63634 41.6452 9.45534 41.1922 9.27434 40.6492C7.50108 35.7346 6.31551 30.6274 5.74234 25.4342C5.60122 22.3819 5.93864 19.3262 6.74234 16.3782C6.74234 16.1972 6.83334 16.1062 6.83334 15.9252C6.92434 15.6532 7.01434 15.4722 7.10534 15.2012C10.7233 5.24021 19.2363 -0.736791 26.1183 1.70821C23.7583 0.827206 21.2473 0.421323 18.7299 0.513888C16.2124 0.606453 13.7381 1.19564 11.4491 2.24759C9.16007 3.29953 7.10154 4.7935 5.39179 6.6436C3.68204 8.49371 2.35479 10.6635 1.48634 13.0282C1.39534 13.3002 1.30534 13.4812 1.21434 13.7522C1.21434 13.9332 1.12334 14.0242 1.12334 14.2052C0.454163 17.3062 0.42354 20.511 1.03334 23.6242C2.48234 29.6012 5.83334 36.1242 8.09734 40.1962C8.45934 40.8302 8.73134 41.3732 9.00334 41.8262C9.43153 42.495 10.0679 43.0042 10.8143 43.2752C10.3732 42.989 10.0256 42.5798 9.81434 42.0982" fill="#FF9E18"/>
<path d="M14.0743 42.3702C18.6687 39.8429 22.878 36.6715 26.5743 32.9522C28.5664 30.6684 30.2138 28.1057 31.4643 25.3452C31.5553 25.1642 31.5553 25.0732 31.6453 24.8922C31.7363 24.6202 31.8263 24.4392 31.9173 24.1682C35.5393 14.2062 32.9173 4.0682 26.0313 1.6192L23.4923 8.5012C25.9033 9.40967 27.8586 11.2325 28.9338 13.5739C30.009 15.9153 30.1172 18.5863 29.235 21.007C28.3528 23.4277 26.5513 25.4028 24.2217 26.5033C21.8921 27.6039 19.2225 27.7411 16.7923 26.8852L10.9043 43.2762C11.186 43.3789 11.4875 43.4159 11.7857 43.3846C12.0839 43.3532 12.3711 43.2542 12.6253 43.0952C13.1493 42.9465 13.6408 42.701 14.0743 42.3712" fill="#FFC557"/>
<path d="M16.8821 27.0652C15.6598 26.6324 14.5352 25.962 13.5732 25.0926C12.6112 24.2231 11.8308 23.1719 11.277 21.9994C10.7232 20.827 10.4069 19.5565 10.3464 18.2613C10.2859 16.966 10.4823 15.6716 10.9244 14.4526C11.3665 13.2336 12.0455 12.1142 12.9223 11.1588C13.799 10.2035 14.8562 9.43114 16.0328 8.88628C17.2094 8.34142 18.4823 8.03483 19.778 7.98419C21.0736 7.93354 22.3665 8.13985 23.5821 8.59122H23.6731L26.1191 1.79922C19.3271 -0.736781 10.8191 5.33122 7.1011 15.1992C7.07153 15.4181 7.01057 15.6317 6.9201 15.8332C6.9201 16.0142 6.8291 16.1052 6.8291 16.2862C6.0254 19.2342 5.68799 22.2899 5.8291 25.3422C6.4034 30.5363 7.59032 35.6441 9.3651 40.5592C9.5461 41.1022 9.7271 41.5592 9.9081 42.0082C10.1223 42.5668 10.544 43.0211 11.0851 43.2762L16.8821 27.0652Z" fill="#FFB548"/>
<path d="M23.5825 8.59022C22.3759 8.13426 21.0908 7.92283 19.8017 7.96825C18.5127 8.01367 17.2456 8.31503 16.0742 8.85478C14.9027 9.39453 13.8503 10.1619 12.9783 11.1122C12.1062 12.0625 11.4318 13.1768 10.9945 14.3902C10.1303 16.8412 10.2628 19.5335 11.3636 21.8877C12.4644 24.2419 14.4455 26.0699 16.8805 26.9782H16.9715C19.4098 27.8522 22.0951 27.7233 24.4385 26.6198C26.7819 25.5164 28.5919 23.5285 29.4715 21.0922C29.9197 19.886 30.1227 18.6025 30.0684 17.3168C30.0142 16.0312 29.7039 14.7693 29.1557 13.6051C28.6075 12.4409 27.8325 11.3979 26.876 10.5371C25.9195 9.67629 24.8008 9.01509 23.5855 8.59222L23.5825 8.59022ZM18.0545 23.9862C16.4154 23.3895 15.0778 22.1706 14.3317 20.5939C13.5857 19.0172 13.4914 17.2099 14.0695 15.5642C14.6606 13.9449 15.8694 12.6259 17.431 11.896C18.9927 11.1661 20.78 11.0849 22.4015 11.6702H22.4925C23.2896 11.9671 24.0203 12.4182 24.6429 12.9979C25.2654 13.5775 25.7675 14.2742 26.1205 15.0481C26.4735 15.822 26.6703 16.6579 26.6998 17.508C26.7294 18.3581 26.5909 19.2057 26.2925 20.0022C26.0212 20.8103 25.5913 21.5561 25.0279 22.1957C24.4644 22.8354 23.7789 23.3561 23.0116 23.7272C22.2442 24.0983 21.4104 24.3124 20.5592 24.3569C19.7079 24.4013 18.8564 24.2753 18.0545 23.9862Z" fill="#FF9E18"/>
<path d="M75.7453 40.0152C75.8044 40.8369 75.6153 41.6574 75.2023 42.3702C74.7181 42.9861 74.0984 43.4819 73.3913 43.8192C72.8118 44.1417 72.206 44.4143 71.5803 44.6342C70.8142 44.9103 70.0265 45.1224 69.2253 45.2682C68.3304 45.4779 67.4228 45.6292 66.5083 45.7212C65.6023 45.8122 64.6083 45.9022 63.7013 45.9022C61.3709 45.9005 59.0529 45.5637 56.8183 44.9022C54.7573 44.3124 52.8439 43.2942 51.2033 41.9142C49.6241 40.5381 48.3581 38.8397 47.4903 36.9332C46.5464 34.7331 46.0834 32.3567 46.1323 29.9632C46.0773 27.4615 46.6045 24.9812 47.6723 22.7182C48.611 20.7291 49.9707 18.9678 51.6573 17.5562C53.3053 16.1677 55.2139 15.1222 57.2713 14.4812C59.3846 13.8332 61.581 13.4963 63.7913 13.4812C66.4443 13.37 69.0852 13.8982 71.4913 15.0212C73.3913 16.0212 74.2983 17.3762 74.2983 19.0962C74.3383 19.8997 74.1158 20.6944 73.6643 21.3602C73.2459 21.9604 72.7245 22.4818 72.1243 22.9002C71.1131 22.2981 70.0527 21.7829 68.9543 21.3602C67.5578 20.8704 66.0872 20.6255 64.6073 20.6362C63.3686 20.5635 62.1279 20.7426 60.9604 21.1629C59.7928 21.5831 58.7226 22.2357 57.8143 23.0812C56.9377 23.9713 56.2587 25.0363 55.8217 26.2066C55.3847 27.377 55.1995 28.6264 55.2783 29.8732C55.2663 31.2646 55.5118 32.6461 56.0023 33.9482C56.3966 35.0251 57.049 35.9889 57.9023 36.7552C58.697 37.4656 59.6203 38.0176 60.6223 38.3812C61.6688 38.7518 62.7722 38.9356 63.8823 38.9242C64.5501 38.9173 65.2162 38.8567 65.8743 38.7432C66.3472 38.6613 66.805 38.5086 67.2323 38.2902V33.4902H61.7993C61.5885 33.0189 61.4072 32.535 61.2563 32.0412C61.0775 31.4237 60.986 30.7841 60.9843 30.1412C60.9033 29.1931 61.1957 28.2508 61.7993 27.5152C62.0872 27.2389 62.4283 27.0241 62.8019 26.884C63.1755 26.7438 63.5738 26.6813 63.9723 26.7002H72.4853C72.914 26.6488 73.3487 26.6955 73.7567 26.8366C74.1647 26.9778 74.5353 27.2097 74.8405 27.515C75.1458 27.8203 75.3778 28.1909 75.5189 28.5989C75.6601 29.0068 75.7067 29.4416 75.6553 29.8702L75.7463 40.0132L75.7453 40.0152Z" fill="white"/>
<path d="M110.521 18.0092C110.492 17.3801 110.589 16.7516 110.807 16.1606C111.025 15.5697 111.358 15.0283 111.789 14.5682C112.249 14.1381 112.79 13.8044 113.381 13.5867C113.972 13.3689 114.6 13.2715 115.23 13.3002H132.165C132.446 13.7492 132.66 14.2375 132.799 14.7492C132.977 15.3667 133.069 16.0063 133.071 16.6492C133.165 17.6267 132.873 18.6023 132.256 19.3662C131.968 19.6425 131.627 19.8573 131.253 19.9974C130.879 20.1376 130.481 20.2001 130.083 20.1812H119.215V24.9812H130.715C131.013 25.4213 131.228 25.9124 131.349 26.4302C131.527 27.0477 131.619 27.6873 131.621 28.3302C131.715 29.3077 131.423 30.2833 130.806 31.0472C130.518 31.3235 130.177 31.5383 129.803 31.6784C129.429 31.8186 129.031 31.8811 128.633 31.8622H119.305V37.2052H132.436C132.717 37.6542 132.931 38.1425 133.07 38.6542C133.248 39.2717 133.34 39.9113 133.342 40.5542C133.419 41.5577 133.129 42.5551 132.527 43.3612C132.239 43.6375 131.898 43.8523 131.524 43.9924C131.15 44.1326 130.752 44.1951 130.354 44.1762H115.502C114.87 44.2264 114.236 44.139 113.642 43.9201C113.048 43.7012 112.508 43.3559 112.06 42.9083C111.613 42.4606 111.268 41.921 111.049 41.3269C110.83 40.7329 110.742 40.0983 110.793 39.4672V18.0092H110.521Z" fill="white"/>
<path d="M136.149 23.4432C136.374 22.2508 136.94 21.1495 137.779 20.2732C138.165 19.8699 138.629 19.5494 139.143 19.3314C139.657 19.1134 140.209 19.0024 140.767 19.0052C141.712 18.9546 142.643 19.2437 143.393 19.8202C144.151 20.5141 144.848 21.2715 145.476 22.0842L148.736 26.3402L154.17 18.9142C155.712 18.8482 157.243 19.1933 158.607 19.9142C159.107 20.1687 159.524 20.5584 159.812 21.0388C160.1 21.5193 160.248 22.071 160.237 22.6312C160.228 23.0297 160.168 23.4254 160.056 23.8082C159.95 24.2032 159.765 24.5728 159.513 24.8952C159.241 25.2572 158.97 25.7102 158.607 26.1632C158.244 26.6162 157.792 27.1632 157.249 27.8842L153.898 31.6842L160.598 40.4682C160.464 41.644 159.919 42.7345 159.058 43.5472C158.201 44.2763 157.105 44.6634 155.979 44.6342C154.856 44.6524 153.763 44.2666 152.9 43.5472C152.063 42.7718 151.332 41.8887 150.727 40.9212L148.01 37.0272L142.849 44.5432H141.762C140.35 44.6368 138.947 44.2541 137.777 43.4562C137.362 43.1542 137.024 42.7596 136.788 42.3038C136.552 41.8479 136.426 41.3433 136.419 40.8302C136.405 40.0706 136.593 39.3208 136.962 38.6572C137.566 37.7661 138.232 36.9187 138.954 36.1212L143.029 31.4122L136.149 23.4432Z" fill="white"/>
<path d="M175.089 18.6432C177.021 18.6279 178.944 18.9026 180.794 19.4582C182.453 19.9597 183.993 20.7914 185.322 21.9032C186.612 23.0197 187.633 24.4125 188.31 25.9782C189.077 27.8435 189.447 29.848 189.397 31.8642C189.45 33.8055 189.143 35.7398 188.491 37.5692C187.943 39.1127 187.044 40.5077 185.865 41.6442C184.718 42.7678 183.322 43.6054 181.79 44.0892C180.097 44.6521 178.322 44.9275 176.538 44.9042C175.153 44.9293 173.775 44.7148 172.463 44.2702V52.6922C172.101 52.7832 171.557 52.8732 170.833 53.0542C170.083 53.1595 169.327 53.2199 168.569 53.2352C167.901 53.2282 167.235 53.1677 166.577 53.0542C166.014 52.9955 165.479 52.7753 165.037 52.4202C164.617 52.0958 164.302 51.6547 164.131 51.1522C163.927 50.4774 163.835 49.7737 163.859 49.0692V24.7112C163.834 23.9215 164.022 23.1396 164.402 22.4472C164.831 21.8247 165.386 21.2999 166.032 20.9072C167.259 20.2076 168.567 19.6602 169.926 19.2772C171.607 18.8157 173.346 18.6021 175.088 18.6432H175.089ZM175.179 38.1132C178.711 38.1132 180.431 36.0302 180.431 31.8642C180.557 30.1674 180.111 28.4774 179.163 27.0642C178.709 26.5332 178.136 26.117 177.491 25.8494C176.846 25.5818 176.147 25.4703 175.45 25.5242C174.865 25.5113 174.282 25.6034 173.729 25.7962C173.186 25.9772 172.823 26.1582 172.371 26.3392V37.5702C172.824 37.7512 173.186 37.9322 173.729 38.1132H175.179Z" fill="white"/>
<path d="M232.595 31.8652C232.612 33.7826 232.273 35.6864 231.595 37.4802C230.994 39.0452 230.068 40.465 228.878 41.6462C227.687 42.7806 226.267 43.6455 224.712 44.1822C222.962 44.7763 221.127 45.0823 219.278 45.0882C217.426 45.1271 215.583 44.8198 213.844 44.1822C212.284 43.6135 210.864 42.7182 209.678 41.5562C208.488 40.375 207.562 38.9552 206.961 37.3902C205.633 33.8583 205.633 29.9641 206.961 26.4322C207.562 24.8672 208.488 23.4473 209.678 22.2662C210.864 21.1042 212.284 20.2089 213.844 19.6402C217.366 18.4328 221.189 18.4328 224.711 19.6402C226.254 20.2433 227.668 21.1345 228.877 22.2662C230.067 23.4473 230.993 24.8672 231.594 26.4322C232.264 28.1652 232.603 30.0083 232.594 31.8662L232.595 31.8652ZM214.663 31.8662C214.552 33.5492 214.963 35.2256 215.84 36.6662C216.22 37.1944 216.725 37.6199 217.31 37.9045C217.895 38.189 218.541 38.3236 219.191 38.2962C219.84 38.3362 220.488 38.1968 221.063 37.8932C221.638 37.5896 222.118 37.1337 222.451 36.5752C223.276 35.1466 223.684 33.5151 223.628 31.8662C223.741 30.2118 223.329 28.5639 222.451 27.1572C222.053 26.6496 221.544 26.2392 220.964 25.957C220.383 25.6748 219.746 25.5281 219.101 25.5281C218.456 25.5281 217.819 25.6748 217.239 25.957C216.658 26.2392 216.15 26.6496 215.751 27.1572C214.936 28.5869 214.559 30.224 214.664 31.8662" fill="white"/>
<path d="M245.002 44.1812C244.464 44.302 243.92 44.3928 243.372 44.4532C242.622 44.5621 241.866 44.6226 241.108 44.6342C240.44 44.6273 239.774 44.5667 239.116 44.4532C238.552 44.3946 238.018 44.1744 237.576 43.8192C237.13 43.5213 236.807 43.0703 236.67 42.5512C236.43 41.8829 236.308 41.1782 236.308 40.4682V25.2542C236.298 24.5635 236.453 23.8804 236.761 23.2622C237.076 22.6689 237.507 22.1452 238.029 21.7222C238.635 21.2384 239.305 20.8422 240.021 20.5452C240.846 20.189 241.693 19.8864 242.557 19.6392C243.463 19.3672 244.457 19.1862 245.364 19.0052C246.35 18.8249 247.35 18.7339 248.352 18.7332C249.71 18.6555 251.062 18.97 252.246 19.6392C252.729 19.9875 253.115 20.4528 253.369 20.9914C253.622 21.53 253.734 22.1242 253.695 22.7182C253.679 23.1757 253.619 23.6306 253.514 24.0762C253.428 24.5336 253.243 24.9664 252.971 25.3442C252.246 25.3293 251.52 25.3597 250.798 25.4352L248.625 25.7072C247.901 25.8882 247.267 25.9792 246.633 26.1602C246.081 26.3138 245.537 26.495 245.003 26.7032V44.1812H245.002Z" fill="white"/>
<path d="M268.909 44.9962C267.007 45.0117 265.113 44.7369 263.294 44.1812C261.633 43.6649 260.106 42.7885 258.823 41.6145C257.539 40.4405 256.53 38.9978 255.868 37.3892C255.11 35.4895 254.74 33.4571 254.781 31.4122C254.73 29.4238 255.1 27.4471 255.868 25.6122C256.547 24.0963 257.534 22.739 258.768 21.6272C259.953 20.5963 261.342 19.8251 262.843 19.3632C264.369 18.8952 265.956 18.6513 267.552 18.6392C269.218 18.6145 270.874 18.8906 272.442 19.4542C273.844 19.9553 275.134 20.7242 276.242 21.7182C277.314 22.6822 278.178 23.8544 278.782 25.1632C279.402 26.5272 279.712 28.012 279.688 29.5102C279.713 29.9934 279.637 30.4765 279.465 30.9287C279.293 31.3808 279.028 31.7921 278.688 32.1362C277.932 32.8099 276.98 33.2226 275.971 33.3132L263.383 35.2132C263.575 35.764 263.874 36.2715 264.263 36.7066C264.651 37.1418 265.121 37.4961 265.647 37.7492C266.898 38.3144 268.26 38.5929 269.632 38.5642C270.979 38.568 272.32 38.3852 273.617 38.0212C274.667 37.7382 275.672 37.3115 276.605 36.7532C277.167 37.1205 277.633 37.6174 277.963 38.2022C278.308 38.7766 278.496 39.432 278.506 40.1022C278.517 40.8245 278.317 41.5343 277.932 42.1453C277.546 42.7562 276.992 43.2419 276.335 43.5432C275.197 44.1235 273.975 44.5207 272.713 44.7202C271.454 44.8944 270.184 44.9852 268.913 44.9922L268.909 44.9962ZM267.555 24.9782C266.846 24.9864 266.142 25.1087 265.472 25.3402C264.904 25.5731 264.406 25.9473 264.023 26.4272C263.665 26.8566 263.389 27.3476 263.208 27.8762C263.044 28.4091 262.923 28.9541 262.846 29.5062L271.54 28.0572C271.398 27.2949 271.017 26.5974 270.453 26.0652C270.067 25.6986 269.612 25.4135 269.114 25.2268C268.615 25.04 268.085 24.9555 267.553 24.9782" fill="white"/>
<path d="M280.774 42.1892C280.747 41.5269 280.974 40.8795 281.408 40.3782C281.896 39.9132 282.544 39.6538 283.219 39.6538C283.893 39.6538 284.541 39.9132 285.03 40.3782C285.251 40.6224 285.421 40.9085 285.53 41.2195C285.639 41.5306 285.684 41.8603 285.664 42.1892C285.69 42.8514 285.463 43.4989 285.03 44.0002C284.541 44.4652 283.893 44.7246 283.219 44.7246C282.544 44.7246 281.896 44.4652 281.408 44.0002C281.012 43.4778 280.79 42.8443 280.774 42.1892Z" fill="white"/>
<path d="M294.448 34.8532C294.049 34.8621 293.653 34.923 293.271 35.0342C292.906 35.1911 292.568 35.4051 292.271 35.6682C291.977 35.9418 291.759 36.2861 291.637 36.6682C291.442 37.0937 291.349 37.5586 291.365 38.0262C291.323 38.4621 291.383 38.9017 291.54 39.3104C291.697 39.7191 291.947 40.0856 292.271 40.3812C292.87 40.9114 293.643 41.2017 294.444 41.1962C294.902 41.1865 295.357 41.1258 295.802 41.0152C296.164 40.9242 296.526 40.7432 296.802 40.6532C297.164 40.9252 297.436 41.1062 297.526 41.4682C297.711 41.7683 297.805 42.1156 297.798 42.4682C297.801 42.8064 297.709 43.1387 297.532 43.427C297.355 43.7153 297.101 43.9479 296.798 44.0982C295.952 44.5062 295.018 44.6931 294.081 44.6412C293.096 44.6452 292.117 44.4923 291.181 44.1882C290.322 43.936 289.543 43.4686 288.917 42.8302C288.284 42.2526 287.789 41.5409 287.468 40.7472C287.106 39.9191 286.921 39.0248 286.925 38.1212C286.903 37.1274 287.088 36.14 287.468 35.2212C287.822 34.4456 288.313 33.74 288.917 33.1382C289.556 32.6068 290.295 32.2068 291.09 31.9612C291.935 31.6717 292.822 31.5187 293.716 31.5082C294.694 31.4259 295.674 31.6473 296.522 32.1422C296.822 32.3206 297.07 32.5722 297.245 32.8733C297.42 33.1743 297.516 33.515 297.522 33.8632C297.53 34.1863 297.435 34.5035 297.251 34.7692C297.092 35.0264 296.91 35.2687 296.708 35.4932C296.371 35.3051 296.002 35.1822 295.621 35.1312C295.26 34.9357 294.853 34.8417 294.444 34.8592" fill="white"/>
<path d="M299.79 28.4232C299.778 28.1225 299.827 27.8224 299.937 27.5419C300.046 27.2614 300.212 27.0065 300.424 26.7932C300.904 26.3841 301.514 26.1594 302.144 26.1594C302.775 26.1594 303.385 26.3841 303.865 26.7932C304.273 27.2382 304.499 27.8197 304.499 28.4232C304.499 29.0267 304.273 29.6082 303.865 30.0532C303.385 30.4623 302.775 30.687 302.144 30.687C301.514 30.687 300.904 30.4623 300.424 30.0532C300.031 29.5994 299.807 29.0234 299.79 28.4232ZM304.318 44.1802C304.041 44.2157 303.769 44.2763 303.503 44.3612C303.146 44.4364 302.781 44.467 302.416 44.4522C302.08 44.4715 301.743 44.4409 301.416 44.3612C301.169 44.2856 300.927 44.1948 300.692 44.0892C300.492 43.9178 300.336 43.7002 300.239 43.4552C300.127 43.1334 300.066 42.7959 300.058 42.4552V32.0452C300.335 32.0097 300.607 31.9491 300.873 31.8642C301.23 31.789 301.595 31.7584 301.96 31.7732C302.296 31.7539 302.633 31.7845 302.96 31.8642C303.207 31.9398 303.448 32.0306 303.684 32.1362C303.884 32.3077 304.04 32.5253 304.137 32.7702C304.249 33.092 304.31 33.4294 304.318 33.7702V44.1802Z" fill="white"/>
<path d="M311.382 39.9252C311.37 40.1029 311.406 40.2805 311.486 40.4398C311.565 40.5991 311.686 40.7342 311.835 40.8312C312.191 41.0377 312.601 41.1325 313.012 41.1032C313.287 41.1178 313.562 41.0871 313.827 41.0122C314.079 41.0061 314.326 40.9443 314.551 40.8312C314.725 41.0087 314.851 41.2276 314.916 41.4672C315.019 41.7276 315.08 42.0027 315.097 42.2822C315.102 42.5771 315.039 42.8692 314.914 43.1361C314.788 43.403 314.603 43.6377 314.373 43.8222C313.614 44.2921 312.728 44.5138 311.837 44.4562C310.61 44.5265 309.395 44.1735 308.396 43.4562C307.96 43.0225 307.628 42.4958 307.424 41.9155C307.22 41.3352 307.15 40.7164 307.219 40.1052V29.2392C307.486 29.1593 307.759 29.0988 308.034 29.0582C308.39 28.9834 308.753 28.9528 309.116 28.9672C309.713 28.9159 310.312 29.0418 310.837 29.3292C311.29 29.6012 311.471 30.1442 311.471 30.9592V32.5892H314.822C314.928 32.8247 315.019 33.0665 315.094 33.3132C315.198 33.6049 315.259 33.9101 315.275 34.2192C315.306 34.4441 315.29 34.673 315.227 34.8912C315.165 35.1095 315.058 35.3125 314.913 35.4872C314.766 35.6186 314.594 35.7184 314.407 35.7807C314.22 35.843 314.023 35.8663 313.826 35.8492H311.471L311.38 39.9242L311.382 39.9252Z" fill="white"/>
<path d="M319.17 41.1022C318.989 40.6492 318.808 40.1962 318.536 39.6532C318.355 39.1102 318.083 38.5662 317.902 37.8422C317.63 37.2082 317.449 36.3932 317.178 35.4872C316.907 34.5812 316.635 33.5872 316.363 32.4992C316.646 32.2165 316.987 31.9999 317.363 31.8652C317.76 31.6797 318.193 31.5867 318.631 31.5932C319.141 31.5493 319.651 31.6767 320.08 31.9552C320.494 32.3227 320.806 32.7903 320.986 33.3132L322.978 40.2862H323.069C323.25 39.7432 323.431 39.1092 323.703 38.3862C323.884 37.7522 324.065 37.0282 324.246 36.3032L324.789 34.1302C324.97 33.4062 325.061 32.6812 325.242 32.0472C325.852 31.7172 326.541 31.5605 327.234 31.5942C327.744 31.5503 328.254 31.6777 328.683 31.9562C328.876 32.1225 329.026 32.3327 329.12 32.569C329.215 32.8053 329.251 33.0609 329.226 33.3142C329.201 33.8609 329.141 34.4053 329.045 34.9442C328.937 35.587 328.786 36.2218 328.592 36.8442C328.411 37.4782 328.139 38.2022 327.867 38.9272C327.595 39.6522 327.324 40.3762 327.052 41.0102C326.805 41.6979 326.502 42.3641 326.146 43.0022C325.883 43.5663 325.58 44.111 325.24 44.6322C324.874 45.3514 324.418 46.0209 323.882 46.6242C323.429 47.1672 323.067 47.5302 322.705 47.8922C322.386 48.1695 322.017 48.3845 321.618 48.5262C321.235 48.6374 320.84 48.6982 320.441 48.7072C320.126 48.728 319.81 48.6823 319.513 48.5731C319.217 48.4638 318.947 48.2935 318.72 48.0732C318.275 47.6355 317.988 47.062 317.905 46.4432C318.448 45.9902 318.992 45.5372 319.535 44.9942C320.078 44.4512 320.535 43.9072 320.984 43.3642C320.625 43.25 320.309 43.0288 320.078 42.7302C319.987 42.5492 319.625 41.9152 319.172 41.1002" fill="white"/>
<path d="M200.627 14.0242C200.165 13.7057 199.64 13.4895 199.087 13.3902C198.428 13.2808 197.761 13.2203 197.092 13.2092C196.365 13.2245 195.639 13.285 194.919 13.3902C194.372 13.4506 193.827 13.5414 193.289 13.6622V40.4682C193.253 41.1809 193.377 41.8927 193.651 42.5512C193.846 43.0411 194.157 43.4763 194.557 43.8192C194.99 44.1899 195.53 44.4121 196.097 44.4532C196.756 44.5625 197.422 44.623 198.089 44.6342C198.817 44.6189 199.543 44.5584 200.262 44.4532C200.81 44.3928 201.355 44.3019 201.892 44.1812V17.3752C201.929 16.6625 201.805 15.9507 201.53 15.2922C201.393 14.7731 201.071 14.3222 200.624 14.0242" fill="white"/>
<path d="M106.084 31.8652C106.1 33.7826 105.761 35.6864 105.084 37.4802C104.483 39.045 103.558 40.4649 102.369 41.6462C101.178 42.7806 99.7571 43.6456 98.2025 44.1822C96.4522 44.7764 94.617 45.0823 92.7685 45.0882C90.9166 45.1271 89.0737 44.8198 87.3345 44.1822C85.7746 43.6132 84.3543 42.7175 83.1685 41.5552C81.9788 40.3741 81.0527 38.9542 80.4515 37.3892C79.7024 35.6456 79.3332 33.7625 79.3685 31.8652C79.3601 30.0083 79.6992 28.1663 80.3685 26.4342C80.9697 24.8692 81.8958 23.4494 83.0855 22.2682C84.2714 21.1062 85.6917 20.2109 87.2515 19.6422C90.7732 18.4348 94.5968 18.4348 98.1185 19.6422C99.6612 20.2453 101.075 21.1365 102.285 22.2682C103.474 23.4494 104.4 24.8692 105.002 26.4342C105.786 28.1349 106.158 29.9966 106.089 31.8682L106.084 31.8652ZM88.1575 31.8682C88.046 33.5513 88.4571 35.2277 89.3345 36.6682C89.7142 37.1964 90.2192 37.6219 90.8041 37.9065C91.3891 38.191 92.0356 38.3256 92.6855 38.2982C93.3345 38.3382 93.982 38.1988 94.5571 37.8952C95.1321 37.5917 95.6125 37.1357 95.9455 36.5772C96.7824 35.1533 97.191 33.5184 97.1225 31.8682C97.2354 30.2138 96.8235 28.566 95.9455 27.1592C95.547 26.6516 95.0384 26.2412 94.4581 25.959C93.8777 25.6768 93.2408 25.5301 92.5955 25.5301C91.9502 25.5301 91.3133 25.6768 90.733 25.959C90.1526 26.2412 89.644 26.6516 89.2455 27.1592C88.4727 28.605 88.0976 30.23 88.1585 31.8682" fill="white"/>
</svg>
