<svg width="43" height="43" viewBox="0 0 43 43" fill="none" xmlns="http://www.w3.org/2000/svg">
    <g clip-path="url(#clip0)">
        <path d="M21.3555 42.3252C32.9534 42.3252 42.3555 32.9232 42.3555 21.3252C42.3555 9.72722 32.9534 0.325195 21.3555 0.325195C9.75749 0.325195 0.355469 9.72722 0.355469 21.3252C0.355469 32.9232 9.75749 42.3252 21.3555 42.3252Z" fill="#3B5998"/>
        <path d="M26.6349 22.1471H22.8877V35.8751H17.2104V22.1471H14.5103V17.3226H17.2104V14.2006C17.2104 11.968 18.2709 8.47195 22.9383 8.47195L27.1436 8.48955V13.1726H24.0924C23.5919 13.1726 22.8881 13.4227 22.8881 14.4877V17.3271H27.1309L26.6349 22.1471Z" fill="white"/>
    </g>
    <defs>
        <clipPath id="clip0">
            <rect width="42" height="42" fill="white" transform="translate(0.355469 0.325195)"/>
        </clipPath>
    </defs>
</svg>