<svg width="43" height="43" viewBox="0 0 43 43" fill="none" xmlns="http://www.w3.org/2000/svg">
    <circle cx="21.3335" cy="21.3472" r="20.978" fill="white"/>
    <path d="M11.2015 25.1273L9.93456 29.8361L5.30404 29.9337C3.92019 27.3782 3.13525 24.4544 3.13525 21.3474C3.13525 18.3429 3.86915 15.5097 5.17004 13.0149H5.17104L9.2935 13.7674L11.0994 17.8472C10.7214 18.9442 10.5154 20.1219 10.5154 21.3474C10.5156 22.6774 10.7575 23.9517 11.2015 25.1273Z" fill="#FBBB00"/>
    <path d="M39.2136 17.9625C39.4226 19.0585 39.5315 20.1904 39.5315 21.3472C39.5315 22.6444 39.3945 23.9097 39.1336 25.1302C38.2477 29.2835 35.9329 32.9102 32.7263 35.4766L32.7253 35.4756L27.5328 35.2118L26.7979 30.6444C28.9257 29.402 30.5885 27.4577 31.4645 25.1302H21.7334V17.9625H31.6064H39.2136Z" fill="#518EF8"/>
    <path d="M32.725 35.4757L32.726 35.4767C29.6073 37.9724 25.6457 39.4657 21.3331 39.4657C14.4028 39.4657 8.37743 35.6091 5.30371 29.9336L11.2011 25.1273C12.738 29.2109 16.6946 32.1178 21.3331 32.1178C23.3269 32.1178 25.1948 31.5812 26.7976 30.6444L32.725 35.4757Z" fill="#28B446"/>
    <path d="M32.9492 7.40017L27.0538 12.2055C25.395 11.1732 23.4341 10.5768 21.3333 10.5768C16.5898 10.5768 12.5592 13.6171 11.0993 17.8471L5.17092 13.0149H5.16992C8.19864 7.20108 14.3 3.22897 21.3333 3.22897C25.7489 3.22897 29.7975 4.79494 32.9492 7.40017Z" fill="#F14336"/>
</svg>