<svg width="375" height="617" viewBox="0 0 375 617" fill="none" xmlns="http://www.w3.org/2000/svg">
    <path d="M0.705214 616.501L0 38.7293C5.0625 40.3451 30.5232 48.1276 56.0625 66.534C57.0182 67.2227 60.2976 69.0564 61.25 69.7655C87.653 89.4231 145.107 74.0066 161.882 52.4715C183.581 24.6158 233.118 -23.5272 279.134 13.7839C325.15 51.0949 362.218 56.8351 375 55.0413V616.501H0.705214Z" fill="black" fill-opacity="0.5"/>
    <path d="M0 616.501V76.9245C0 76.9245 36.8333 74.0751 84.1667 105.417C131.5 136.759 157.682 111.316 178.307 94.8438C177.178 95.7493 233 36.8569 268.333 72.4726C303.667 108.088 354.167 109.275 375 105.417V616.501H0Z" fill="black" fill-opacity="0.5"/>
    <path d="M120.499 84.4244C108.175 88.9361 86.181 88.0424 76.1249 81.4163C49.4778 63.8582 30.186 49.8994 0 40.6699L1.83551 613.867L375.063 616.501C377.561 452.926 375 130.345 375 130.345C375 130.345 339.088 142.951 309.943 143.852C280.798 144.752 231.667 120.441 206.685 99.7314C186.7 83.1638 146.937 74.7451 120.499 84.4244Z" fill="black" fill-opacity="0.5"/>
    <path d="M120.051 176.727C80.4673 173.878 23.4821 129.251 0 107.292L0.125 616.501H375V77.9114C367.173 82.6593 342.964 89.3064 308.747 77.9114C265.976 63.6678 264.299 94.8258 227.398 134.886C190.498 174.947 169.532 180.288 120.051 176.727Z" fill="black" fill-opacity="0.5"/>
</svg>
